<?xml version="1.0" standalone="no"?>
<!DOCTYPE svg PUBLIC "-//W3C//DTD SVG 1.1//EN" "http://www.w3.org/Graphics/SVG/1.1/DTD/svg11.dtd" >
<svg xmlns="http://www.w3.org/2000/svg" xmlns:xlink="http://www.w3.org/1999/xlink" version="1.1">
<metadata>
Created by FontForge 20170924 at Thu Jan 20 01:30:47 2022
 By www-data
(c)2022, Graphix Line Studio
</metadata>
<defs>
<font id="SnowBuddyRegular" horiz-adv-x="0" >
  <font-face 
    font-family="Snow Buddy"
    font-weight="400"
    font-stretch="normal"
    units-per-em="1000"
    panose-1="0 0 0 0 0 0 0 0 0 0"
    ascent="800"
    descent="-200"
    x-height="439.333"
    cap-height="675.006"
    bbox="-165.716 -314.514 991.268 751.615"
    underline-thickness="50"
    underline-position="-100"
    unicode-range="U+000A-F000"
  />
<missing-glyph horiz-adv-x="527" 
d="M50 700h427v-700h-427v700zM78 680l185 -309l186 309h-371zM251 350l-180 300v-601zM264 329l-185 -308h370zM276 350l181 -303v605z" />
    <glyph glyph-name="tt.liga" unicode="tt" horiz-adv-x="473" 
d="M516.6 292.208c2.08984 11.2217 29.7715 13.4551 24.9678 -8.74805c-33.373 -154.563 -58.7041 -311.762 -154.961 -311.762c-75.9854 0 -126.419 121.48 -144.904 256.979c-13.8359 -122.235 -32.2695 -235.438 -93.332 -235.438
c-97.3564 0 -145.225 177.9 -145.225 350.731c0 11.5596 1.3584 39.6631 3.82031 74.6709c-31.0107 -2.0625 -55.2207 -4.27637 -68.0703 -6.58008c-15.7539 -2.80371 -17.9541 29.9414 -4.37305 33.1074c11.6084 2.7041 38.9014 5.33594 75.0439 7.71875
c6.64941 81.6924 17.9541 181.201 31.501 205.583c21.875 39.377 118.684 18.123 118.684 -13.126c0 -30.5449 -9.69727 -97.4492 -17.543 -186.08c32.7939 1.16895 66.4805 2.13086 98.8018 2.82031c6.73145 79.8203 17.6982 172.911 30.7412 196.387
c21.875 39.377 118.684 18.123 118.684 -13.126c0 -30.0938 -9.41113 -95.5088 -17.1914 -182.182c33.9658 -0.43457 56.8027 -1.64551 60.6963 -3.88379c15.4297 -8.8877 11.1943 -30.6562 -6.92871 -27.8037c-3.97656 0.62793 -25.0615 0.672852 -56.4238 0.245117
c-4.24902 -53.6826 -7.49121 -114.135 -7.49121 -178.525c0 -193.613 24.6855 -251.861 42.6602 -251.861c34.4521 0 94.6348 203.731 110.844 290.873zM163.149 28.9443c38.9668 0 57.4727 224.278 71.9746 349.031c0.765625 14.3154 1.86914 31.6729 3.26953 50.6963
c-32.3525 -0.958984 -66.1191 -2.10352 -98.9785 -3.39648c-4.00391 -52.0752 -6.99707 -110.244 -6.99707 -172.09c0 -193.613 12.7568 -224.241 30.7314 -224.241z" />
    <glyph glyph-name=".notdef" horiz-adv-x="527" 
d="M50 700h427v-700h-427v700zM78 680l185 -309l186 309h-371zM251 350l-180 300v-601zM264 329l-185 -308h370zM276 350l181 -303v605z" />
    <glyph glyph-name=".null" 
 />
    <glyph glyph-name=".null" 
 />
    <glyph glyph-name="controlLF" unicode="&#xa;" 
 />
    <glyph glyph-name="controlCR" unicode="&#xd;" 
 />
    <glyph glyph-name="space" unicode=" " horiz-adv-x="314" 
 />
    <glyph glyph-name="exclam" unicode="!" horiz-adv-x="237" 
d="M131.023 35.2861c12.2109 0.000976562 23.9229 -4.85059 32.5576 -13.4854c8.63477 -8.63379 13.4863 -20.3447 13.4863 -32.5557c0.000976562 -18.623 -11.2158 -35.4131 -28.4209 -42.541s-37.0098 -3.18945 -50.1787 9.97852s-17.1084 32.9727 -9.98242 50.1787
s23.915 28.4248 42.5381 28.4248zM157.766 99.8652c-4.87598 -30.2656 -79.7812 -39.7744 -85.1924 -9.11523c-33.9004 192.526 -24.0547 508.641 -6.55273 579.47c7.87305 31.8662 109.93 49.4961 119.775 -3.83789c5.7666 -31.2246 -23.1543 -536.254 -28.0303 -566.517z
" />
    <glyph glyph-name="quotedbl" unicode="&#x22;" horiz-adv-x="343" 
d="M55.1172 700.035c7.84961 24.917 99.8154 22.9717 107.744 -17.502c2.03125 -10.3701 -11.584 -137.848 -12.3115 -161.209c-1.28613 -41.25 -62.3418 -46.623 -77.1055 6.66309c-4.03516 14.5537 -35.5703 117.355 -18.3271 172.048zM292.873 678.978
c3.16602 -20.5098 -11.7959 -141.92 -12.541 -165.281c-1.26562 -41.2637 -65.2422 -46.6162 -80.0098 6.67285c-4.03125 14.5566 -22.9678 99.2666 -13.3975 178.024c3.15234 25.9307 100.182 17.9297 105.948 -19.416z" />
    <glyph glyph-name="quotedbl" unicode="&#x201d;" horiz-adv-x="343" 
d="M55.1172 700.035c7.84961 24.917 99.8154 22.9717 107.744 -17.502c2.03125 -10.3701 -11.584 -137.848 -12.3115 -161.209c-1.28613 -41.25 -62.3418 -46.623 -77.1055 6.66309c-4.03516 14.5537 -35.5703 117.355 -18.3271 172.048zM292.873 678.978
c3.16602 -20.5098 -11.7959 -141.92 -12.541 -165.281c-1.26562 -41.2637 -65.2422 -46.6162 -80.0098 6.67285c-4.03125 14.5566 -22.9678 99.2666 -13.3975 178.024c3.15234 25.9307 100.182 17.9297 105.948 -19.416z" />
    <glyph glyph-name="quotedbl" unicode="&#x201c;" horiz-adv-x="343" 
d="M55.1172 700.035c7.84961 24.917 99.8154 22.9717 107.744 -17.502c2.03125 -10.3701 -11.584 -137.848 -12.3115 -161.209c-1.28613 -41.25 -62.3418 -46.623 -77.1055 6.66309c-4.03516 14.5537 -35.5703 117.355 -18.3271 172.048zM292.873 678.978
c3.16602 -20.5098 -11.7959 -141.92 -12.541 -165.281c-1.26562 -41.2637 -65.2422 -46.6162 -80.0098 6.67285c-4.03125 14.5566 -22.9678 99.2666 -13.3975 178.024c3.15234 25.9307 100.182 17.9297 105.948 -19.416z" />
    <glyph glyph-name="numbersign" unicode="#" horiz-adv-x="734" 
d="M668.876 483.999c19.3125 -5.10449 21.4854 -31.4092 0.0175781 -30.2715c-5.67676 0.303711 -40.3018 0.56543 -89.2109 -0.344727c-16.7197 -36.8389 -34.5078 -76.999 -51.8965 -118.604c-9.41797 -22.5342 -18.7256 -45.4336 -27.7783 -68.1436
c37.2666 0.879883 62.9111 0.672852 72.626 -0.324219c19.8848 -2.04492 13.4629 -34.6973 -8.02246 -33.5459c-5.8623 0.313477 -34.6797 0.40332 -78.2852 -0.796875c-45.6094 -116.642 -82.0723 -220.337 -87.8936 -231.979
c-14.585 -29.1689 -86.2041 -34.9941 -82.1279 28.7373c2.81055 43.8848 21.002 116.221 46.6572 197.696c-13.335 -0.806641 -27.0146 -1.72656 -41.0391 -2.75879c-18.3164 -1.34863 -37.0596 -3.15234 -55.6826 -5.22168
c-45.5508 -117.652 -83.7656 -216.464 -89.6006 -228.134c-14.585 -29.1689 -84.3213 -37.1807 -76.9346 26.251c3.8623 33.1865 22.3613 102.646 48.3164 185.336c-41.3154 -6.8457 -72.5293 -13.0635 -82.5029 -15.4229
c-14.8643 -3.51465 -23.4648 32.8516 -5.10449 36.4619c25.1064 4.93555 60.6836 10.9883 99.6953 16.7549c19.585 60.1934 42.291 125.16 65.6729 187.061c-32.5762 -4.37988 -55.251 -7.65234 -60.8105 -7.65234c-15.2773 0 -23.6992 34.3701 -5.10352 36.4639
c24.21 2.72461 51.6162 6.33496 80.8545 10.0732c40.8535 104.471 82.1787 194.685 111.206 229.62c16.9121 20.3545 103.644 -15.0879 84.2275 -50.7305c-8.64551 -15.8711 -35.1484 -81.127 -68.1279 -164.724c8.77344 0.741211 17.5469 1.42773 26.2891 2.01074
c21.2197 1.41699 42.2432 2.57227 62.6768 3.48633c39.8359 97.4531 78.7373 179.087 102.396 209.956c8.07031 10.5322 28.5449 15.1738 66.8252 -1.78027c36.5635 -16.1953 38.0361 -38.832 33.3633 -58.5205c-4.5625 -19.2295 -30.748 -74.2432 -64.0869 -146.887
c38.1357 -0.358398 65.0635 -1.86914 73.3848 -4.06641zM374.224 261.392c20.2607 61.4072 43.9316 126.258 67.9141 186.962c-15.3672 -0.869141 -30.8936 -1.85938 -46.3682 -2.99707c-14.3359 -1.05566 -28.6445 -2.28711 -42.7217 -3.625
c-23.2373 -59.2695 -48.627 -124.729 -72.7676 -187.023c14.2295 1.38672 27.9902 2.54883 40.9336 3.41406c18.3721 1.2207 36.042 2.31055 53.0098 3.26953z" />
    <glyph glyph-name="dollar" unicode="$" horiz-adv-x="514" 
d="M386.179 441.521c18.2295 5.64941 46.6719 24.6133 46.668 37.3906c0 6.82129 -50.4023 33.4141 -105.851 36.8252c-5.73828 -60.2588 -9.22852 -115.059 -11.1318 -164.523c62.1387 -25.9688 111.879 -63.2461 111.879 -127.536
c0 -68.8975 -55.8516 -96.1523 -109.555 -106.878c2.99023 -48.1543 6.69727 -82.2373 8.00391 -102.93c2.55176 -40.4707 -68.8223 -55.9277 -84.7764 -13.8535c-13.375 36.4414 -23.8447 73.8848 -31.3105 111.979c-54.9102 7.4082 -133.119 36.0771 -133.119 106.564
c0 33.9072 52.1377 11.3008 25.5205 -7.29492c0 -17.8086 7.03906 -40.084 97.2949 -40.4531c-7.96094 55.3252 -12.5322 111.085 -13.6885 166.968c-71.7744 18.1611 -136.113 40.957 -136.113 122.156c0 56.165 58.5586 118.041 150.436 137.66
c3.87402 30.3711 8.67578 61.4385 14.4053 93.2012c8.22168 45.5879 136.475 21.626 131.102 -16.1445c-3.86914 -27.3389 -7.33496 -53.8223 -10.3975 -79.4502c85.4033 -21.5576 128.664 -78.5918 128.664 -119.955c0 -49.585 -49.0439 -55.7959 -66.1807 -55.9688
s-18.8682 20.0674 -11.8496 22.2432zM185.77 392.802c0.322266 31.9072 1.68457 64.9902 4.08691 99.25c-54.2549 -23.5059 -80.917 -57.5273 -85.1621 -70.0361c20.2021 -10.9639 48.9609 -19.9785 81.0752 -29.2139zM377.796 260.854
c0 12.6016 -26.0508 26.9229 -63.3623 40.5801c-0.686523 -35.6357 -0.548828 -68.084 0.0957031 -97.3975c37.084 20.7373 63.2666 45.5537 63.2666 56.8174z" />
    <glyph glyph-name="percent" unicode="%" horiz-adv-x="528" 
d="M390.805 698.814c26.7236 31.0039 101.236 -18.04 79.8066 -47.1846c-74.4746 -101.271 -327.274 -589.426 -349.519 -654.692c-12.3672 -36.2979 -80.4512 -13.4844 -70.0088 22.6064c49.9541 172.658 249.42 574.503 339.721 679.271zM152.845 452.64
c-40.6113 0 -101.729 43.627 -101.729 130.624c0 69.5703 25.9824 121.76 74.043 121.76c4.69043 0 8.99414 -0.106445 12.9668 -0.292969c4.76953 3.31348 10.4639 5.03613 16.2705 4.92188c41.5635 0 96.1904 -46.6367 96.1904 -114.358
c0 -61.5381 -21.4473 -142.654 -97.7422 -142.654zM171.893 672.178c-9.74609 -18.9023 -23.71 -61.3701 -23.71 -109.428c0 -59.3037 15.5049 -77.2988 19.7021 -77.2988c6.20117 0 41.5674 44.8955 41.5674 103.01c0 45.0537 -18.9639 73.9502 -37.5596 83.7168z
M381.521 231.852c41.5674 0 96.1963 -46.6396 96.2031 -114.358c0 -61.542 -21.4473 -142.655 -97.7422 -142.655c-40.6191 0 -101.737 43.6289 -101.737 130.622c0 69.5742 25.9785 121.76 74.0391 121.76c4.69336 0 8.99707 -0.103516 12.9697 -0.292969
c4.76758 3.31641 10.4609 5.04004 16.2676 4.9248zM395.015 7.65234c6.20117 0 41.5674 44.8945 41.5674 103.005c0 45.0576 -18.9639 73.9541 -37.5596 83.7207c-9.74609 -18.9023 -23.71 -61.373 -23.71 -109.427c0 -59.3037 15.5049 -77.2988 19.7021 -77.2988z" />
    <glyph glyph-name="ampersand" unicode="&#x26;" horiz-adv-x="526" 
d="M424.729 422.743c6.5625 3.2793 13.6758 16.1328 13.6934 21.0713c0 4.58984 -44.9297 29.8477 -115.283 33.248c-4.87988 -58.7793 -7.86328 -112.476 -9.49805 -161.243c60.1523 -0.00390625 64.8906 -39.3672 64.8906 -57.6865
c0 -39.9258 -15.3125 -48.3994 -66.4941 -48.3994c0.224609 -53.1992 1.9873 -98.2871 4.13965 -135.533c49.9746 0.00390625 93.9111 28.7871 98.832 31.7051c-4.37598 28.0762 24.4307 18.2305 24.4307 0.000976562c0 -22.0547 -1.39648 -30.6904 -16.2979 -41.9707
c-24.2305 -18.3467 -70.1943 -31.3105 -104.178 -31.9795c2.22754 -30.248 4.3584 -53.0752 5.28223 -68.7188c2.54883 -43.2119 -68.8223 -59.71 -84.7764 -14.791c-10.1562 29.2041 -18.5303 58.998 -25.0762 89.2168c-25.9512 3.51465 -127.177 19.0889 -127.177 118.197
c0 64.9014 53.2578 105.093 83.1133 122.512c-61.2559 18.2295 -120.321 62.7139 -120.321 138.554c0 60.4072 53.5 120.88 145.718 146.124c4.32031 39.8389 10.0361 80.8096 17.1475 122.911c8.22168 48.6572 136.475 23.082 131.102 -17.2432
c-4.37109 -32.9814 -8.22949 -64.791 -11.5752 -95.4287c124.735 -13.4502 143.465 -89.5107 143.465 -124.843c0 -38.8291 -20.2334 -50.5889 -39.377 -50.5889s-18.3125 21.6025 -11.7598 24.8857zM90.5537 384.184c0 -30.5352 75.7949 -64.2666 93.3389 -64.2705
h0.0273438c-0.686523 43.5469 0.227539 89.5527 2.98633 137.728c-63.5244 -22.8506 -96.3525 -59.1377 -96.3525 -73.457zM125.282 130.685c0 -21.5684 43.1465 -42.0811 80.4307 -49.6816c-5.58008 31.1143 -10.3428 65.0186 -14.002 101.495h-0.0380859
c-22.6338 -9.70117 -66.3906 -28.8447 -66.3906 -51.8135z" />
    <glyph glyph-name="quotesingle" unicode="'" horiz-adv-x="213" 
d="M163.005 669.135c2.66602 -20.582 -6.85938 -148.372 -6.29004 -171.737c0.547852 -22.4238 -77.1162 -35.8223 -90.5176 0.271484c-5.25195 14.1572 -22.251 118.68 -13.9502 197.582c3.69336 35.1387 105.288 16.2334 110.758 -26.1162z" />
    <glyph glyph-name="quotesingle" unicode="&#x2019;" horiz-adv-x="213" 
d="M163.005 669.135c2.66602 -20.582 -6.85938 -148.372 -6.29004 -171.737c0.547852 -22.4238 -77.1162 -35.8223 -90.5176 0.271484c-5.25195 14.1572 -22.251 118.68 -13.9502 197.582c3.69336 35.1387 105.288 16.2334 110.758 -26.1162z" />
    <glyph glyph-name="quotesingle" unicode="&#x2018;" horiz-adv-x="213" 
d="M163.005 669.135c2.66602 -20.582 -6.85938 -148.372 -6.29004 -171.737c0.547852 -22.4238 -77.1162 -35.8223 -90.5176 0.271484c-5.25195 14.1572 -22.251 118.68 -13.9502 197.582c3.69336 35.1387 105.288 16.2334 110.758 -26.1162z" />
    <glyph glyph-name="parenleft" unicode="(" horiz-adv-x="384" 
d="M311.159 -72.7754c9.57031 0 22.9736 5.74219 22.9736 -4.9209c0 -13.6738 -16.6816 -21.4199 -49.4961 -21.4199c-102.005 0 -234.635 158.543 -234.635 416.85c0 271.133 73.5645 432.346 200.448 432.346c34.1865 0 62.8379 -22.8477 47.0391 -32.2695
c-93.7109 -55.8789 -119.231 -253.499 -119.231 -418.126c0 -252.1 76.0225 -372.459 132.901 -372.459z" />
    <glyph glyph-name="parenright" unicode=")" horiz-adv-x="384" 
d="M99.4961 750.062c102.002 0 234.634 -158.538 234.634 -416.849c0 -271.133 -73.5645 -432.346 -200.452 -432.346c-34.1836 0 -62.835 22.8477 -47.0361 32.2656c93.7109 55.8789 119.231 253.503 119.231 418.126c0 252.1 -76.0225 372.459 -132.901 372.459
c-9.57324 0 -22.9717 -5.74219 -22.9717 4.9209c0 13.6738 16.6816 21.4229 49.4961 21.4229z" />
    <glyph glyph-name="asterisk" unicode="*" horiz-adv-x="374" 
d="M299.855 633.034c12.5811 1.09668 37.4629 -44.1631 14.1914 -57.0029c-7.51172 -4.15527 -41.5674 -11.6221 -61.6211 -11.6221c4.19336 -33.3486 35.0146 -63.625 39.7432 -71.2842s-2.2002 -15.3945 -14.584 -14.584c-41.75 2.73438 -74.0195 68.001 -80.7617 81.3096
c-4.9248 -18.7881 -20.0957 -45.6357 -26.0723 -53.9639c-29.5342 -41.1641 -98.7188 -14.7676 -86.9619 12.7598c2.75586 6.44922 13.126 31.5381 21.1924 43.5703c-10.0977 0.272461 -32.8896 12.7666 -44.1426 36.0967
c-22.4268 46.4883 -4.73828 60.9834 5.74219 59.5244s52.5029 -24.7959 75.292 -25.3408c0.914062 3.26953 20.2646 57.0693 25.6172 68.6289c10.208 22.0576 73.6504 6.74512 74.9268 -13.9473c0.49707 -8.05957 0.686523 -46.4883 1.91406 -62.0762
c15.3262 -0.817383 46.3887 7.13867 55.5244 7.93164z" />
    <glyph glyph-name="plus" unicode="+" horiz-adv-x="377" 
d="M310.484 365.726c26.7998 -5.33496 15.3145 -32.1357 2.86133 -30.6387c-1.93848 0.241211 -35.6768 -0.03125 -79.1885 -1.03516c-2.59375 -54.4199 -5.8291 -109.078 -6.89844 -123.887c-2.18652 -30.2627 -73.6533 -32.5557 -82.4023 -7.29395
c-8.54199 24.6924 -19.3535 74.6396 -26.4746 127.06c-18.626 -0.982422 -35.7939 -2.12695 -49.9131 -3.44824c-16.9258 -1.58301 -27.8926 32.0869 -7.11035 34.7285c9.16699 1.15918 28.6973 2.125 52.9902 2.88379c-4.07324 40.6914 -5.16992 79.9033 -0.483398 106.958
c9.43555 54.4307 115.221 34.459 123.242 -12.9434c1.46875 -8.6875 0.413086 -47.3857 -1.48047 -91.9326c40.1807 0.283203 71.957 0.125 74.8574 -0.451172z" />
    <glyph glyph-name="comma" unicode="," horiz-adv-x="196" 
d="M138.708 13.4707c15.792 -30.4414 7.03711 -86.2285 -42.665 -121.629c-19.8125 -14.1123 -41.6182 15.1738 -32.8691 25.0166c7.3252 8.23926 21.4648 21.1992 21.1201 34.8799c-20.9414 5.52051 -35.2012 24.8936 -34.249 46.5293s16.8584 39.6816 38.2031 43.3418
s42.3545 -8.05566 50.46 -28.1387z" />
    <glyph glyph-name="hyphen" unicode="-" horiz-adv-x="311" 
d="M248.886 373.154c19.1436 -1.95215 14.6113 -28.2588 -1.46289 -28.252c-71.4668 0 -175.045 -10.3838 -185.046 -10.7559s-19.8643 25.1514 -4.13867 30.3486c12.667 4.17676 119.184 15.9502 190.647 8.65918z" />
    <glyph glyph-name="period" unicode="." horiz-adv-x="192" 
d="M96.04 30.7334c25.4268 0 46.04 -20.6133 46.04 -46.04s-20.6133 -46.04 -46.04 -46.04s-46.04 20.6133 -46.04 46.04s20.6133 46.04 46.04 46.04z" />
    <glyph glyph-name="slash" unicode="/" horiz-adv-x="524" 
d="M390.805 696.921c26.7139 31.0068 97.8291 -17.6719 80.3301 -42.834c-112.651 -161.92 -327.802 -593.775 -350.042 -659.045c-12.3633 -36.2939 -80.4512 -13.4805 -70.0088 22.6104c49.958 172.655 249.42 574.504 339.721 679.269z" />
    <glyph glyph-name="zero" unicode="0" horiz-adv-x="527" 
d="M288.397 715.061c73.5293 12.3984 188.219 -91.3623 188.205 -349.932c0 -204.918 -73.6504 -385.674 -213.939 -385.674c-102.547 0 -212.663 123.877 -212.663 374.417c0 132.312 51.0479 370.045 199.083 370.045
c13.6064 0.0644531 27.0498 -2.96387 39.3145 -8.85645zM285.56 12.9072c69.7324 0 151.315 166.669 151.315 349.111c0 86.4209 -26.4863 292.925 -129.837 325.87c-1.38574 -1.61328 -3.12109 -2.88965 -5.07324 -3.73242
c-54.3271 -25.1445 -139.647 -158.595 -139.647 -350.387c0 -177.932 56.8789 -320.862 123.242 -320.862z" />
    <glyph glyph-name="one" unicode="1" horiz-adv-x="246" 
d="M69.7578 703.983c6.81836 45.8154 128.411 6.38379 126.252 -31.707c-5.05957 -89.2939 -21.6758 -255.369 -20.9482 -355.274c0.979492 -134.186 -1.02051 -257.776 1.09375 -291.332c2.55566 -40.4531 -71.8291 -58.7031 -84.0439 -11.4834
c-15.75 60.8867 -42.1113 230.183 -42.1113 351.673c0 138.951 4.27637 234.132 19.7578 338.124z" />
    <glyph glyph-name="two" unicode="2" horiz-adv-x="528" 
d="M291.937 720.816c50.3203 0 186.324 -19.1387 186.324 -165.719c0 -165.179 -235.135 -319.511 -340.15 -503.774c19.7715 4.15527 102.309 17.5566 158.753 17.5566c89.876 0 118.683 -35.5488 118.683 -54.6924c0 -24.248 -28.4414 -23.5166 -26.2549 0
c-15.04 12.3047 -29.1689 18.0469 -82.0371 18.0469c-56.541 0 -152.449 -14.5186 -192.958 -21.8438c-23.4443 -22.082 -68.8848 -4.89062 -63.9189 34.9727c29.3789 235.656 357.436 423.32 357.436 587.509c0 39.6357 -82.0547 52.9443 -108.492 52.9443
c-147.397 0 -223.782 -136.186 -223.782 -186.688c0 -13.6738 -1.61035 -14.584 -8.02148 -14.584c-13.9463 0 -17.1396 10.3906 -17.1396 28.0752c0 84.5928 88.4209 208.197 241.56 208.197z" />
    <glyph glyph-name="three" unicode="3" horiz-adv-x="563" 
d="M338.214 415.087c32.8008 -1.09668 175.013 -51.4131 175.023 -198.003c0 -113.762 -129.061 -232.173 -262.524 -232.173c-101.736 0 -200.714 72.4678 -200.714 197.169c0 44.4844 19.8682 74.2393 31.6904 82.7295c16.8018 12.0703 33.3936 -6.89062 17.623 -13.6367
c-56.4414 -84.4062 17.6777 -224.968 119.669 -224.968c121.418 0 189.236 144.932 189.236 232.442c0 145.117 -129.029 118.845 -142.931 117.406c-42.2949 -4.37598 -92.6113 48.8584 -65.2666 61.9844c20.6992 9.93555 163.896 88.9688 163.896 208.925
c0 29.5342 -10.9355 34.459 -49.7676 34.459c-121.783 0 -201.279 -120.087 -207.832 -169.365c-1.90723 -14.2979 -27.2686 -5.44531 -25.8887 9.84277c6.92871 76.5713 110.479 200.907 224.786 200.907c95.7148 0 153.87 -83.4824 153.87 -140.361
c0 -84.5898 -71.6465 -129.078 -120.87 -167.358z" />
    <glyph glyph-name="four" unicode="4" horiz-adv-x="489" 
d="M321.006 687.851c6.81836 45.8154 120.518 8.52539 118.379 -29.5762c-5.05957 -89.2969 -18.7783 -241.743 -18.0469 -341.648c0.96875 -134.182 -0.114258 -245.923 2.00293 -279.479c2.55176 -40.457 -71.8291 -58.7041 -84.0439 -11.4883
c-15.7637 60.8867 -39.5596 218.699 -39.5596 340.189c0 71.0811 1.52441 126.478 5.08301 177.563c-33.2422 -80.3164 -91.0625 -206.321 -99.5186 -220.585c-30.2656 -51.041 -104.995 -25.5791 -131.264 25.5205c-46.6709 90.7803 -12.3906 303.023 -4.55859 332.534
c10.2119 38.4629 105.195 8.01758 99.3604 -28.4424s-28.4414 -228.979 -6.47363 -295.978c58.2178 63.4111 134.844 273.074 157.95 326.591c0.216797 1.60059 0.448242 3.19043 0.689453 4.79785z" />
    <glyph glyph-name="five" unicode="5" horiz-adv-x="509" 
d="M282.914 479.622c121.78 0 176.384 -83.1279 176.404 -204.318c0 -139.151 -120.614 -266.584 -275.388 -266.584c-67.8184 0 -116.635 51.5645 -123.06 61.2549c-10.874 16.4092 14.7666 28.9863 24.0645 18.5957s54.6934 -46.4883 106.106 -46.4883
c80.9443 0 154.598 84.2275 154.598 234.083c0 73.6533 -28.4414 162.257 -75.4785 162.257c-60.8799 -8.3877 -101.815 -70.7266 -102.081 -76.9346c-2.19727 -50.8643 -90.1074 -45.8467 -101.736 -8.17285c-29.5342 95.6807 -11.6631 304.972 -3.2793 330.495
s35.3662 35 70.3701 35c61.9834 0 161.195 -25.3379 211.022 -25.3379c19.2471 -0.242188 38.3936 2.81055 56.6104 9.02539c10.1182 4.10059 18.8672 1.08984 18.8672 -15.8643c0 -23.7891 -23.7891 -33.6348 -80.6719 -33.6348
c-53.2891 0 -121.78 16.4189 -149.328 18.8711c9.8457 -15.7705 -9.66016 -116.59 -14.7676 -226.338c40.6562 28.2588 71.6494 34.0908 107.747 34.0908z" />
    <glyph glyph-name="six" unicode="6" horiz-adv-x="508" 
d="M300.089 397.036c129.836 0 158.274 -115.04 158.281 -173.392c0 -142.203 -83.1309 -223.661 -170.642 -223.661c-133.45 0 -237.729 182.095 -237.729 363.765c0 209.929 119.59 342.969 225.285 342.969c94.1113 0 167.555 -68.9082 164.848 -190.646
c-0.365234 -16.4092 -24.792 -12.3984 -26.6162 0c-13.4219 91.3252 -70.0078 148.763 -101.363 148.763c-29.9004 0 -133.816 -104.995 -125.612 -301.07c28.4307 15.3193 58.8857 33.2734 113.548 33.2734zM316.164 37.1562c32.2832 0 96.8057 68.3652 96.8018 172.284
c0 108.292 -58.5205 154.321 -118.135 154.321c-65.0801 0 -88.6006 -37.8291 -108.289 -66.2705c13.6738 -177.387 67.6387 -260.335 129.622 -260.335z" />
    <glyph glyph-name="seven" unicode="7" horiz-adv-x="531" 
d="M385.89 708.784c77.1191 0 105.013 -43.7539 91.8867 -59.0898c-5.79688 -6.75977 -242.277 -410.198 -341.721 -623.606c-21.4404 -46.0156 -93.4873 -39.9395 -85.4316 1.20312c41.0186 209.474 271.822 622.951 289.324 647.017
c-117.772 -17.8574 -192.133 -8.5459 -205.097 -6.55273c-26.0723 4.01074 -33.3623 39.3809 -12.5801 37.7393c9.87402 -0.772461 27.3447 -6.55273 95.7119 -6.55273c67.001 0 130.716 9.84277 167.906 9.84277z" />
    <glyph glyph-name="eight" unicode="8" horiz-adv-x="531" 
d="M302.134 721.365c94.6182 0 178.845 -71.0986 178.845 -164.352c0 -99.2676 -114.489 -199.9 -122.511 -211.567c52.5029 -39.3809 115.4 -76.9375 115.4 -153.095c0 -91.1562 -71.6465 -198.38 -219.682 -198.38c-129.074 0 -204.187 62.6934 -204.187 148.745
c0 102.822 148.035 214.949 175.562 249.943c-38.832 33.9111 -106.103 97.9014 -106.103 178.297c0 74.9297 73.8369 150.408 182.674 150.408zM418.991 183.556c0 62.7148 -54.2344 103.468 -91.873 131.261c-23.334 -23.334 -148.763 -126.895 -148.763 -203.455
c0 -75.1094 78.7471 -78.0273 102.081 -78.0273c77.2988 0 138.555 78.7578 138.555 150.222zM259.744 422.471c60.335 43.9258 115.13 114.765 115.13 185.125c0 51.4238 -11.0322 76.2168 -68.1836 76.2168c-145.849 0 -202.728 -138.568 -46.9463 -261.342z" />
    <glyph glyph-name="nine" unicode="9" horiz-adv-x="508" 
d="M327.405 672.104c6.09766 50.123 118.932 16.7705 118.936 -30.5908c0 -27.248 12.0322 -49.2266 12.0322 -157.516c0 -247.213 -108.289 -488.225 -270.547 -488.225c-101.364 0 -137.827 94.0703 -137.827 118.136c0 35.3701 44.8506 28.8076 32.8184 5.1084
c-3.2832 -15.3154 49.627 -87.876 93.708 -87.876c105.009 0 166.992 290.238 153.139 457.234c-14.5879 -47.4023 -70.374 -196.896 -140.017 -196.896c-76.9336 0 -129.074 101.729 -129.074 212.936c0 101.367 58.9688 192.641 162.619 192.641
c17.1436 0 76.3057 -7.48047 104.213 -24.9512zM191.468 327.167c82.5889 66.7256 106.471 226.472 129.805 292.101c-12.0322 12.5811 -20.9639 23.8828 -46.6709 23.8828c-49.9512 0 -100.088 -99.3564 -100.088 -230.8c0 -25.7031 5.05957 -74.9268 16.9541 -85.1836z
" />
    <glyph glyph-name="colon" unicode=":" horiz-adv-x="198" 
d="M96.04 244.035c25.4268 0 46.04 -20.6133 46.04 -46.04s-20.6133 -46.04 -46.04 -46.04s-46.04 20.6133 -46.04 46.04s20.6133 46.04 46.04 46.04zM101.513 386.038c-25.4268 0 -46.042 20.6152 -46.042 46.042c-0.000976562 18.623 11.2168 35.4131 28.4229 42.541
s37.0107 3.18848 50.1797 -9.98047s17.1084 -32.9736 9.98047 -50.1797s-23.918 -28.4238 -42.541 -28.4229z" />
    <glyph glyph-name="semicolon" unicode=";" horiz-adv-x="198" 
d="M101.507 386.039c-25.4268 0 -46.042 20.6152 -46.042 46.042c-0.000976562 18.623 11.2168 35.4131 28.4229 42.541s37.0107 3.18848 50.1797 -9.98047s17.1084 -32.9736 9.98047 -50.1797s-23.918 -28.4238 -42.541 -28.4229zM138.706 215.259
c15.792 -30.4414 7.04785 -86.2119 -42.6689 -121.627c-19.8125 -14.1123 -41.6182 15.1777 -32.8691 25.0234c7.3252 8.23535 21.4648 21.1953 21.1201 34.873c-20.9404 5.52246 -35.1982 24.8955 -34.2451 46.5303s16.8594 39.6787 38.2041 43.3379
s42.3535 -8.05566 50.459 -28.1377z" />
    <glyph glyph-name="less" unicode="&#x3c;" horiz-adv-x="333" 
d="M266.309 268.507c22.6963 -9.84277 10.8467 -35 -1.09277 -30.8994c-9.41504 3.23438 -162.713 51.6846 -190.251 67.29c-15.2842 8.65918 -24.9648 22.1641 -24.9648 41.6387c0 59.248 165.172 119.687 202.911 119.687c16.4053 0 30.0791 -16.9541 30.0791 -47.0371
s-18.0439 -35.8252 -30.0801 -40.4736s-121.239 -34.7275 -141.655 -48.4014c22.6963 -15.04 150.529 -59.8418 155.054 -61.8037z" />
    <glyph glyph-name="equal" unicode="=" horiz-adv-x="373" 
d="M68.6445 396.695c-16.9258 -1.58301 -21.3271 35.71 -3.69043 37.7344c36.9248 4.24902 233.196 1.85254 240.783 0.345703c26.793 -5.3457 16.8193 -36.5078 4.37695 -35.0039c-4.38281 0.527344 -165.443 4.03125 -241.47 -3.07617zM304.462 303.966
c26.7998 -5.33887 16.5264 -32.584 4.08301 -31.0566c-4.38281 0.520508 -180.263 0.286133 -243.546 -3.10352c-16.9746 -0.910156 -21.3301 35.7119 -3.69043 37.7363c36.9219 4.24902 235.566 -2.06934 243.153 -3.57617z" />
    <glyph glyph-name="greater" unicode="&#x3e;" horiz-adv-x="333" 
d="M80.0791 466.234c37.7393 0 202.908 -60.4463 202.908 -119.685c0 -19.4746 -9.68359 -32.9795 -24.9648 -41.6387c-27.541 -15.6055 -180.835 -64.0557 -190.25 -67.291c-11.9424 -4.10059 -23.792 21.0576 -1.09277 30.9004
c4.52148 1.96191 132.357 46.7637 155.054 61.8037c-20.4199 13.6738 -129.623 43.7529 -141.655 48.4014s-30.0791 10.3936 -30.0791 40.4727s13.6709 47.0361 30.0801 47.0361z" />
    <glyph glyph-name="question" unicode="?" horiz-adv-x="551" 
d="M234.964 38.6309c12.2109 0.000976562 23.9219 -4.84766 32.5566 -13.4824s13.4863 -20.3457 13.4863 -32.5566c0 -25.4268 -20.6123 -46.0391 -46.0391 -46.04s-46.04 20.6104 -46.041 46.0371s20.6104 46.04 46.0371 46.042zM269.789 106.072
c-8.81152 -41.0498 -83.3301 -47.1631 -83.3301 22.3037c0 237.37 201.907 359.878 201.907 501.716c0 68.9121 -55.4209 69.2773 -81.8555 69.2773c-113.579 0 -219.047 -87.1416 -219.047 -183.494c0 -13.6807 13.9463 -31.7275 -4.10059 -31.7275
c-13.9463 0 -33.3623 17.0645 -33.3623 55.1484c0 84.5928 96.2598 196.893 249.398 196.893c50.3164 0 202 -31.3623 202 -177.932c0 -124.697 -189.968 -258.147 -231.61 -452.185z" />
    <glyph glyph-name="at" unicode="@" horiz-adv-x="641" 
d="M317.618 629.847c101.364 0 273.467 -86.7783 273.474 -269.097c0 -122.512 -69.0635 -192.521 -116.858 -192.521c-64.9971 0 -108.361 58.0654 -125.674 134.378c-16.5918 -46.8711 -35.8359 -85.7617 -62.4219 -85.7617c-41.9326 0 -102.047 33.4248 -102.047 135.609
c0 89.9658 53.9375 170.893 118.245 170.893c20.6787 0 44.8096 -7.83887 61.8184 -15.9951c0.0791016 0.46875 0.165039 0.961914 0.237305 1.42383l0.213867 -1.6416c3.80273 -1.82031 7.51074 -3.83398 11.1084 -6.03223
c25.876 2.41406 67.7188 -12.4502 69.8984 -41.7295c1.46875 -19.6855 -7.1084 -80.5723 -7.1084 -146.028c0 -77.1162 25.3096 -119.287 31.541 -119.287c18.4854 0 86.0449 42.1807 86.0449 176.031s-124.646 226.275 -219.627 226.275
c-152.373 0 -237.056 -155.405 -237.056 -257.317c0 -229.148 182.494 -238.994 198.899 -238.994s43.8223 2.53809 51.4092 5.10742c19.9648 6.74219 17.8643 -13.1152 11.667 -17.1367s-36.8281 -10.5742 -67.8184 -10.5742s-243.564 23.6992 -243.564 270.181
c0 150.222 126.877 282.217 267.618 282.217zM291.004 288.218c17.5986 18.6953 35.6377 67.0381 49.8535 117.255c0.945312 15.0391 2.77637 30.0098 5.4834 44.833c-52.8613 -49.9297 -61.0723 -152.659 -55.3369 -162.088z" />
    <glyph glyph-name="A" unicode="A" horiz-adv-x="656" 
d="M697.472 296.682c2.1416 15.0781 28.46 15.2148 27.5215 -0.0595703c-3.46582 -56.79 -46.4912 -369.269 -150.77 -369.269c-106.468 0 -153.101 177.677 -175.862 356.984c-56.6416 -2.52441 -120.211 -7.13184 -184.012 -14.9395
c-40.3389 -157.257 -70.7188 -306.154 -90.0654 -327.826c-13.6738 -15.3125 -35.6074 -6.23926 -29.8994 6.92773c16.7119 38.5527 42.1387 170.676 75.3877 314.894c-35.1592 -5.19727 -69.9043 -11.4502 -103.098 -18.9688
c-15.5332 -3.52148 -24.0684 22.3779 -8.2041 31.0371c13.3359 7.2627 59.5762 16.1436 119.77 24.1406c48.502 204.528 112.275 419.537 188.836 419.537c91.1592 0 115.507 -59.8662 132.774 -154.826c11.3564 -62.4727 14.543 -150.78 19.4297 -244.088
c17.2949 -0.601562 34.5195 -2.49902 51.5303 -5.67578c19.251 -4.04199 9.44336 -28.5137 3.42188 -28.3037c-13.4775 0.46582 -31.5283 0.800781 -53.1377 0.828125c3.68652 -64.0352 8.69434 -129.25 18.1338 -189.109
c13.0879 -83.0205 40.6533 -134.544 54.3271 -134.544c16.7744 0 78.0303 150.952 103.916 333.261zM223.688 305.167c53.9893 6.10449 114.297 11.1914 170.556 13.9229c-17.8506 161.092 -18.1924 314.266 -27.3008 330.729
c-55.8994 -48.623 -103.939 -196.358 -143.255 -344.652z" />
    <glyph glyph-name="A" unicode="&#xc5;" horiz-adv-x="656" 
d="M697.472 296.682c2.1416 15.0781 28.46 15.2148 27.5215 -0.0595703c-3.46582 -56.79 -46.4912 -369.269 -150.77 -369.269c-106.468 0 -153.101 177.677 -175.862 356.984c-56.6416 -2.52441 -120.211 -7.13184 -184.012 -14.9395
c-40.3389 -157.257 -70.7188 -306.154 -90.0654 -327.826c-13.6738 -15.3125 -35.6074 -6.23926 -29.8994 6.92773c16.7119 38.5527 42.1387 170.676 75.3877 314.894c-35.1592 -5.19727 -69.9043 -11.4502 -103.098 -18.9688
c-15.5332 -3.52148 -24.0684 22.3779 -8.2041 31.0371c13.3359 7.2627 59.5762 16.1436 119.77 24.1406c48.502 204.528 112.275 419.537 188.836 419.537c91.1592 0 115.507 -59.8662 132.774 -154.826c11.3564 -62.4727 14.543 -150.78 19.4297 -244.088
c17.2949 -0.601562 34.5195 -2.49902 51.5303 -5.67578c19.251 -4.04199 9.44336 -28.5137 3.42188 -28.3037c-13.4775 0.46582 -31.5283 0.800781 -53.1377 0.828125c3.68652 -64.0352 8.69434 -129.25 18.1338 -189.109
c13.0879 -83.0205 40.6533 -134.544 54.3271 -134.544c16.7744 0 78.0303 150.952 103.916 333.261zM223.688 305.167c53.9893 6.10449 114.297 11.1914 170.556 13.9229c-17.8506 161.092 -18.1924 314.266 -27.3008 330.729
c-55.8994 -48.623 -103.939 -196.358 -143.255 -344.652z" />
    <glyph glyph-name="A" unicode="&#xc4;" horiz-adv-x="656" 
d="M697.472 296.682c2.1416 15.0781 28.46 15.2148 27.5215 -0.0595703c-3.46582 -56.79 -46.4912 -369.269 -150.77 -369.269c-106.468 0 -153.101 177.677 -175.862 356.984c-56.6416 -2.52441 -120.211 -7.13184 -184.012 -14.9395
c-40.3389 -157.257 -70.7188 -306.154 -90.0654 -327.826c-13.6738 -15.3125 -35.6074 -6.23926 -29.8994 6.92773c16.7119 38.5527 42.1387 170.676 75.3877 314.894c-35.1592 -5.19727 -69.9043 -11.4502 -103.098 -18.9688
c-15.5332 -3.52148 -24.0684 22.3779 -8.2041 31.0371c13.3359 7.2627 59.5762 16.1436 119.77 24.1406c48.502 204.528 112.275 419.537 188.836 419.537c91.1592 0 115.507 -59.8662 132.774 -154.826c11.3564 -62.4727 14.543 -150.78 19.4297 -244.088
c17.2949 -0.601562 34.5195 -2.49902 51.5303 -5.67578c19.251 -4.04199 9.44336 -28.5137 3.42188 -28.3037c-13.4775 0.46582 -31.5283 0.800781 -53.1377 0.828125c3.68652 -64.0352 8.69434 -129.25 18.1338 -189.109
c13.0879 -83.0205 40.6533 -134.544 54.3271 -134.544c16.7744 0 78.0303 150.952 103.916 333.261zM223.688 305.167c53.9893 6.10449 114.297 11.1914 170.556 13.9229c-17.8506 161.092 -18.1924 314.266 -27.3008 330.729
c-55.8994 -48.623 -103.939 -196.358 -143.255 -344.652z" />
    <glyph glyph-name="A" unicode="&#xc3;" horiz-adv-x="656" 
d="M697.472 296.682c2.1416 15.0781 28.46 15.2148 27.5215 -0.0595703c-3.46582 -56.79 -46.4912 -369.269 -150.77 -369.269c-106.468 0 -153.101 177.677 -175.862 356.984c-56.6416 -2.52441 -120.211 -7.13184 -184.012 -14.9395
c-40.3389 -157.257 -70.7188 -306.154 -90.0654 -327.826c-13.6738 -15.3125 -35.6074 -6.23926 -29.8994 6.92773c16.7119 38.5527 42.1387 170.676 75.3877 314.894c-35.1592 -5.19727 -69.9043 -11.4502 -103.098 -18.9688
c-15.5332 -3.52148 -24.0684 22.3779 -8.2041 31.0371c13.3359 7.2627 59.5762 16.1436 119.77 24.1406c48.502 204.528 112.275 419.537 188.836 419.537c91.1592 0 115.507 -59.8662 132.774 -154.826c11.3564 -62.4727 14.543 -150.78 19.4297 -244.088
c17.2949 -0.601562 34.5195 -2.49902 51.5303 -5.67578c19.251 -4.04199 9.44336 -28.5137 3.42188 -28.3037c-13.4775 0.46582 -31.5283 0.800781 -53.1377 0.828125c3.68652 -64.0352 8.69434 -129.25 18.1338 -189.109
c13.0879 -83.0205 40.6533 -134.544 54.3271 -134.544c16.7744 0 78.0303 150.952 103.916 333.261zM223.688 305.167c53.9893 6.10449 114.297 11.1914 170.556 13.9229c-17.8506 161.092 -18.1924 314.266 -27.3008 330.729
c-55.8994 -48.623 -103.939 -196.358 -143.255 -344.652z" />
    <glyph glyph-name="A" unicode="&#xc2;" horiz-adv-x="656" 
d="M697.472 296.682c2.1416 15.0781 28.46 15.2148 27.5215 -0.0595703c-3.46582 -56.79 -46.4912 -369.269 -150.77 -369.269c-106.468 0 -153.101 177.677 -175.862 356.984c-56.6416 -2.52441 -120.211 -7.13184 -184.012 -14.9395
c-40.3389 -157.257 -70.7188 -306.154 -90.0654 -327.826c-13.6738 -15.3125 -35.6074 -6.23926 -29.8994 6.92773c16.7119 38.5527 42.1387 170.676 75.3877 314.894c-35.1592 -5.19727 -69.9043 -11.4502 -103.098 -18.9688
c-15.5332 -3.52148 -24.0684 22.3779 -8.2041 31.0371c13.3359 7.2627 59.5762 16.1436 119.77 24.1406c48.502 204.528 112.275 419.537 188.836 419.537c91.1592 0 115.507 -59.8662 132.774 -154.826c11.3564 -62.4727 14.543 -150.78 19.4297 -244.088
c17.2949 -0.601562 34.5195 -2.49902 51.5303 -5.67578c19.251 -4.04199 9.44336 -28.5137 3.42188 -28.3037c-13.4775 0.46582 -31.5283 0.800781 -53.1377 0.828125c3.68652 -64.0352 8.69434 -129.25 18.1338 -189.109
c13.0879 -83.0205 40.6533 -134.544 54.3271 -134.544c16.7744 0 78.0303 150.952 103.916 333.261zM223.688 305.167c53.9893 6.10449 114.297 11.1914 170.556 13.9229c-17.8506 161.092 -18.1924 314.266 -27.3008 330.729
c-55.8994 -48.623 -103.939 -196.358 -143.255 -344.652z" />
    <glyph glyph-name="A" unicode="&#xc1;" horiz-adv-x="656" 
d="M697.472 296.682c2.1416 15.0781 28.46 15.2148 27.5215 -0.0595703c-3.46582 -56.79 -46.4912 -369.269 -150.77 -369.269c-106.468 0 -153.101 177.677 -175.862 356.984c-56.6416 -2.52441 -120.211 -7.13184 -184.012 -14.9395
c-40.3389 -157.257 -70.7188 -306.154 -90.0654 -327.826c-13.6738 -15.3125 -35.6074 -6.23926 -29.8994 6.92773c16.7119 38.5527 42.1387 170.676 75.3877 314.894c-35.1592 -5.19727 -69.9043 -11.4502 -103.098 -18.9688
c-15.5332 -3.52148 -24.0684 22.3779 -8.2041 31.0371c13.3359 7.2627 59.5762 16.1436 119.77 24.1406c48.502 204.528 112.275 419.537 188.836 419.537c91.1592 0 115.507 -59.8662 132.774 -154.826c11.3564 -62.4727 14.543 -150.78 19.4297 -244.088
c17.2949 -0.601562 34.5195 -2.49902 51.5303 -5.67578c19.251 -4.04199 9.44336 -28.5137 3.42188 -28.3037c-13.4775 0.46582 -31.5283 0.800781 -53.1377 0.828125c3.68652 -64.0352 8.69434 -129.25 18.1338 -189.109
c13.0879 -83.0205 40.6533 -134.544 54.3271 -134.544c16.7744 0 78.0303 150.952 103.916 333.261zM223.688 305.167c53.9893 6.10449 114.297 11.1914 170.556 13.9229c-17.8506 161.092 -18.1924 314.266 -27.3008 330.729
c-55.8994 -48.623 -103.939 -196.358 -143.255 -344.652z" />
    <glyph glyph-name="A" unicode="&#xc0;" horiz-adv-x="656" 
d="M697.472 296.682c2.1416 15.0781 28.46 15.2148 27.5215 -0.0595703c-3.46582 -56.79 -46.4912 -369.269 -150.77 -369.269c-106.468 0 -153.101 177.677 -175.862 356.984c-56.6416 -2.52441 -120.211 -7.13184 -184.012 -14.9395
c-40.3389 -157.257 -70.7188 -306.154 -90.0654 -327.826c-13.6738 -15.3125 -35.6074 -6.23926 -29.8994 6.92773c16.7119 38.5527 42.1387 170.676 75.3877 314.894c-35.1592 -5.19727 -69.9043 -11.4502 -103.098 -18.9688
c-15.5332 -3.52148 -24.0684 22.3779 -8.2041 31.0371c13.3359 7.2627 59.5762 16.1436 119.77 24.1406c48.502 204.528 112.275 419.537 188.836 419.537c91.1592 0 115.507 -59.8662 132.774 -154.826c11.3564 -62.4727 14.543 -150.78 19.4297 -244.088
c17.2949 -0.601562 34.5195 -2.49902 51.5303 -5.67578c19.251 -4.04199 9.44336 -28.5137 3.42188 -28.3037c-13.4775 0.46582 -31.5283 0.800781 -53.1377 0.828125c3.68652 -64.0352 8.69434 -129.25 18.1338 -189.109
c13.0879 -83.0205 40.6533 -134.544 54.3271 -134.544c16.7744 0 78.0303 150.952 103.916 333.261zM223.688 305.167c53.9893 6.10449 114.297 11.1914 170.556 13.9229c-17.8506 161.092 -18.1924 314.266 -27.3008 330.729
c-55.8994 -48.623 -103.939 -196.358 -143.255 -344.652z" />
    <glyph glyph-name="B" unicode="B" horiz-adv-x="608" 
d="M387.452 359.396c65.2666 -6.5625 187.049 -69.2773 187.056 -197.638c0 -145.117 -107.927 -243.381 -231.352 -243.381c-73.1055 0 -126.705 40.6533 -126.705 101.547c0 39.0117 35.915 29.3516 31.542 14.9502c-11.7666 -38.7354 40.4746 -79.4883 65.6328 -79.4883
s141.289 63.7354 141.289 234.997c0 79.3057 -30.9932 103.005 -57.4277 121.417c-40.291 0 -53.5996 -12.2148 -74.2021 -12.2148c-43.0254 0 -88.6445 28.1172 -69.8252 44.2119c85.4961 73.1055 188.685 220.137 133.809 298.712
c-37.2871 0 -176.779 -93.0908 -197.727 -534.202c6.11133 -84.3408 13.7471 -142.931 12.3193 -166.765c-1.88965 -31.5488 -52.2305 -51.0791 -72.5605 -10.9365c-80.8721 159.702 -106.103 447.385 -46.4883 769.527c8.43164 45.5469 137.554 2.18652 129.373 -45.668
c-14.0625 -82.8125 -23.0996 -166.4 -27.0625 -250.306c38.2148 160.295 108.179 270.998 202.328 270.998c66.7217 0 108.289 -55.7891 108.289 -107.564c0 -108.654 -95.5283 -196.893 -108.288 -208.197z" />
    <glyph glyph-name="C" unicode="C" horiz-adv-x="521" 
d="M562.479 294.04c4.9043 19.6162 29.4404 4.67188 27.8955 -3.00488c-36.832 -183.222 -109.755 -363.709 -280.034 -363.709c-136.73 0 -260.339 154.235 -260.339 364.802c0 260.883 124.697 422.774 263.072 422.774c106.285 0 148.945 -90.79 148.945 -180.487
c0 -142.941 -107.555 -220.23 -172.09 -162.255c-12.2812 11.0322 10.6904 21.2852 16.7705 14.9463c43.3877 -45.2119 121.418 42.2988 121.418 145.121c0 105.009 -59.0791 144.023 -78.3916 144.023c-72.1953 0 -159.481 -183.484 -159.481 -397.879
c0 -246.036 86.1934 -319.328 134.048 -319.328c81.2197 0 173.989 78.1924 238.187 334.996z" />
    <glyph glyph-name="C" unicode="&#xc7;" horiz-adv-x="521" 
d="M562.479 294.04c4.9043 19.6162 29.4404 4.67188 27.8955 -3.00488c-36.832 -183.222 -109.755 -363.709 -280.034 -363.709c-136.73 0 -260.339 154.235 -260.339 364.802c0 260.883 124.697 422.774 263.072 422.774c106.285 0 148.945 -90.79 148.945 -180.487
c0 -142.941 -107.555 -220.23 -172.09 -162.255c-12.2812 11.0322 10.6904 21.2852 16.7705 14.9463c43.3877 -45.2119 121.418 42.2988 121.418 145.121c0 105.009 -59.0791 144.023 -78.3916 144.023c-72.1953 0 -159.481 -183.484 -159.481 -397.879
c0 -246.036 86.1934 -319.328 134.048 -319.328c81.2197 0 173.989 78.1924 238.187 334.996z" />
    <glyph glyph-name="D" unicode="D" horiz-adv-x="642" 
d="M403.41 680.989c123.06 0 205.233 -144.389 205.229 -317.217c0 -274.923 -208.556 -515.569 -390.047 -413.022c-18.7363 10.5879 0.0175781 32.4004 15.9541 22.1514c14.3809 -9.24902 36.3701 -17.3154 49.5996 -17.3154c110.103 0 202.903 217.585 201.986 419.126
c-0.731445 160.799 -44.3018 269.088 -71.6465 269.088c-90.5898 0 -211.742 -284.41 -231.683 -548.314c3.57617 -69.7637 9.00488 -117.11 10.0391 -141.771c1.30371 -31.5801 -64.2969 -55.7656 -81.9023 -14.3574c-57.4141 135.092 -90.0596 449.198 -25.3418 753.028
c9.65332 45.3018 134.372 6.64844 129.806 -23.4277c-17.3652 -112.674 -28.5449 -226.214 -33.4902 -340.11c43.0156 171.745 117.945 352.143 221.496 352.143z" />
    <glyph glyph-name="E" unicode="E" horiz-adv-x="433" 
d="M432.853 25.5898c7.65625 7.46289 29.1689 -1.2793 22.2402 -14.4053s-115.948 -110.662 -223.785 -110.662c-88.3281 0 -181.309 55.2549 -181.309 348.394c0 112.669 22.9717 379.566 45.5781 446.337c1.80371 16.2949 130.257 19.3711 178.663 19.3711
s153.415 -5.74512 160.389 -6.69727c25.0205 -3.41797 18.1855 -32.9521 5.74219 -34.5938c-6.67676 -0.882812 -179.453 9.50781 -233.305 2.18945c3.62402 -4.92285 4.98145 -11.1562 3.73145 -17.1406c-2.94531 -14.7881 -24.4375 -175.97 -27.376 -312.317
c36.0732 1.02051 166.106 -5.75293 172.131 -5.62891c11.1328 0.227539 15.6338 -26.4375 1.82227 -26.9824c-17.1396 -0.679688 -132.105 2.51758 -174.293 1.08301c-0.241211 -47.4336 -8.43555 -374.528 80.8438 -374.528c75.3887 0 161.268 78.1055 168.927 85.582z" />
    <glyph glyph-name="E" unicode="&#xcb;" horiz-adv-x="433" 
d="M432.853 25.5898c7.65625 7.46289 29.1689 -1.2793 22.2402 -14.4053s-115.948 -110.662 -223.785 -110.662c-88.3281 0 -181.309 55.2549 -181.309 348.394c0 112.669 22.9717 379.566 45.5781 446.337c1.80371 16.2949 130.257 19.3711 178.663 19.3711
s153.415 -5.74512 160.389 -6.69727c25.0205 -3.41797 18.1855 -32.9521 5.74219 -34.5938c-6.67676 -0.882812 -179.453 9.50781 -233.305 2.18945c3.62402 -4.92285 4.98145 -11.1562 3.73145 -17.1406c-2.94531 -14.7881 -24.4375 -175.97 -27.376 -312.317
c36.0732 1.02051 166.106 -5.75293 172.131 -5.62891c11.1328 0.227539 15.6338 -26.4375 1.82227 -26.9824c-17.1396 -0.679688 -132.105 2.51758 -174.293 1.08301c-0.241211 -47.4336 -8.43555 -374.528 80.8438 -374.528c75.3887 0 161.268 78.1055 168.927 85.582z" />
    <glyph glyph-name="E" unicode="&#xca;" horiz-adv-x="433" 
d="M432.853 25.5898c7.65625 7.46289 29.1689 -1.2793 22.2402 -14.4053s-115.948 -110.662 -223.785 -110.662c-88.3281 0 -181.309 55.2549 -181.309 348.394c0 112.669 22.9717 379.566 45.5781 446.337c1.80371 16.2949 130.257 19.3711 178.663 19.3711
s153.415 -5.74512 160.389 -6.69727c25.0205 -3.41797 18.1855 -32.9521 5.74219 -34.5938c-6.67676 -0.882812 -179.453 9.50781 -233.305 2.18945c3.62402 -4.92285 4.98145 -11.1562 3.73145 -17.1406c-2.94531 -14.7881 -24.4375 -175.97 -27.376 -312.317
c36.0732 1.02051 166.106 -5.75293 172.131 -5.62891c11.1328 0.227539 15.6338 -26.4375 1.82227 -26.9824c-17.1396 -0.679688 -132.105 2.51758 -174.293 1.08301c-0.241211 -47.4336 -8.43555 -374.528 80.8438 -374.528c75.3887 0 161.268 78.1055 168.927 85.582z" />
    <glyph glyph-name="E" unicode="&#xc9;" horiz-adv-x="433" 
d="M432.853 25.5898c7.65625 7.46289 29.1689 -1.2793 22.2402 -14.4053s-115.948 -110.662 -223.785 -110.662c-88.3281 0 -181.309 55.2549 -181.309 348.394c0 112.669 22.9717 379.566 45.5781 446.337c1.80371 16.2949 130.257 19.3711 178.663 19.3711
s153.415 -5.74512 160.389 -6.69727c25.0205 -3.41797 18.1855 -32.9521 5.74219 -34.5938c-6.67676 -0.882812 -179.453 9.50781 -233.305 2.18945c3.62402 -4.92285 4.98145 -11.1562 3.73145 -17.1406c-2.94531 -14.7881 -24.4375 -175.97 -27.376 -312.317
c36.0732 1.02051 166.106 -5.75293 172.131 -5.62891c11.1328 0.227539 15.6338 -26.4375 1.82227 -26.9824c-17.1396 -0.679688 -132.105 2.51758 -174.293 1.08301c-0.241211 -47.4336 -8.43555 -374.528 80.8438 -374.528c75.3887 0 161.268 78.1055 168.927 85.582z" />
    <glyph glyph-name="E" unicode="&#xc8;" horiz-adv-x="433" 
d="M432.853 25.5898c7.65625 7.46289 29.1689 -1.2793 22.2402 -14.4053s-115.948 -110.662 -223.785 -110.662c-88.3281 0 -181.309 55.2549 -181.309 348.394c0 112.669 22.9717 379.566 45.5781 446.337c1.80371 16.2949 130.257 19.3711 178.663 19.3711
s153.415 -5.74512 160.389 -6.69727c25.0205 -3.41797 18.1855 -32.9521 5.74219 -34.5938c-6.67676 -0.882812 -179.453 9.50781 -233.305 2.18945c3.62402 -4.92285 4.98145 -11.1562 3.73145 -17.1406c-2.94531 -14.7881 -24.4375 -175.97 -27.376 -312.317
c36.0732 1.02051 166.106 -5.75293 172.131 -5.62891c11.1328 0.227539 15.6338 -26.4375 1.82227 -26.9824c-17.1396 -0.679688 -132.105 2.51758 -174.293 1.08301c-0.241211 -47.4336 -8.43555 -374.528 80.8438 -374.528c75.3887 0 161.268 78.1055 168.927 85.582z" />
    <glyph glyph-name="F" unicode="F" horiz-adv-x="353" 
d="M341.377 388.568c11.1221 0.224609 17.0879 -29.7168 3.2832 -30.251c-15.6396 -0.621094 -112.689 -2.23828 -161.626 -4.79004c-10.9258 -217.964 7.8252 -351.808 9.80859 -399.8c1.30371 -31.5801 -64.3145 -55.7656 -81.9023 -14.3574
c-57.4141 135.092 -90.0625 449.198 -25.3408 753.027c4.31445 20.2646 31.6592 23.7061 60.1523 18.6533c84.4824 8.60449 285.869 -0.806641 297.112 -2.06934c30.1416 -3.37988 20.4961 -33.0146 2.2627 -34.1074c-16.5986 -0.99707 -175.445 2.46582 -230.072 -1.29297
c0.427734 -1.50195 0.544922 -3.0752 0.344727 -4.62402c-15.8604 -104.533 -25.2412 -198.014 -30.3896 -280.438c51.834 5.56641 150.735 -0.0683594 156.367 0.0488281z" />
    <glyph glyph-name="G" unicode="G" horiz-adv-x="637" 
d="M681.976 290.074c4.10059 7.93164 27.9893 1.8457 23.5264 -9.42773c-29.1211 -73.4297 -101.851 -128.14 -177.032 -178.298c-26.1582 -223.675 -124.246 -296.442 -202.811 -296.442c-49.5889 0 -62.3486 27.793 -62.3486 55.2412
c0 83.5449 62.8486 139.362 141.479 192.523c3.68359 31.0361 5.50781 62.2646 5.46289 93.5186c0 19.1123 0.0996094 38.4043 0.248047 57.2236c-34.7148 -99.6191 -100.819 -197.237 -176.918 -197.237c-94.9805 0 -183.584 129.074 -183.584 282.217
c0 226.427 139.458 430.979 270.722 430.979c104.099 0 99.3564 -85.1416 99.3564 -114.673c0 -85.1377 -65.5078 -180.98 -78.6299 -193.013s-32.1523 0.814453 -23.4688 10.1572c24.0791 25.8857 63.4561 117.407 63.4561 166.265
c0 27.3477 -12.0322 83.1338 -26.251 83.1338c-66.7256 0 -177.204 -231.896 -177.204 -449.939c0 -130.067 42.6602 -182.67 61.9902 -182.67c50.6338 0 137.196 142.834 171.684 265.918c0.241211 18.8643 0.414062 34.5488 0.414062 45.4639
c0 35.7314 86.8379 43.2568 115.4 -17.3232c6.99707 -14.8291 7.65625 -62.4834 7.65625 -108.289c0 -31.7041 -1.16895 -61.2041 -3.33105 -88.6865c60.959 42.167 117.362 89.9033 150.184 153.359zM316.718 -153.985c23.541 0 62.666 61.3613 81.999 167.398
c-51.1855 -40.3496 -87.7412 -83.2959 -87.7412 -136.405c0 -23.9062 3.02441 -30.9932 5.74219 -30.9932z" />
    <glyph glyph-name="H" unicode="H" horiz-adv-x="643" 
d="M623.614 299.51c11.4639 -0.799805 10.3955 -31.4453 4.3916 -30.625c-1.74805 0.238281 -32.5176 -0.707031 -80.1885 -2.84473c-3.09375 -175.735 13.1016 -277.244 14.8604 -319.856c1.30664 -31.5801 -65.9463 -56.4316 -81.9004 -14.3574
c-25.0098 65.9531 -49.627 185.392 -58.249 327.691c-46.9092 -2.76562 -97.9844 -6.15234 -148.894 -10.1562c-2.67969 -164.368 11.1699 -267.546 12.8594 -308.42c1.30371 -31.5801 -64.3145 -55.7656 -81.9023 -14.3574
c-28.5625 67.1904 -50.9863 178.673 -58.3564 311.141c-26.3545 -2.83496 -51.5264 -5.83203 -74.7295 -9.04297c-26.5518 -3.67285 -25.2168 34.2832 -13.6738 36.6455c23.623 4.84863 53.3193 9.07715 86.6475 12.7812c-4.36328 134.739 7.30859 269.52 34.7695 401.503
c9.64941 45.3018 134.368 6.65234 129.806 -23.4268c-18.7959 -121.563 -30.3125 -244.142 -34.4873 -367.079c49.0303 3.16602 99.3506 5.58008 146.094 7.30469c-4.81445 121.342 2.32812 256.672 30.3975 388.442c9.64941 45.3018 135.127 14.3496 129.806 -23.4277
c-17.3486 -119.865 -28.1133 -240.592 -32.2451 -361.636c37.9766 0.541016 65.2559 0.410156 74.9951 -0.279297z" />
    <glyph glyph-name="I" unicode="I" horiz-adv-x="247" 
d="M83.6387 675.006c9.65332 45.3018 135.135 14.3525 129.807 -23.4277c-60.5283 -429.645 -25.793 -641.436 -21.5127 -709.306c2.55176 -40.4736 -68.8193 -55.9307 -84.7734 -13.8564c-47.9336 126.397 -88.2383 442.76 -23.5205 746.59z" />
    <glyph glyph-name="I" unicode="&#xcf;" horiz-adv-x="247" 
d="M83.6387 675.006c9.65332 45.3018 135.135 14.3525 129.807 -23.4277c-60.5283 -429.645 -25.793 -641.436 -21.5127 -709.306c2.55176 -40.4736 -68.8193 -55.9307 -84.7734 -13.8564c-47.9336 126.397 -88.2383 442.76 -23.5205 746.59z" />
    <glyph glyph-name="I" unicode="&#xce;" horiz-adv-x="247" 
d="M83.6387 675.006c9.65332 45.3018 135.135 14.3525 129.807 -23.4277c-60.5283 -429.645 -25.793 -641.436 -21.5127 -709.306c2.55176 -40.4736 -68.8193 -55.9307 -84.7734 -13.8564c-47.9336 126.397 -88.2383 442.76 -23.5205 746.59z" />
    <glyph glyph-name="I" unicode="&#xcd;" horiz-adv-x="247" 
d="M83.6387 675.006c9.65332 45.3018 135.135 14.3525 129.807 -23.4277c-60.5283 -429.645 -25.793 -641.436 -21.5127 -709.306c2.55176 -40.4736 -68.8193 -55.9307 -84.7734 -13.8564c-47.9336 126.397 -88.2383 442.76 -23.5205 746.59z" />
    <glyph glyph-name="I" unicode="&#xcc;" horiz-adv-x="247" 
d="M83.6387 675.006c9.65332 45.3018 135.135 14.3525 129.807 -23.4277c-60.5283 -429.645 -25.793 -641.436 -21.5127 -709.306c2.55176 -40.4736 -68.8193 -55.9307 -84.7734 -13.8564c-47.9336 126.397 -88.2383 442.76 -23.5205 746.59z" />
    <glyph glyph-name="J" unicode="J" horiz-adv-x="532" 
d="M402.584 688.649c28.3857 -2.37598 61.5225 -23.2422 68.916 -46.3213c14.6641 -45.5781 16.0439 -135.638 16.0439 -255.234c0 -353.677 -138.555 -467.438 -269.088 -467.438c-129.074 0 -168.455 121.053 -168.455 137.096c0 22.6064 36.8281 28.8076 35.7314 5.10449
c24.7959 -54.6924 89.6973 -104.277 130.537 -104.277c52.5029 0 144.387 105.009 144.387 344.89c0 47.4404 -1.74512 318.677 -1.45898 346.425c0.0410156 3.03906 0.304688 6.07031 0.789062 9.07031c-50.8789 -1.47559 -224.021 -14.8223 -232.442 -15.8154
c-9.29785 -1.09277 -18.9854 24.1201 -2.59766 26.7998c89.9883 14.9629 181.16 21.6357 272.368 19.9336c1.53125 0 3.06934 -0.0556641 4.63477 -0.172852l0.634766 -0.0273438v-0.03125z" />
    <glyph glyph-name="K" unicode="K" horiz-adv-x="490" 
d="M535.903 285.38c4.74902 12.7598 26.6152 4.37891 23.3359 -7.28809s-77.2988 -289.507 -195.616 -289.507c-90.5527 0 -156.509 104.371 -184.95 165.447c2.2627 -105.796 11.2188 -170.896 13.2607 -203.256c2.55176 -40.4736 -68.8193 -55.9307 -84.7734 -13.8564
c-47.9336 126.401 -88.2383 442.76 -23.5205 746.589c9.64941 45.3057 135.127 14.3535 129.806 -23.4268c-23.6309 -167.724 -32.7461 -302.254 -34.8154 -407.98c45.7402 29.6484 160.823 206.776 217.806 370.934c4.43164 12.7598 46.8984 1.89258 47.0361 -25.1758
c0.216797 -42.2598 -84.1895 -247.398 -240.315 -389.412c28.4521 -39.1152 85.1484 -193.341 154.723 -193.341c88.3242 0 173.286 257.514 178.024 270.273z" />
    <glyph glyph-name="L" unicode="L" horiz-adv-x="348" 
d="M404.601 -37.8555c24.248 0 24.2412 -38.0986 5.92188 -37.8262s-248.943 -14.4531 -261.41 -13.3633h-0.0654297c-17.0156 -0.548828 -34.042 6.88965 -40.8809 24.9268c-47.9297 126.397 -89.6963 454.94 -24.9746 758.77
c9.64941 45.3018 136.585 12.4355 131.26 -25.3418c-59.3076 -420.999 -27.1523 -642.66 -21.8105 -715.259c52.7998 2.88672 201.387 8.09375 211.96 8.09375z" />
    <glyph glyph-name="M" unicode="M" horiz-adv-x="922" 
d="M960.28 284.06c4.61133 26.1377 34.3965 7.18457 30.665 -8.52734c-33.5449 -141.472 -89.3311 -356.96 -192.698 -356.96c-67.2734 0 -140.562 86.4141 -140.562 359.146c0 91.6797 6.28027 207.49 21.3301 358.422
c-109.248 -100.998 -202.911 -406.366 -208.381 -427.696c-0.544922 -19.1367 -0.907227 -33.707 -2.73535 -38.2803c-15.8604 -39.7461 -103.898 -36.0322 -108.105 12.7598c-6.66309 77.1924 11.3047 287.317 3.37305 309.103
c-106.375 -81.9238 -159.416 -338.265 -174.811 -461.811c2.49316 -31.9727 4.85938 -55.5859 5.80762 -70.6221c2.55176 -40.4736 -71.0537 -55.2715 -87.0078 -13.1973c-47.9297 126.397 -88.2383 442.76 -23.5166 746.589
c9.64941 45.3018 135.164 14.3467 129.805 -23.4268c-26.21 -184.688 -33.2139 -335.723 -32.7617 -451.506c40.543 146.718 113.531 319.369 188.644 319.369c67.0869 0 94.752 -61.7109 99.0391 -196.072c55.4209 137.096 149.949 370.269 234.722 370.269
c90.9727 0 100.088 -105.006 100.088 -173.921s-26.251 -219.357 -26.251 -417.854c0 -51.4131 9.84277 -172.283 34.4561 -172.283c37.373 0 124.88 200.358 148.9 336.499z" />
    <glyph glyph-name="N" unicode="N" horiz-adv-x="708" 
d="M747.931 286.107c2.57617 16.1777 32.3203 8.77051 29.7129 -6.97656c-25.7031 -155.277 -72.0117 -371.51 -171.551 -371.51c-211.48 0 -113.762 591.061 -144.39 738.364c-130.236 -89.8936 -225.334 -378.473 -269.771 -696.945
c2.55176 -40.4736 -68.8223 -55.9307 -84.7764 -13.8564c-47.9297 126.397 -88.2383 442.76 -23.5166 746.589c9.64941 45.3018 135.127 14.3496 129.806 -23.4277c-35.6943 -253.361 -38.2568 -430.938 -33.4766 -547.948c43.8018 243.691 179.87 584.856 292.125 584.856
c96.0771 0 114.311 -105.051 114.311 -193.654s-12.0322 -241.739 -12.0322 -334.72s11.3018 -204.187 47.0332 -225.699c55.4238 34.6387 104.281 205.28 126.525 344.928z" />
    <glyph glyph-name="N" unicode="&#xd1;" horiz-adv-x="708" 
d="M747.931 286.107c2.57617 16.1777 32.3203 8.77051 29.7129 -6.97656c-25.7031 -155.277 -72.0117 -371.51 -171.551 -371.51c-211.48 0 -113.762 591.061 -144.39 738.364c-130.236 -89.8936 -225.334 -378.473 -269.771 -696.945
c2.55176 -40.4736 -68.8223 -55.9307 -84.7764 -13.8564c-47.9297 126.397 -88.2383 442.76 -23.5166 746.589c9.64941 45.3018 135.127 14.3496 129.806 -23.4277c-35.6943 -253.361 -38.2568 -430.938 -33.4766 -547.948c43.8018 243.691 179.87 584.856 292.125 584.856
c96.0771 0 114.311 -105.051 114.311 -193.654s-12.0322 -241.739 -12.0322 -334.72s11.3018 -204.187 47.0332 -225.699c55.4238 34.6387 104.281 205.28 126.525 344.928z" />
    <glyph glyph-name="O" unicode="O" horiz-adv-x="695" 
d="M342.06 713.67c155.312 0 302.984 -115.811 302.998 -377.245c0 -162.981 -74.7471 -422.227 -261.432 -422.227c-93.5625 0 -199.316 109.996 -216.336 280.21c-66.96 43.9844 -117.29 119.486 -117.29 225.15c0 178.301 145.49 294.111 292.06 294.111z
M414.24 -52.8184c82.6895 0 188.882 175.562 188.861 386.69c0 285.862 -191.788 342.196 -243.563 342.196c-98.4463 0 -235.18 -106.65 -235.18 -272.37c0 -65.9248 16.3398 -113.689 40.5566 -148.042c0.837891 73.8398 9.16992 134.699 36.0146 177.028
c29.4453 46.4189 130.589 21.3369 117.042 -14.2188c-17.502 -45.9502 -27.3447 -115.959 -27.3447 -192.52c0 -16.9814 0.607422 -33.3418 1.72461 -49.0537c13.4912 -2.59766 27.1943 -3.93555 40.9326 -3.99707c16.4053 0 68.9111 5.46973 76.0225 9.8457
s25.1553 -5.46973 18.0479 -13.6738s-51.958 -20.2363 -109.386 -20.2363c-7.65332 0 -15.3555 0.344727 -23.1055 1.03418c14.5986 -126.05 65.0459 -202.684 119.377 -202.684z" />
    <glyph glyph-name="O" unicode="&#xd8;" horiz-adv-x="695" 
d="M342.06 713.67c155.312 0 302.984 -115.811 302.998 -377.245c0 -162.981 -74.7471 -422.227 -261.432 -422.227c-93.5625 0 -199.316 109.996 -216.336 280.21c-66.96 43.9844 -117.29 119.486 -117.29 225.15c0 178.301 145.49 294.111 292.06 294.111z
M414.24 -52.8184c82.6895 0 188.882 175.562 188.861 386.69c0 285.862 -191.788 342.196 -243.563 342.196c-98.4463 0 -235.18 -106.65 -235.18 -272.37c0 -65.9248 16.3398 -113.689 40.5566 -148.042c0.837891 73.8398 9.16992 134.699 36.0146 177.028
c29.4453 46.4189 130.589 21.3369 117.042 -14.2188c-17.502 -45.9502 -27.3447 -115.959 -27.3447 -192.52c0 -16.9814 0.607422 -33.3418 1.72461 -49.0537c13.4912 -2.59766 27.1943 -3.93555 40.9326 -3.99707c16.4053 0 68.9111 5.46973 76.0225 9.8457
s25.1553 -5.46973 18.0479 -13.6738s-51.958 -20.2363 -109.386 -20.2363c-7.65332 0 -15.3555 0.344727 -23.1055 1.03418c14.5986 -126.05 65.0459 -202.684 119.377 -202.684z" />
    <glyph glyph-name="O" unicode="&#xd6;" horiz-adv-x="695" 
d="M342.06 713.67c155.312 0 302.984 -115.811 302.998 -377.245c0 -162.981 -74.7471 -422.227 -261.432 -422.227c-93.5625 0 -199.316 109.996 -216.336 280.21c-66.96 43.9844 -117.29 119.486 -117.29 225.15c0 178.301 145.49 294.111 292.06 294.111z
M414.24 -52.8184c82.6895 0 188.882 175.562 188.861 386.69c0 285.862 -191.788 342.196 -243.563 342.196c-98.4463 0 -235.18 -106.65 -235.18 -272.37c0 -65.9248 16.3398 -113.689 40.5566 -148.042c0.837891 73.8398 9.16992 134.699 36.0146 177.028
c29.4453 46.4189 130.589 21.3369 117.042 -14.2188c-17.502 -45.9502 -27.3447 -115.959 -27.3447 -192.52c0 -16.9814 0.607422 -33.3418 1.72461 -49.0537c13.4912 -2.59766 27.1943 -3.93555 40.9326 -3.99707c16.4053 0 68.9111 5.46973 76.0225 9.8457
s25.1553 -5.46973 18.0479 -13.6738s-51.958 -20.2363 -109.386 -20.2363c-7.65332 0 -15.3555 0.344727 -23.1055 1.03418c14.5986 -126.05 65.0459 -202.684 119.377 -202.684z" />
    <glyph glyph-name="O" unicode="&#xd5;" horiz-adv-x="695" 
d="M342.06 713.67c155.312 0 302.984 -115.811 302.998 -377.245c0 -162.981 -74.7471 -422.227 -261.432 -422.227c-93.5625 0 -199.316 109.996 -216.336 280.21c-66.96 43.9844 -117.29 119.486 -117.29 225.15c0 178.301 145.49 294.111 292.06 294.111z
M414.24 -52.8184c82.6895 0 188.882 175.562 188.861 386.69c0 285.862 -191.788 342.196 -243.563 342.196c-98.4463 0 -235.18 -106.65 -235.18 -272.37c0 -65.9248 16.3398 -113.689 40.5566 -148.042c0.837891 73.8398 9.16992 134.699 36.0146 177.028
c29.4453 46.4189 130.589 21.3369 117.042 -14.2188c-17.502 -45.9502 -27.3447 -115.959 -27.3447 -192.52c0 -16.9814 0.607422 -33.3418 1.72461 -49.0537c13.4912 -2.59766 27.1943 -3.93555 40.9326 -3.99707c16.4053 0 68.9111 5.46973 76.0225 9.8457
s25.1553 -5.46973 18.0479 -13.6738s-51.958 -20.2363 -109.386 -20.2363c-7.65332 0 -15.3555 0.344727 -23.1055 1.03418c14.5986 -126.05 65.0459 -202.684 119.377 -202.684z" />
    <glyph glyph-name="O" unicode="&#xd4;" horiz-adv-x="695" 
d="M342.06 713.67c155.312 0 302.984 -115.811 302.998 -377.245c0 -162.981 -74.7471 -422.227 -261.432 -422.227c-93.5625 0 -199.316 109.996 -216.336 280.21c-66.96 43.9844 -117.29 119.486 -117.29 225.15c0 178.301 145.49 294.111 292.06 294.111z
M414.24 -52.8184c82.6895 0 188.882 175.562 188.861 386.69c0 285.862 -191.788 342.196 -243.563 342.196c-98.4463 0 -235.18 -106.65 -235.18 -272.37c0 -65.9248 16.3398 -113.689 40.5566 -148.042c0.837891 73.8398 9.16992 134.699 36.0146 177.028
c29.4453 46.4189 130.589 21.3369 117.042 -14.2188c-17.502 -45.9502 -27.3447 -115.959 -27.3447 -192.52c0 -16.9814 0.607422 -33.3418 1.72461 -49.0537c13.4912 -2.59766 27.1943 -3.93555 40.9326 -3.99707c16.4053 0 68.9111 5.46973 76.0225 9.8457
s25.1553 -5.46973 18.0479 -13.6738s-51.958 -20.2363 -109.386 -20.2363c-7.65332 0 -15.3555 0.344727 -23.1055 1.03418c14.5986 -126.05 65.0459 -202.684 119.377 -202.684z" />
    <glyph glyph-name="O" unicode="&#xd3;" horiz-adv-x="695" 
d="M342.06 713.67c155.312 0 302.984 -115.811 302.998 -377.245c0 -162.981 -74.7471 -422.227 -261.432 -422.227c-93.5625 0 -199.316 109.996 -216.336 280.21c-66.96 43.9844 -117.29 119.486 -117.29 225.15c0 178.301 145.49 294.111 292.06 294.111z
M414.24 -52.8184c82.6895 0 188.882 175.562 188.861 386.69c0 285.862 -191.788 342.196 -243.563 342.196c-98.4463 0 -235.18 -106.65 -235.18 -272.37c0 -65.9248 16.3398 -113.689 40.5566 -148.042c0.837891 73.8398 9.16992 134.699 36.0146 177.028
c29.4453 46.4189 130.589 21.3369 117.042 -14.2188c-17.502 -45.9502 -27.3447 -115.959 -27.3447 -192.52c0 -16.9814 0.607422 -33.3418 1.72461 -49.0537c13.4912 -2.59766 27.1943 -3.93555 40.9326 -3.99707c16.4053 0 68.9111 5.46973 76.0225 9.8457
s25.1553 -5.46973 18.0479 -13.6738s-51.958 -20.2363 -109.386 -20.2363c-7.65332 0 -15.3555 0.344727 -23.1055 1.03418c14.5986 -126.05 65.0459 -202.684 119.377 -202.684z" />
    <glyph glyph-name="O" unicode="&#xd2;" horiz-adv-x="695" 
d="M342.06 713.67c155.312 0 302.984 -115.811 302.998 -377.245c0 -162.981 -74.7471 -422.227 -261.432 -422.227c-93.5625 0 -199.316 109.996 -216.336 280.21c-66.96 43.9844 -117.29 119.486 -117.29 225.15c0 178.301 145.49 294.111 292.06 294.111z
M414.24 -52.8184c82.6895 0 188.882 175.562 188.861 386.69c0 285.862 -191.788 342.196 -243.563 342.196c-98.4463 0 -235.18 -106.65 -235.18 -272.37c0 -65.9248 16.3398 -113.689 40.5566 -148.042c0.837891 73.8398 9.16992 134.699 36.0146 177.028
c29.4453 46.4189 130.589 21.3369 117.042 -14.2188c-17.502 -45.9502 -27.3447 -115.959 -27.3447 -192.52c0 -16.9814 0.607422 -33.3418 1.72461 -49.0537c13.4912 -2.59766 27.1943 -3.93555 40.9326 -3.99707c16.4053 0 68.9111 5.46973 76.0225 9.8457
s25.1553 -5.46973 18.0479 -13.6738s-51.958 -20.2363 -109.386 -20.2363c-7.65332 0 -15.3555 0.344727 -23.1055 1.03418c14.5986 -126.05 65.0459 -202.684 119.377 -202.684z" />
    <glyph glyph-name="P" unicode="P" horiz-adv-x="520" 
d="M377.621 695.254c131.626 0 160.429 -159.38 160.429 -223.553c0 -166.996 -149.494 -328.885 -287.317 -328.885c-25.0889 0 -52.1406 8.9668 -72.0361 19.7266c2.30762 -105.064 11.2021 -169.786 13.2373 -202.018
c2.55176 -40.4707 -68.8223 -55.9277 -84.7764 -13.8535c-47.9336 126.397 -88.2383 442.76 -23.5166 746.589c9.64941 45.3018 135.127 14.3496 129.802 -23.4277c-10.8633 -77.1123 -18.6436 -147.169 -24.0957 -210.673c28.3691 84.8789 97.6738 236.094 188.274 236.094
zM238.7 172.727c76.9336 0 207.104 115.935 207.104 317.948c0 147.67 -37.7461 175.018 -60.1621 175.018c-73.1953 0 -174.897 -173.728 -205.697 -357.736c-1.46191 -39.6836 -1.94141 -75.8125 -1.75488 -108.537c13.8564 -12.4531 35.9111 -26.6924 60.5107 -26.6924z
" />
    <glyph glyph-name="Q" unicode="Q" horiz-adv-x="560" 
d="M549.618 -71.3076c14.2158 -8.01855 0.327148 -28.6641 -11.4844 -25.9707c-157.971 35.9004 -424.692 5.74121 -440.825 3.82715s-38.0283 32.8242 -12.8525 39.377c13.4707 3.51465 56.4209 7.51172 111.476 9.97363
c-86.2686 52.5234 -145.931 184.377 -145.931 333.223c0 21.3301 0 151.229 48.4023 226.158c16.54 25.5996 123.994 11.2324 119.231 -18.8711c-2.30762 -14.585 -37.1914 -108.565 -37.1914 -237.915c0 -217.768 91.4287 -290.324 120.963 -290.324
c64.1729 0 170.275 148.4 170.275 368.81c0 167.544 -100.271 342.651 -227.248 342.651c-91.0625 0 -158.84 -90.3389 -161.851 -111.59c-1.40723 -9.92188 -28.7549 -13.2012 -28.7549 5.39453c0 46.3057 72.1953 137.823 187.781 137.823
c141.472 0 278.567 -142.572 278.567 -362.802c0 -162.868 -55.1309 -329.144 -154.318 -391.278c79.3408 -2.66602 152.377 -10.7881 183.76 -28.4863z" />
    <glyph glyph-name="R" unicode="R" horiz-adv-x="583" 
d="M627.748 295.588c3.06934 6.86328 28.7949 3.64551 24.4258 -9.11426s-125.422 -319.407 -299.347 -319.407c-46.085 0 -118.445 27.9619 -170.896 108.558c3.55566 -59.4346 8.5459 -99.2842 10.001 -122.391c2.55566 -40.4736 -68.8184 -55.9307 -84.7725 -13.8564
c-47.9336 126.397 -88.2383 442.76 -23.5166 746.59c9.64941 45.3018 135.127 14.3496 129.802 -23.4277c-7.70703 -55.3447 -14.0146 -107.18 -18.9229 -155.505c37.9111 99.374 94.3525 193.647 151.47 193.647c92.8838 0 155.054 -98.4502 155.054 -210.843
c0 -166.12 -126.108 -345.11 -289.301 -346.979c22.4609 -32.5107 65.7588 -145.117 141.63 -145.117c129.622 0 246.664 235.911 274.374 297.846zM359.756 664.219c-53.4482 0 -147.041 -163.217 -179.448 -354.43c-2.01074 -50.2783 -2.45605 -94.9424 -1.94238 -134.378
c6.10938 -1.75293 12.4297 -2.66113 18.7852 -2.7002c96.6113 0 210.37 101.364 210.37 317.673c0 147.673 -41.4707 173.835 -47.7646 173.835z" />
    <glyph glyph-name="S" unicode="S" horiz-adv-x="609" 
d="M645.24 296.774c23.2617 -0.675781 15.6758 -23.7607 9.29883 -24.0713c-57.7949 -3.18262 -115.047 -12.874 -170.669 -28.8906c46.0576 -30.7412 78.7861 -68.7324 78.7861 -120.332c0 -106.096 -174.286 -218.992 -285.358 -218.992
c-72.333 0 -151.636 41.4287 -151.636 108.154c0 73.0986 98.7949 172.441 243.074 232.293c-16.668 8.24219 -34.9629 16.1807 -54.0205 24.7646c-116.486 52.4443 -264.715 106.909 -264.715 235.545c0 126.156 157.516 239.19 279.665 239.19
c99.1738 0 190.695 -42.5088 190.695 -128.347c0 -80.2168 -43.3877 -130.168 -49.5889 -139.648s-27.7109 5.46973 -21.5137 14.585s30.0791 62.7148 30.0791 107.379c0 91.3389 -49.0234 84.2275 -61.4385 84.2275c-106.83 0 -230.983 -128.529 -230.983 -229.162
c0 -79.8203 84.1787 -109.993 173.376 -147.67c26.6104 -11.2432 53.6377 -23.0273 78.9268 -36.0527c66.8398 19.7178 136.357 28.8379 206.021 27.0273zM450.353 145.005c0 33.4863 -15.0371 56.1797 -38.9951 74.5234
c-124.26 -48.4131 -224.165 -125.099 -224.165 -211.802c0 -23.793 13.3984 -59.8906 51.4102 -59.8906c82.6758 0 211.75 98.7227 211.75 197.169z" />
    <glyph glyph-name="T" unicode="T" horiz-adv-x="445" 
d="M557.22 700.134c26.9346 -8.93555 8.48047 -30.6299 1.35547 -30.6299c-3.09668 0 -94.8457 5.81836 -198.562 8.29785c7.82812 -6.58691 12.3291 -14.0537 11.2324 -21.8271c-60.5283 -429.645 -25.793 -641.438 -21.5127 -709.306
c2.55176 -40.4736 -68.8193 -55.9307 -84.7734 -13.8564c-47.8984 126.305 -88.1758 442.298 -23.6611 745.91c-93.46 -0.930664 -172.597 -5.31738 -177.952 -5.66211c-13.4014 -0.828125 -20.1475 25.4307 -3.55566 30.9004
c47.9678 15.8125 463.249 7.50488 497.429 -3.82715z" />
    <glyph glyph-name="U" unicode="U" horiz-adv-x="632" 
d="M672.582 279.783c2.36621 12.1738 33.8486 14.5908 27.8926 -9.34277c-70.002 -281.485 -104.645 -360.971 -176.111 -360.971c-104.644 0 -145.845 249.972 -145.845 438.271c0 6.45215 0.155273 16.8945 0.475586 30.124
c-61.0869 -254.106 -108.089 -423.182 -187.34 -423.182c-97.3604 0 -141.655 191.061 -141.655 404.725c0 39.7432 4.55566 233.542 26.4346 272.919s99.6953 17.3604 99.6953 -13.8848c0 -51.2959 -20.3887 -158.764 -20.3887 -345.813
c0 -193.613 35.7314 -285.131 47.7637 -285.131c21.9229 0 78.2197 90.0146 184.243 567.562c3.7627 47.4404 8.77051 88.9795 15.1992 106.981c16.1982 45.3535 115.221 25.1133 115.221 -8.93262c0 -55.8896 -14.585 -194.924 -14.585 -398.71
c0 -210.936 29.0273 -289.624 43.3877 -308.103c43.3916 30.7998 100.274 203.083 125.612 333.488z" />
    <glyph glyph-name="U" unicode="&#xdc;" horiz-adv-x="632" 
d="M672.582 279.783c2.36621 12.1738 33.8486 14.5908 27.8926 -9.34277c-70.002 -281.485 -104.645 -360.971 -176.111 -360.971c-104.644 0 -145.845 249.972 -145.845 438.271c0 6.45215 0.155273 16.8945 0.475586 30.124
c-61.0869 -254.106 -108.089 -423.182 -187.34 -423.182c-97.3604 0 -141.655 191.061 -141.655 404.725c0 39.7432 4.55566 233.542 26.4346 272.919s99.6953 17.3604 99.6953 -13.8848c0 -51.2959 -20.3887 -158.764 -20.3887 -345.813
c0 -193.613 35.7314 -285.131 47.7637 -285.131c21.9229 0 78.2197 90.0146 184.243 567.562c3.7627 47.4404 8.77051 88.9795 15.1992 106.981c16.1982 45.3535 115.221 25.1133 115.221 -8.93262c0 -55.8896 -14.585 -194.924 -14.585 -398.71
c0 -210.936 29.0273 -289.624 43.3877 -308.103c43.3916 30.7998 100.274 203.083 125.612 333.488z" />
    <glyph glyph-name="U" unicode="&#xdb;" horiz-adv-x="632" 
d="M672.582 279.783c2.36621 12.1738 33.8486 14.5908 27.8926 -9.34277c-70.002 -281.485 -104.645 -360.971 -176.111 -360.971c-104.644 0 -145.845 249.972 -145.845 438.271c0 6.45215 0.155273 16.8945 0.475586 30.124
c-61.0869 -254.106 -108.089 -423.182 -187.34 -423.182c-97.3604 0 -141.655 191.061 -141.655 404.725c0 39.7432 4.55566 233.542 26.4346 272.919s99.6953 17.3604 99.6953 -13.8848c0 -51.2959 -20.3887 -158.764 -20.3887 -345.813
c0 -193.613 35.7314 -285.131 47.7637 -285.131c21.9229 0 78.2197 90.0146 184.243 567.562c3.7627 47.4404 8.77051 88.9795 15.1992 106.981c16.1982 45.3535 115.221 25.1133 115.221 -8.93262c0 -55.8896 -14.585 -194.924 -14.585 -398.71
c0 -210.936 29.0273 -289.624 43.3877 -308.103c43.3916 30.7998 100.274 203.083 125.612 333.488z" />
    <glyph glyph-name="U" unicode="&#xda;" horiz-adv-x="632" 
d="M672.582 279.783c2.36621 12.1738 33.8486 14.5908 27.8926 -9.34277c-70.002 -281.485 -104.645 -360.971 -176.111 -360.971c-104.644 0 -145.845 249.972 -145.845 438.271c0 6.45215 0.155273 16.8945 0.475586 30.124
c-61.0869 -254.106 -108.089 -423.182 -187.34 -423.182c-97.3604 0 -141.655 191.061 -141.655 404.725c0 39.7432 4.55566 233.542 26.4346 272.919s99.6953 17.3604 99.6953 -13.8848c0 -51.2959 -20.3887 -158.764 -20.3887 -345.813
c0 -193.613 35.7314 -285.131 47.7637 -285.131c21.9229 0 78.2197 90.0146 184.243 567.562c3.7627 47.4404 8.77051 88.9795 15.1992 106.981c16.1982 45.3535 115.221 25.1133 115.221 -8.93262c0 -55.8896 -14.585 -194.924 -14.585 -398.71
c0 -210.936 29.0273 -289.624 43.3877 -308.103c43.3916 30.7998 100.274 203.083 125.612 333.488z" />
    <glyph glyph-name="U" unicode="&#xd9;" horiz-adv-x="632" 
d="M672.582 279.783c2.36621 12.1738 33.8486 14.5908 27.8926 -9.34277c-70.002 -281.485 -104.645 -360.971 -176.111 -360.971c-104.644 0 -145.845 249.972 -145.845 438.271c0 6.45215 0.155273 16.8945 0.475586 30.124
c-61.0869 -254.106 -108.089 -423.182 -187.34 -423.182c-97.3604 0 -141.655 191.061 -141.655 404.725c0 39.7432 4.55566 233.542 26.4346 272.919s99.6953 17.3604 99.6953 -13.8848c0 -51.2959 -20.3887 -158.764 -20.3887 -345.813
c0 -193.613 35.7314 -285.131 47.7637 -285.131c21.9229 0 78.2197 90.0146 184.243 567.562c3.7627 47.4404 8.77051 88.9795 15.1992 106.981c16.1982 45.3535 115.221 25.1133 115.221 -8.93262c0 -55.8896 -14.585 -194.924 -14.585 -398.71
c0 -210.936 29.0273 -289.624 43.3877 -308.103c43.3916 30.7998 100.274 203.083 125.612 333.488z" />
    <glyph glyph-name="V" unicode="V" horiz-adv-x="545" 
d="M514.759 697.764c0.53418 21.1299 36.4619 14.9531 36.4619 -0.0175781c0 -68.8223 -36.5391 -333.24 -98.0322 -565.182c-54.3311 -204.897 -110.62 -236.235 -166.682 -236.235c-190.33 0 -257.034 699.336 -231.169 772.993
c9.11133 25.9307 130.536 42.0703 132.174 -15.6777c0.810547 -28.4375 22.4268 -610.008 128.529 -708.819c136.003 154.246 197.259 695.346 198.718 752.938z" />
    <glyph glyph-name="W" unicode="W" horiz-adv-x="930" 
d="M804.387 688.994c-10.9395 32.1035 18.9453 40.4385 29.1641 23.3438s63.4561 -130.536 63.4561 -307.009c0 -242.108 -74.3809 -513.565 -240.828 -513.565c-81.1025 0 -217.07 117.104 -237.19 358.663c-37.4805 -118.042 -85.1826 -311.627 -199.807 -311.627
c-29.9004 0 -169.183 53.9648 -169.183 348.576c0 204.745 35.7314 359.512 59.7969 395.975c22.9824 34.8457 142.565 14.9502 125.063 -31.5381c-5.73145 -15.2295 -57.248 -252.134 -57.248 -418.036c0 -200.176 52.3408 -265.945 61.6211 -260.155
c59.6143 37.1904 121.418 171.555 176.839 428.244c1.8584 8.61523 4.14453 13.7881 6.6377 16.2295c2.24121 26.9961 6.22754 53.9512 54.0713 53.9512c55.7861 0 78.7617 -18.0469 79.8516 -33.6348s-3.10352 -119.869 -3.10352 -160.709
c0 -282.147 84.5 -339.188 125.502 -349.034c1.93164 -0.488281 3.97168 -0.307617 5.78711 0.512695c53.4512 24.9102 166.968 139 166.968 468.847c0 193.251 -36.4629 258.894 -47.3984 290.967z" />
    <glyph glyph-name="X" unicode="X" horiz-adv-x="599" 
d="M640.498 298.141c4.9209 18.5957 31.9912 22.3467 27.3496 1.10645c-67.4561 -308.83 -136.736 -380.114 -237.093 -380.114c-93.9287 0 -182.636 99.4463 -250.558 250.071c-50.0371 -107.533 -82.2412 -197.023 -97.1982 -252.623
c22.6064 -19.5986 -32.9971 -41.4912 -32.9971 4.37598c0 73.5127 43.5293 189.361 104.092 311.39c-46.457 122.328 -80.1162 269.674 -94.4316 421.857c-4.37305 46.5264 131.812 55.2412 143.845 -11.4844c2.11035 -11.7051 16.46 -116.952 42.1768 -241.978
c72.3057 122.922 149.742 234.949 203.938 297.298c11.9668 13.7676 55.9932 -3.35547 40.4736 -23.0508c-85.4971 -109.012 -161.998 -224.788 -228.749 -346.187c42.2227 -183.063 106.706 -377.945 191.009 -377.945c112.303 0 178.231 309.834 188.143 347.283z" />
    <glyph glyph-name="Y" unicode="Y" horiz-adv-x="619" 
d="M441.485 637.953c-16.7783 57.2998 90.0449 47.6377 105.026 9.49219c25.8896 -65.9941 39.0156 -195.068 39.0156 -306.644c0 -263.618 -160.795 -436.812 -312.479 -436.812c-96.9912 0 -197.807 48.4785 -222.785 156.423
c-3.71094 15.9746 33.1973 22.2578 32.0732 6.55273c-1.82129 -25.5234 79.123 -122.97 180.487 -122.97c104.281 0 200.176 165.265 200.176 373.279c0 51.6064 -4.05957 129.86 -8.85645 196.375c-33.2559 -127.694 -104.819 -412.411 -204.445 -412.411
c-55.4238 0 -166.269 60.5215 -166.269 366.075c0 36.4629 3.64551 185.591 9.48047 195.071s12.0283 13.8564 33.1787 13.8564s75.4775 -9.11523 75.4775 -41.2021s-14.585 -145.121 -14.585 -250.858c0 -199.807 52.9131 -254.641 67.498 -254.641
c70.5469 49.1475 155.347 306.975 190.906 483.203c-0.779297 8.47559 -2.08203 16.8945 -3.90039 25.209z" />
    <glyph glyph-name="Y" unicode="&#x178;" horiz-adv-x="619" 
d="M441.485 637.953c-16.7783 57.2998 90.0449 47.6377 105.026 9.49219c25.8896 -65.9941 39.0156 -195.068 39.0156 -306.644c0 -263.618 -160.795 -436.812 -312.479 -436.812c-96.9912 0 -197.807 48.4785 -222.785 156.423
c-3.71094 15.9746 33.1973 22.2578 32.0732 6.55273c-1.82129 -25.5234 79.123 -122.97 180.487 -122.97c104.281 0 200.176 165.265 200.176 373.279c0 51.6064 -4.05957 129.86 -8.85645 196.375c-33.2559 -127.694 -104.819 -412.411 -204.445 -412.411
c-55.4238 0 -166.269 60.5215 -166.269 366.075c0 36.4629 3.64551 185.591 9.48047 195.071s12.0283 13.8564 33.1787 13.8564s75.4775 -9.11523 75.4775 -41.2021s-14.585 -145.121 -14.585 -250.858c0 -199.807 52.9131 -254.641 67.498 -254.641
c70.5469 49.1475 155.347 306.975 190.906 483.203c-0.779297 8.47559 -2.08203 16.8945 -3.90039 25.209z" />
    <glyph glyph-name="Y" unicode="&#xdd;" horiz-adv-x="619" 
d="M441.485 637.953c-16.7783 57.2998 90.0449 47.6377 105.026 9.49219c25.8896 -65.9941 39.0156 -195.068 39.0156 -306.644c0 -263.618 -160.795 -436.812 -312.479 -436.812c-96.9912 0 -197.807 48.4785 -222.785 156.423
c-3.71094 15.9746 33.1973 22.2578 32.0732 6.55273c-1.82129 -25.5234 79.123 -122.97 180.487 -122.97c104.281 0 200.176 165.265 200.176 373.279c0 51.6064 -4.05957 129.86 -8.85645 196.375c-33.2559 -127.694 -104.819 -412.411 -204.445 -412.411
c-55.4238 0 -166.269 60.5215 -166.269 366.075c0 36.4629 3.64551 185.591 9.48047 195.071s12.0283 13.8564 33.1787 13.8564s75.4775 -9.11523 75.4775 -41.2021s-14.585 -145.121 -14.585 -250.858c0 -199.807 52.9131 -254.641 67.498 -254.641
c70.5469 49.1475 155.347 306.975 190.906 483.203c-0.779297 8.47559 -2.08203 16.8945 -3.90039 25.209z" />
    <glyph glyph-name="Z" unicode="Z" horiz-adv-x="516" 
d="M459.997 27.7764c-1.27637 27.165 32.0869 7.83789 32.1006 -14.0371c0 -32.8174 -91.7002 -119.231 -290.234 -119.231c-48.6787 0 -151.863 9.48047 -151.863 134.178c0 190.695 411.653 431.345 460.332 574.093c-41.3848 41.75 -131.837 63.1768 -251.065 63.1768
c-125.629 0 -168.258 -35.2832 -168.258 -46.04c0 -4.23828 9.55957 -9.43848 10.7559 -14.0352c1.47559 -5.69043 -5.6084 -10.3945 -8.93262 -10.3945c-6.01758 0 -26.7998 6.74609 -26.7998 38.1055c0 32.8145 72.5566 85.6865 238.094 85.6865
c199.811 0 264.439 -83.5 264.439 -161.893c0 -197.986 -462.973 -440.822 -462.973 -586.309c0 -14.4912 15.8643 -25.9785 108.289 -25.9785c158.791 0 239.008 76.6611 246.115 82.6787z" />
    <glyph glyph-name="bracketleft" unicode="[" horiz-adv-x="328" 
d="M268.227 708.784c18.0469 -2.17578 8.2002 -39.377 0.0166016 -37.7529c-6.74902 1.34863 -39.2324 0.476562 -57.9385 0.131836c1.73145 -25.4854 -34.5107 -222.868 -34.5107 -421.265c0 -89.6836 13.9463 -281.928 14.2188 -301.071
c11.4873 -0.272461 28.9307 0.331055 39.9248 0.275391c16.5127 -0.0830078 18.1162 -27.9834 2.19043 -33.3633c-10.6836 -3.60352 -77.1152 -7.11035 -89.6963 -6.01758s-22.9756 5.46875 -36.6465 24.0645s-55.7861 220.958 -55.7861 417.902
s21.5127 297.48 29.1689 327.743s26.0723 26.0693 44.668 29.3525s126.34 2.18652 144.391 0z" />
    <glyph glyph-name="backslash" unicode="\" horiz-adv-x="524" 
d="M472.786 17.6533c10.4424 -36.0908 -57.6455 -58.9043 -70.0059 -22.6064c-22.2471 65.2666 -237.397 497.122 -350.042 659.045c-17.499 25.1582 53.5996 73.8369 80.3271 42.8301c90.3008 -104.765 289.763 -506.596 339.721 -679.269z" />
    <glyph glyph-name="bracketright" unicode="]" horiz-adv-x="328" 
d="M249.228 679.433c7.65625 -30.2627 29.1836 -130.786 29.1836 -327.73s-42.1152 -399.307 -55.7891 -417.902s-24.0615 -22.9717 -36.6426 -24.0645s-79.0059 2.40723 -89.6973 6.01758c-15.9258 5.37988 -14.3223 33.2803 2.18652 33.3633
c10.9941 0.0693359 28.4414 -0.547852 39.9258 -0.275391c0.276367 19.1299 14.2227 211.374 14.2227 301.071c0 198.396 -36.2354 395.778 -34.5107 421.264c-18.7227 0.355469 -51.209 1.21777 -57.9375 -0.130859c-8.2041 -1.6377 -18.0498 35.5527 0.000976562 37.7393
s125.795 3.2793 144.391 0s37.0078 0.911133 44.667 -29.3516z" />
    <glyph glyph-name="asciicircum" unicode="^" horiz-adv-x="429" 
d="M378.156 461.03c10.9395 -31.7246 -48.6758 -23.7969 -58.5215 -1.11133c-1.95898 4.51758 -60.6182 118.045 -75.6582 140.741c-13.6738 -20.416 -57.2441 -126.156 -75.4736 -147.304c-8.4248 -9.77051 -22.4229 -29.9004 -52.5059 -29.9004
s-65.998 14.585 -65.998 41.9326c0 31.1104 97.3535 153.684 139.196 222.051c6.70801 10.96 8.47754 19.6924 24.8867 19.6924c48.6748 0 69.001 -23.5508 77.6602 -38.835c15.6055 -27.5244 83.1719 -197.858 86.4141 -207.267z" />
    <glyph glyph-name="underscore" unicode="_" horiz-adv-x="443" 
d="M372.84 25.9473c29.3174 -2.42773 22.9072 -36.373 8.21191 -38.832c-8.69434 -1.45508 -300.471 -10.1182 -311.072 -10.1182c-18.4678 0 -32.4043 44.8467 -2.94922 47.7744c19.2441 1.91406 238.688 6.73535 305.81 1.17578z" />
    <glyph glyph-name="grave" unicode="`" horiz-adv-x="295" 
d="M243.704 482.905c14.4189 -27.2168 -66.5977 -58.8867 -91.3281 -32.2695c-35.7764 38.4668 -93.8389 165.961 -101.736 208.38c-10.7734 57.8965 118.738 71.2842 127.98 36.2354c7.30469 -27.7002 48.3613 -180.787 65.084 -212.346z" />
    <glyph glyph-name="a" unicode="a" horiz-adv-x="511" 
d="M548.411 283.897c3.98633 14.6953 36.5771 12.4717 31.5107 -7.33789c-41.5605 -162.981 -115.397 -313.206 -175.194 -313.206c-88.7275 0 -136.626 120.142 -149.996 248.547c-29.6377 -101.102 -55.1582 -215.729 -126.201 -215.729
c-64.9043 0 -128.529 72.9229 -128.529 205.098c0 133.995 67.2734 251.495 166.812 251.495c38.5322 0 77.0439 -17.4023 98.0361 -31.9697c0.834961 3.45215 1.69336 6.86621 2.60059 10.1836c8.58691 31.376 109.751 27.5273 123.239 -26.7998
c7.35645 -29.6279 -18.5947 -195.858 -18.5947 -286.241c0 -86.0518 24.499 -119.936 32.293 -119.936c23.127 0 102.64 133.337 144.023 285.896zM133.635 40.2627c40.1875 41.1016 96.4365 222.954 122.774 337.006c-14.0605 14.2568 -26.1416 22.0234 -32.5146 22.0234
c-45.4258 0 -101.295 -104.892 -101.295 -272.446c0 -28.6445 2.10352 -72.4434 11.0352 -86.583z" />
    <glyph glyph-name="a" unicode="&#xe5;" horiz-adv-x="511" 
d="M548.411 283.897c3.98633 14.6953 36.5771 12.4717 31.5107 -7.33789c-41.5605 -162.981 -115.397 -313.206 -175.194 -313.206c-88.7275 0 -136.626 120.142 -149.996 248.547c-29.6377 -101.102 -55.1582 -215.729 -126.201 -215.729
c-64.9043 0 -128.529 72.9229 -128.529 205.098c0 133.995 67.2734 251.495 166.812 251.495c38.5322 0 77.0439 -17.4023 98.0361 -31.9697c0.834961 3.45215 1.69336 6.86621 2.60059 10.1836c8.58691 31.376 109.751 27.5273 123.239 -26.7998
c7.35645 -29.6279 -18.5947 -195.858 -18.5947 -286.241c0 -86.0518 24.499 -119.936 32.293 -119.936c23.127 0 102.64 133.337 144.023 285.896zM133.635 40.2627c40.1875 41.1016 96.4365 222.954 122.774 337.006c-14.0605 14.2568 -26.1416 22.0234 -32.5146 22.0234
c-45.4258 0 -101.295 -104.892 -101.295 -272.446c0 -28.6445 2.10352 -72.4434 11.0352 -86.583z" />
    <glyph glyph-name="a" unicode="&#xe4;" horiz-adv-x="511" 
d="M548.411 283.897c3.98633 14.6953 36.5771 12.4717 31.5107 -7.33789c-41.5605 -162.981 -115.397 -313.206 -175.194 -313.206c-88.7275 0 -136.626 120.142 -149.996 248.547c-29.6377 -101.102 -55.1582 -215.729 -126.201 -215.729
c-64.9043 0 -128.529 72.9229 -128.529 205.098c0 133.995 67.2734 251.495 166.812 251.495c38.5322 0 77.0439 -17.4023 98.0361 -31.9697c0.834961 3.45215 1.69336 6.86621 2.60059 10.1836c8.58691 31.376 109.751 27.5273 123.239 -26.7998
c7.35645 -29.6279 -18.5947 -195.858 -18.5947 -286.241c0 -86.0518 24.499 -119.936 32.293 -119.936c23.127 0 102.64 133.337 144.023 285.896zM133.635 40.2627c40.1875 41.1016 96.4365 222.954 122.774 337.006c-14.0605 14.2568 -26.1416 22.0234 -32.5146 22.0234
c-45.4258 0 -101.295 -104.892 -101.295 -272.446c0 -28.6445 2.10352 -72.4434 11.0352 -86.583z" />
    <glyph glyph-name="a" unicode="&#xe3;" horiz-adv-x="511" 
d="M548.411 283.897c3.98633 14.6953 36.5771 12.4717 31.5107 -7.33789c-41.5605 -162.981 -115.397 -313.206 -175.194 -313.206c-88.7275 0 -136.626 120.142 -149.996 248.547c-29.6377 -101.102 -55.1582 -215.729 -126.201 -215.729
c-64.9043 0 -128.529 72.9229 -128.529 205.098c0 133.995 67.2734 251.495 166.812 251.495c38.5322 0 77.0439 -17.4023 98.0361 -31.9697c0.834961 3.45215 1.69336 6.86621 2.60059 10.1836c8.58691 31.376 109.751 27.5273 123.239 -26.7998
c7.35645 -29.6279 -18.5947 -195.858 -18.5947 -286.241c0 -86.0518 24.499 -119.936 32.293 -119.936c23.127 0 102.64 133.337 144.023 285.896zM133.635 40.2627c40.1875 41.1016 96.4365 222.954 122.774 337.006c-14.0605 14.2568 -26.1416 22.0234 -32.5146 22.0234
c-45.4258 0 -101.295 -104.892 -101.295 -272.446c0 -28.6445 2.10352 -72.4434 11.0352 -86.583z" />
    <glyph glyph-name="a" unicode="&#xe2;" horiz-adv-x="511" 
d="M548.411 283.897c3.98633 14.6953 36.5771 12.4717 31.5107 -7.33789c-41.5605 -162.981 -115.397 -313.206 -175.194 -313.206c-88.7275 0 -136.626 120.142 -149.996 248.547c-29.6377 -101.102 -55.1582 -215.729 -126.201 -215.729
c-64.9043 0 -128.529 72.9229 -128.529 205.098c0 133.995 67.2734 251.495 166.812 251.495c38.5322 0 77.0439 -17.4023 98.0361 -31.9697c0.834961 3.45215 1.69336 6.86621 2.60059 10.1836c8.58691 31.376 109.751 27.5273 123.239 -26.7998
c7.35645 -29.6279 -18.5947 -195.858 -18.5947 -286.241c0 -86.0518 24.499 -119.936 32.293 -119.936c23.127 0 102.64 133.337 144.023 285.896zM133.635 40.2627c40.1875 41.1016 96.4365 222.954 122.774 337.006c-14.0605 14.2568 -26.1416 22.0234 -32.5146 22.0234
c-45.4258 0 -101.295 -104.892 -101.295 -272.446c0 -28.6445 2.10352 -72.4434 11.0352 -86.583z" />
    <glyph glyph-name="a" unicode="&#xe1;" horiz-adv-x="511" 
d="M548.411 283.897c3.98633 14.6953 36.5771 12.4717 31.5107 -7.33789c-41.5605 -162.981 -115.397 -313.206 -175.194 -313.206c-88.7275 0 -136.626 120.142 -149.996 248.547c-29.6377 -101.102 -55.1582 -215.729 -126.201 -215.729
c-64.9043 0 -128.529 72.9229 -128.529 205.098c0 133.995 67.2734 251.495 166.812 251.495c38.5322 0 77.0439 -17.4023 98.0361 -31.9697c0.834961 3.45215 1.69336 6.86621 2.60059 10.1836c8.58691 31.376 109.751 27.5273 123.239 -26.7998
c7.35645 -29.6279 -18.5947 -195.858 -18.5947 -286.241c0 -86.0518 24.499 -119.936 32.293 -119.936c23.127 0 102.64 133.337 144.023 285.896zM133.635 40.2627c40.1875 41.1016 96.4365 222.954 122.774 337.006c-14.0605 14.2568 -26.1416 22.0234 -32.5146 22.0234
c-45.4258 0 -101.295 -104.892 -101.295 -272.446c0 -28.6445 2.10352 -72.4434 11.0352 -86.583z" />
    <glyph glyph-name="a" unicode="&#xe0;" horiz-adv-x="511" 
d="M548.411 283.897c3.98633 14.6953 36.5771 12.4717 31.5107 -7.33789c-41.5605 -162.981 -115.397 -313.206 -175.194 -313.206c-88.7275 0 -136.626 120.142 -149.996 248.547c-29.6377 -101.102 -55.1582 -215.729 -126.201 -215.729
c-64.9043 0 -128.529 72.9229 -128.529 205.098c0 133.995 67.2734 251.495 166.812 251.495c38.5322 0 77.0439 -17.4023 98.0361 -31.9697c0.834961 3.45215 1.69336 6.86621 2.60059 10.1836c8.58691 31.376 109.751 27.5273 123.239 -26.7998
c7.35645 -29.6279 -18.5947 -195.858 -18.5947 -286.241c0 -86.0518 24.499 -119.936 32.293 -119.936c23.127 0 102.64 133.337 144.023 285.896zM133.635 40.2627c40.1875 41.1016 96.4365 222.954 122.774 337.006c-14.0605 14.2568 -26.1416 22.0234 -32.5146 22.0234
c-45.4258 0 -101.295 -104.892 -101.295 -272.446c0 -28.6445 2.10352 -72.4434 11.0352 -86.583z" />
    <glyph glyph-name="b" unicode="b" horiz-adv-x="501" 
d="M559.212 296.951c14.2324 -0.972656 14.9932 -26.376 0.015625 -25.1416c-48.543 4.11523 -97.4268 -0.884766 -144.131 -14.7432c1.82715 -13.7881 2.74902 -27.6816 2.75879 -41.5908c0 -144.207 -118.862 -269.908 -203.728 -269.908
c-63.1699 0 -80.6719 47.0332 -80.6719 73.5605c0 61.7178 63.3115 162.33 175.76 224.375c0.203125 5.60742 0.344727 11.2188 0.344727 16.8193c0 45.3955 -5.26953 121.884 -16.6816 120.598c-85.0479 -9.57031 -173.169 -121.663 -168.727 -370.541
c4.9209 -35.7393 -57.2832 -41.1465 -73.2891 -15.8643c-33.3623 52.6895 -50.8643 163.53 -50.8643 256.507c0 275.653 111.572 467.625 205.098 467.625c40.291 0 71.6465 -29.5488 71.6465 -79.3203c0 -99.5049 -63.8008 -239.694 -154.847 -292.738
c-3.10352 -33.3594 -4.9209 -66.2803 -5.8623 -97.7393c40.3291 118.97 118.166 171.707 160.688 171.707c70.457 0 116.521 -61.0518 133.627 -136.875c48.582 12.4141 98.8506 16.8955 148.862 13.2705zM226.412 681.076
c-57.1826 -72.0117 -86.1904 -182.17 -99.9814 -292.59c94.084 60.9795 143.256 246.536 99.9814 292.59zM193.049 -13.4316c55.7891 20.4785 100.685 114.776 113.079 217.761c-97.1533 -68.0566 -143.083 -168.893 -113.079 -217.761z" />
    <glyph glyph-name="c" unicode="c" horiz-adv-x="415" 
d="M456.052 281.636c8.25977 13.4707 33.6924 3.25 28.1641 -10.1133c-24.0654 -58.2451 -115.949 -309.654 -289.143 -309.654c-90.0625 0 -195.071 79.4854 -195.071 246.481c0 124.701 64.1729 256.327 175.383 256.327c103.185 0 152.042 -83.4932 92.5215 -223.51
c-6.78711 -15.9609 -40.6123 -6.29102 -33.6387 15.3115c2.67578 8.26953 35.8242 112.109 -11.1191 159.701c-6.55273 -1.82129 -87.9414 -30.6318 -87.9414 -253.762c0 -126.167 53.3096 -165.182 63.1523 -165.913c150.225 0 241.377 258.518 257.692 285.131z" />
    <glyph glyph-name="c" unicode="&#xe7;" horiz-adv-x="415" 
d="M456.052 281.636c8.25977 13.4707 33.6924 3.25 28.1641 -10.1133c-24.0654 -58.2451 -115.949 -309.654 -289.143 -309.654c-90.0625 0 -195.071 79.4854 -195.071 246.481c0 124.701 64.1729 256.327 175.383 256.327c103.185 0 152.042 -83.4932 92.5215 -223.51
c-6.78711 -15.9609 -40.6123 -6.29102 -33.6387 15.3115c2.67578 8.26953 35.8242 112.109 -11.1191 159.701c-6.55273 -1.82129 -87.9414 -30.6318 -87.9414 -253.762c0 -126.167 53.3096 -165.182 63.1523 -165.913c150.225 0 241.377 258.518 257.692 285.131z" />
    <glyph glyph-name="d" unicode="d" horiz-adv-x="506" 
d="M548.932 281.636c3.7793 16.7334 28.0859 10.9238 26.6309 -0.736328s-54.3271 -312.386 -174.925 -312.386c-68.832 0 -139.53 71.3428 -157.809 256.021c-47.251 -178.911 -84.0518 -195.858 -117.297 -195.858c-58.2617 0 -125.532 69.1846 -125.532 189.51
c0 117.042 51.958 211.933 176.111 211.933c30.9033 0 52.5059 -6.67969 68.0664 -15.0049c20.8477 163.609 95.25 308.799 196.1 308.799c40.8223 0 78.7578 -22.2402 78.7578 -91.1553c0 -125.322 -99.2461 -261.618 -152.863 -283.482
c-2.09668 -27.2002 -3.28613 -55.876 -3.28613 -86.0967c0 -222.188 38.4287 -263.176 51.4131 -263.176c39.1045 0 104.736 149.28 134.633 281.634zM464.887 677.064c-29.5342 -35.4736 -78.5811 -136.727 -95.7939 -295.897
c100.063 83.5234 135.216 252.213 95.7939 295.897zM239.091 356.609c0.0273438 0.59668 0.0517578 1.2002 0.0791016 1.81445c-4.72461 10.2393 -17.4023 21.127 -20.3994 21.127c-67.2734 -20.2373 -109.568 -187.233 -82.5859 -305.733
c38.5498 42.498 79.7725 192.833 102.906 282.792z" />
    <glyph glyph-name="e" unicode="e" horiz-adv-x="380" 
d="M420.133 285.557c6.00098 14.6152 34.7529 2.75781 28.166 -10.1299c-48.8574 -95.5283 -118.862 -294.611 -261.065 -294.611c-90.0596 0 -187.233 84.2275 -187.233 228.069c-0 124.697 65.6318 239.828 143.845 239.828c182.449 0 112.368 -277.792 -5.42871 -263.479
c0.869141 -120.576 21.9609 -172.686 61.9453 -172.686c102.092 0 204.914 236.818 219.771 273.009zM189.239 400.866c-6.25977 -1.73828 -46.7822 -60.6074 -50.5547 -188.578c71.3809 5.17285 98.46 153.298 50.5547 188.578z" />
    <glyph glyph-name="e" unicode="&#xeb;" horiz-adv-x="380" 
d="M420.133 285.557c6.00098 14.6152 34.7529 2.75781 28.166 -10.1299c-48.8574 -95.5283 -118.862 -294.611 -261.065 -294.611c-90.0596 0 -187.233 84.2275 -187.233 228.069c-0 124.697 65.6318 239.828 143.845 239.828c182.449 0 112.368 -277.792 -5.42871 -263.479
c0.869141 -120.576 21.9609 -172.686 61.9453 -172.686c102.092 0 204.914 236.818 219.771 273.009zM189.239 400.866c-6.25977 -1.73828 -46.7822 -60.6074 -50.5547 -188.578c71.3809 5.17285 98.46 153.298 50.5547 188.578z" />
    <glyph glyph-name="e" unicode="&#xea;" horiz-adv-x="380" 
d="M420.133 285.557c6.00098 14.6152 34.7529 2.75781 28.166 -10.1299c-48.8574 -95.5283 -118.862 -294.611 -261.065 -294.611c-90.0596 0 -187.233 84.2275 -187.233 228.069c-0 124.697 65.6318 239.828 143.845 239.828c182.449 0 112.368 -277.792 -5.42871 -263.479
c0.869141 -120.576 21.9609 -172.686 61.9453 -172.686c102.092 0 204.914 236.818 219.771 273.009zM189.239 400.866c-6.25977 -1.73828 -46.7822 -60.6074 -50.5547 -188.578c71.3809 5.17285 98.46 153.298 50.5547 188.578z" />
    <glyph glyph-name="e" unicode="&#xe9;" horiz-adv-x="380" 
d="M420.133 285.557c6.00098 14.6152 34.7529 2.75781 28.166 -10.1299c-48.8574 -95.5283 -118.862 -294.611 -261.065 -294.611c-90.0596 0 -187.233 84.2275 -187.233 228.069c-0 124.697 65.6318 239.828 143.845 239.828c182.449 0 112.368 -277.792 -5.42871 -263.479
c0.869141 -120.576 21.9609 -172.686 61.9453 -172.686c102.092 0 204.914 236.818 219.771 273.009zM189.239 400.866c-6.25977 -1.73828 -46.7822 -60.6074 -50.5547 -188.578c71.3809 5.17285 98.46 153.298 50.5547 188.578z" />
    <glyph glyph-name="e" unicode="&#xe8;" horiz-adv-x="380" 
d="M420.133 285.557c6.00098 14.6152 34.7529 2.75781 28.166 -10.1299c-48.8574 -95.5283 -118.862 -294.611 -261.065 -294.611c-90.0596 0 -187.233 84.2275 -187.233 228.069c-0 124.697 65.6318 239.828 143.845 239.828c182.449 0 112.368 -277.792 -5.42871 -263.479
c0.869141 -120.576 21.9609 -172.686 61.9453 -172.686c102.092 0 204.914 236.818 219.771 273.009zM189.239 400.866c-6.25977 -1.73828 -46.7822 -60.6074 -50.5547 -188.578c71.3809 5.17285 98.46 153.298 50.5547 188.578z" />
    <glyph glyph-name="f" unicode="f" horiz-adv-x="272" 
d="M303.419 294.582c8.8877 7.97363 25.8447 -7.2002 19.6787 -15.6875c-35.1973 -48.5059 -158.975 -124.515 -173.193 -121.963c22.6543 -13.3984 73.6533 -78.3887 73.6533 -191.058c0 -87.1348 -22.5264 -133.81 -65.9971 -133.81
c-92.9766 0 -157.561 184.774 -157.561 382.988c0 89.1035 20.8408 501.122 202.783 501.122c48.1299 0 76.9365 -22.1514 76.9365 -86.3213c0 -127.974 -83.917 -247.716 -137.717 -279.344c-8.82129 -69.2393 -13.2422 -132.443 -13.6494 -170.852
c90.7314 27.8828 170.406 110.744 175.065 114.924zM229.038 666.951c-38.6426 -52.2266 -65.3799 -167.31 -81.5439 -276.522c57.9307 54.582 125.688 201.641 81.5439 276.522zM166.323 -132.2c38.0635 29.8867 35.5039 203.501 -35.7939 257.963
c3.37598 -78.958 3.56934 -214.785 35.7939 -257.963z" />
    <glyph glyph-name="g" unicode="g" horiz-adv-x="501" 
d="M547.477 287.743c2.24902 7.3418 26.1641 5.05762 22.1602 -9.38184c-24.5029 -88.1348 -88.1104 -152.629 -159.809 -208.001c-20.3848 -261.628 -147.297 -384.874 -250.934 -384.874c-61.2559 0 -74.3818 37.7354 -74.3818 71.6426
c0 114.469 93.6455 183.987 197.875 255.03c0.802734 16.1855 1.2041 33.208 1.2041 51.0674c-0.125977 67.5332 -4.14551 135.003 -12.0391 202.073c-54.3135 -220.357 -110.41 -265.301 -146.021 -265.301c-58.2588 0 -125.532 69.1846 -125.532 189.51
c0 117.042 49.499 219.562 162.713 219.562c33.1318 -0.384766 65.3828 -10.7178 92.5693 -29.6582c0.0380859 0.37207 0.0791016 0.744141 0.117188 1.10938c-1.15234 7.7832 -2.01074 14.0908 -2.44531 18.7051c-3.2793 35.0039 102.826 32.8213 123.608 -10.9355
s36.0947 -126.719 36.0947 -243.385c-0.015625 -13.6357 -0.283203 -26.9619 -0.802734 -39.9775c60.6934 49.4365 112.352 106.761 135.623 182.814zM131.535 46.457c54.6719 52.8408 103.022 209.935 119.27 302.305c-10.0312 8.04688 -22.4561 12.5254 -35.3145 12.7295
c-70.2812 -16.957 -110.935 -196.53 -83.9551 -315.034zM150.848 -283.521c35.1943 0 112.134 61.501 129.284 261.929c-85.3135 -60.1455 -155.536 -119.535 -155.536 -203.956c0 -29.5312 5.83203 -57.9727 26.252 -57.9727z" />
    <glyph glyph-name="h" unicode="h" horiz-adv-x="495" 
d="M537.085 285.28c4.02832 17.8604 29.8271 10.2256 27.3438 -3.2793c-10.0254 -54.5098 -89.3311 -329.978 -196.526 -329.978c-49.2266 0 -122.877 47.9785 -122.877 201.632c0 75.1123 10.7529 200.734 16.7705 215.219
c-36.5938 -35.3076 -111.647 -136.013 -137.641 -319.317c0.972656 -21.3096 1.52832 -37.0391 0.907227 -45.4854c-2.63086 -35.9736 -59.6035 -34.2803 -75.4258 -8.88379c-29.2178 46.8955 -49.6377 162.481 -49.6377 255.455c0 275.653 113.031 465.394 201.635 465.394
c50.6816 0 75.1123 -32.9521 75.1123 -82.7236c0 -90.2285 -54.5547 -226.283 -152.895 -288.26c-4.46582 -56.748 -5.24902 -112.383 -4.53125 -161.934c42.5225 123.346 122.863 258.221 159.979 258.221c30.6279 0 95.7119 -9.8457 95.7119 -103.371
c0 -37.1904 -28.4414 -184.825 -28.4414 -263.617c0 -51.958 10.9395 -94.3457 25.707 -94.3457c61.4863 0 145.496 219.592 164.809 305.274zM226.52 679.122c-59.2109 -74.5469 -86.9443 -184.95 -99.0322 -295.325c77.2852 54.165 146.817 240.37 99.0322 295.325z" />
    <glyph glyph-name="i" unicode="i" horiz-adv-x="257" 
d="M294.102 283.897c3.7793 14.7324 36.5752 12.4707 31.5088 -7.33887c-41.5605 -162.981 -115.394 -313.206 -175.194 -313.206c-142.931 0 -171.606 298.984 -137.278 467.625c6.49023 31.876 109.751 27.5273 123.242 -26.7998
c7.35254 -29.6279 -18.5957 -195.858 -18.5957 -286.241c0 -86.0518 24.499 -119.936 32.29 -119.936c23.127 0 101.471 119.921 144.027 285.896zM75.498 476.305c-12.6016 0.00292969 -24.6875 5.00977 -33.5967 13.9229s-13.9131 21 -13.9102 33.6016
c0.0078125 26.2393 21.2852 47.5049 47.5244 47.499s47.5059 -21.2812 47.501 -47.5205s-21.2793 -47.5068 -47.5186 -47.5029z" />
    <glyph glyph-name="i" unicode="&#xef;" horiz-adv-x="257" 
d="M294.102 283.897c3.7793 14.7324 36.5752 12.4707 31.5088 -7.33887c-41.5605 -162.981 -115.394 -313.206 -175.194 -313.206c-142.931 0 -171.606 298.984 -137.278 467.625c6.49023 31.876 109.751 27.5273 123.242 -26.7998
c7.35254 -29.6279 -18.5957 -195.858 -18.5957 -286.241c0 -86.0518 24.499 -119.936 32.29 -119.936c23.127 0 101.471 119.921 144.027 285.896zM75.498 476.305c-12.6016 0.00292969 -24.6875 5.00977 -33.5967 13.9229s-13.9131 21 -13.9102 33.6016
c0.0078125 26.2393 21.2852 47.5049 47.5244 47.499s47.5059 -21.2812 47.501 -47.5205s-21.2793 -47.5068 -47.5186 -47.5029z" />
    <glyph glyph-name="i" unicode="&#xee;" horiz-adv-x="257" 
d="M294.102 283.897c3.7793 14.7324 36.5752 12.4707 31.5088 -7.33887c-41.5605 -162.981 -115.394 -313.206 -175.194 -313.206c-142.931 0 -171.606 298.984 -137.278 467.625c6.49023 31.876 109.751 27.5273 123.242 -26.7998
c7.35254 -29.6279 -18.5957 -195.858 -18.5957 -286.241c0 -86.0518 24.499 -119.936 32.29 -119.936c23.127 0 101.471 119.921 144.027 285.896zM75.498 476.305c-12.6016 0.00292969 -24.6875 5.00977 -33.5967 13.9229s-13.9131 21 -13.9102 33.6016
c0.0078125 26.2393 21.2852 47.5049 47.5244 47.499s47.5059 -21.2812 47.501 -47.5205s-21.2793 -47.5068 -47.5186 -47.5029z" />
    <glyph glyph-name="i" unicode="&#xed;" horiz-adv-x="257" 
d="M294.102 283.897c3.7793 14.7324 36.5752 12.4707 31.5088 -7.33887c-41.5605 -162.981 -115.394 -313.206 -175.194 -313.206c-142.931 0 -171.606 298.984 -137.278 467.625c6.49023 31.876 109.751 27.5273 123.242 -26.7998
c7.35254 -29.6279 -18.5957 -195.858 -18.5957 -286.241c0 -86.0518 24.499 -119.936 32.29 -119.936c23.127 0 101.471 119.921 144.027 285.896zM75.498 476.305c-12.6016 0.00292969 -24.6875 5.00977 -33.5967 13.9229s-13.9131 21 -13.9102 33.6016
c0.0078125 26.2393 21.2852 47.5049 47.5244 47.499s47.5059 -21.2812 47.501 -47.5205s-21.2793 -47.5068 -47.5186 -47.5029z" />
    <glyph glyph-name="i" unicode="&#xec;" horiz-adv-x="257" 
d="M294.102 283.897c3.7793 14.7324 36.5752 12.4707 31.5088 -7.33887c-41.5605 -162.981 -115.394 -313.206 -175.194 -313.206c-142.931 0 -171.606 298.984 -137.278 467.625c6.49023 31.876 109.751 27.5273 123.242 -26.7998
c7.35254 -29.6279 -18.5957 -195.858 -18.5957 -286.241c0 -86.0518 24.499 -119.936 32.29 -119.936c23.127 0 101.471 119.921 144.027 285.896zM75.498 476.305c-12.6016 0.00292969 -24.6875 5.00977 -33.5967 13.9229s-13.9131 21 -13.9102 33.6016
c0.0078125 26.2393 21.2852 47.5049 47.5244 47.499s47.5059 -21.2812 47.501 -47.5205s-21.2793 -47.5068 -47.5186 -47.5029z" />
    <glyph glyph-name="j" unicode="j" horiz-adv-x="250" 
d="M297.259 289.933c2.24902 7.33887 26.165 5.05469 22.1504 -9.38184c-24.5029 -88.1348 -88.1074 -152.629 -159.81 -208.001c-20.3848 -261.625 -147.297 -384.874 -250.934 -384.874c-61.2559 0 -74.3818 37.7393 -74.3818 71.6465
c0 114.469 93.6455 183.97 197.875 255.03c0.783203 16.2119 1.2041 33.2041 1.2041 51.0684c0 171.369 -27.3477 300.991 -30.627 335.995s102.826 32.8145 123.608 -10.9395s36.0977 -126.716 36.0977 -243.385c-0.0136719 -13.6338 -0.282227 -26.96 -0.806641 -39.9775
c60.6934 49.4365 112.352 106.761 135.623 182.818zM-99.3418 -281.331c35.1943 0 112.106 61.5 129.284 261.924c-85.3135 -60.1416 -155.536 -119.531 -155.536 -203.952c0 -29.5342 5.83203 -57.9717 26.252 -57.9717zM36.4561 447.27
c-26.2402 0 -47.5127 21.2725 -47.5127 47.5127s21.2725 47.5127 47.5127 47.5127s47.5127 -21.2725 47.5127 -47.5127s-21.2725 -47.5127 -47.5127 -47.5127z" />
    <glyph glyph-name="k" unicode="k" horiz-adv-x="431" 
d="M475.454 286.377c5.46973 13.4912 28.2354 5.83691 24.7969 -7.27832c-37.1904 -141.928 -98.4463 -298.261 -202.545 -298.261c-81.2412 0 -131.533 88.3311 -163.503 149.117c-6.05273 -37.9795 -9.06055 -76.3818 -8.99414 -114.841v0.03125
c0.172852 -7.49023 0.162109 -13.4775 -0.144531 -17.6367c-2.63184 -35.9736 -59.6045 -34.2773 -75.4268 -8.88477c-29.2178 46.8955 -49.6377 162.479 -49.6377 255.459c0 275.65 113.031 465.387 201.635 465.387c50.6816 0 75.1123 -32.9521 75.1123 -82.7197
c0 -90.2285 -54.5547 -226.286 -152.895 -288.259c-2.16211 -27.3174 -3.44824 -54.3652 -4.1377 -80.6025c26.3965 78.9199 76.3643 155.561 132.774 155.561c56.6963 0 95.7109 -43.7539 95.7109 -78.7578c0 -124.043 -111.158 -166.966 -176.632 -173.863
c34.4355 -78.3857 85.2275 -153.75 121.208 -153.75c100.274 0 177.208 265.808 182.678 279.299zM226.512 672.553c-59.207 -74.543 -86.9424 -184.949 -99.0332 -295.321c77.2852 54.165 146.821 240.37 99.0332 295.321zM254.952 363.678
c-36.6904 -17.7158 -81.041 -76.5781 -107.255 -171.293c69.1328 13.2881 119.453 109.53 107.255 171.293z" />
    <glyph glyph-name="l" unicode="l" horiz-adv-x="268" 
d="M310.654 285.739c3.7793 16.7295 28.0723 10.918 26.6172 -0.742188s-54.3271 -312.386 -174.925 -312.386c-79.9404 0 -162.347 96.1699 -162.347 354.273c-0 196.938 82.4062 401.124 202 401.124c40.8223 0 78.7578 -22.2402 78.7578 -91.1523
c0 -125.318 -99.2461 -261.617 -152.863 -283.481c-2.09668 -27.1963 -3.28613 -55.876 -3.28613 -86.0938c0 -222.192 38.4287 -263.18 51.4131 -263.18c39.1045 0 104.736 149.28 134.633 281.638zM226.613 681.166c-29.5312 -35.4736 -78.584 -136.726 -95.7969 -295.896
c100.063 83.5234 135.216 252.216 95.7969 295.896z" />
    <glyph glyph-name="m" unicode="m" horiz-adv-x="728" 
d="M774.342 290.386c1.91406 10.3906 26.2666 9.25391 22.9971 -7.12012c-34.4561 -171.187 -83.6787 -330.892 -172.279 -330.892c-60.5283 0 -139.09 61.2285 -139.286 243.747c-0.0585938 64.3486 4.44531 192.781 11.667 271.094
c-82.2793 -89.0244 -126.236 -262.394 -141.438 -317.131c0.0683594 -3.84473 -1.02148 -7.62109 -3.12793 -10.8389l-0.0175781 -0.0625v0.0273438c-6.72852 -10.7217 -22.8301 -18.6533 -36.5352 -18.6533c-33.9111 0 -53.8721 25.1309 -52.5859 50.0059
c1.73145 33.5312 1.08301 185.822 -1.83496 208.425c-57.7314 -61.2422 -97.0986 -218.296 -108.29 -349.815c22.6025 -69.1699 -66.2188 -63.1279 -83.5068 -33.0312c-106.837 185.953 -65.2559 435.714 -44.4883 488.22s150.569 18.5986 140.361 -22.2412
c-6.05957 -24.2412 -21.4541 -139.01 -25.6445 -248.278c20.3955 77.2578 71.4258 220.934 128.467 220.934c70.3496 0 79.1885 -90.6934 82.1924 -179.031c29.3828 75.8232 90.2207 262.166 158.091 262.166c103.916 0 96.2568 -111.568 96.2568 -213.305
c0 -147.67 -16.4092 -304.623 34.459 -321.866c69.0947 17.2676 130.646 286.5 134.544 307.647z" />
    <glyph glyph-name="n" unicode="n" horiz-adv-x="552" 
d="M592.969 296.13c1.91406 10.3906 32.0059 10.6221 28.7363 -5.73828c-34.459 -171.189 -95.7148 -325.239 -184.315 -325.239c-60.5283 0 -120.312 64.5078 -120.508 247.029c-0.0693359 64.3457 6.08691 182.936 13.3086 261.248
c-112.11 -90.6074 -173.497 -357.691 -173.497 -449.93l-0.0517578 0.137695c8.4248 -55.8477 -70.3604 -48.7539 -86.5381 -20.5957c-106.837 185.953 -65.2559 435.714 -44.4883 488.22s150.573 18.5986 140.361 -22.2412
c-6.92188 -27.6934 -26.0312 -173.553 -26.6904 -294.371c55.5791 223.237 147.749 357.067 200.452 357.067c94.3457 0 99.2666 -65.7559 99.2666 -167.492c0 -147.673 -31.1729 -294.794 18.7334 -362.137c69.0947 17.2607 131.333 272.895 135.23 294.042z" />
    <glyph glyph-name="n" unicode="&#xf1;" horiz-adv-x="552" 
d="M592.969 296.13c1.91406 10.3906 32.0059 10.6221 28.7363 -5.73828c-34.459 -171.189 -95.7148 -325.239 -184.315 -325.239c-60.5283 0 -120.312 64.5078 -120.508 247.029c-0.0693359 64.3457 6.08691 182.936 13.3086 261.248
c-112.11 -90.6074 -173.497 -357.691 -173.497 -449.93l-0.0517578 0.137695c8.4248 -55.8477 -70.3604 -48.7539 -86.5381 -20.5957c-106.837 185.953 -65.2559 435.714 -44.4883 488.22s150.573 18.5986 140.361 -22.2412
c-6.92188 -27.6934 -26.0312 -173.553 -26.6904 -294.371c55.5791 223.237 147.749 357.067 200.452 357.067c94.3457 0 99.2666 -65.7559 99.2666 -167.492c0 -147.673 -31.1729 -294.794 18.7334 -362.137c69.0947 17.2607 131.333 272.895 135.23 294.042z" />
    <glyph glyph-name="o" unicode="o" horiz-adv-x="455" 
d="M494.823 298.044c10.9395 12.0322 37.6113 2.19531 27.707 -12.0342c-36.6943 -52.7266 -112.766 -110.923 -194.689 -127.628c-17.1533 -98.6709 -63.752 -192.051 -157.439 -192.051c-106.909 0 -170.365 102.733 -170.365 239.102
c-0.492188 32.3145 4.04492 64.5088 13.4492 95.4287c-9.09766 22.752 -13.666 47.0615 -13.4492 71.5645c0 76.5713 57.9727 132.63 146.028 132.63c115.793 0 189.784 -112.228 189.784 -252.589c-0.0107422 -21.4219 -1.24121 -42.8262 -3.68652 -64.1084
c82.917 20.3643 153.146 99.2188 162.661 109.686zM196.384 1.24512c26.6553 0 66.958 64.1875 85.4463 152.415c-52.5264 1.1084 -104.268 12.9727 -152.029 34.8594c-1.79883 -13.3711 -2.75977 -26.8418 -2.87695 -40.333c0 -86.417 37.1904 -146.941 69.46 -146.941z
M287.085 183.681c3.08203 21.4414 4.63281 43.084 4.66699 64.7461c0 125.449 -80.9307 218.063 -131.626 218.063c-24.7617 0 -70.6846 -30.1143 -78.0752 -99.3223c43.2393 3.60742 93.7139 -11.2598 82.0781 -40.6943
c-11.0312 -29.7168 -19.7988 -60.2256 -26.2266 -91.2656c36.3008 -30.2109 87.9756 -50.0723 149.183 -51.5273z" />
    <glyph glyph-name="o" unicode="&#xf8;" horiz-adv-x="455" 
d="M494.823 298.044c10.9395 12.0322 37.6113 2.19531 27.707 -12.0342c-36.6943 -52.7266 -112.766 -110.923 -194.689 -127.628c-17.1533 -98.6709 -63.752 -192.051 -157.439 -192.051c-106.909 0 -170.365 102.733 -170.365 239.102
c-0.492188 32.3145 4.04492 64.5088 13.4492 95.4287c-9.09766 22.752 -13.666 47.0615 -13.4492 71.5645c0 76.5713 57.9727 132.63 146.028 132.63c115.793 0 189.784 -112.228 189.784 -252.589c-0.0107422 -21.4219 -1.24121 -42.8262 -3.68652 -64.1084
c82.917 20.3643 153.146 99.2188 162.661 109.686zM196.384 1.24512c26.6553 0 66.958 64.1875 85.4463 152.415c-52.5264 1.1084 -104.268 12.9727 -152.029 34.8594c-1.79883 -13.3711 -2.75977 -26.8418 -2.87695 -40.333c0 -86.417 37.1904 -146.941 69.46 -146.941z
M287.085 183.681c3.08203 21.4414 4.63281 43.084 4.66699 64.7461c0 125.449 -80.9307 218.063 -131.626 218.063c-24.7617 0 -70.6846 -30.1143 -78.0752 -99.3223c43.2393 3.60742 93.7139 -11.2598 82.0781 -40.6943
c-11.0312 -29.7168 -19.7988 -60.2256 -26.2266 -91.2656c36.3008 -30.2109 87.9756 -50.0723 149.183 -51.5273z" />
    <glyph glyph-name="o" unicode="&#xf6;" horiz-adv-x="455" 
d="M494.823 298.044c10.9395 12.0322 37.6113 2.19531 27.707 -12.0342c-36.6943 -52.7266 -112.766 -110.923 -194.689 -127.628c-17.1533 -98.6709 -63.752 -192.051 -157.439 -192.051c-106.909 0 -170.365 102.733 -170.365 239.102
c-0.492188 32.3145 4.04492 64.5088 13.4492 95.4287c-9.09766 22.752 -13.666 47.0615 -13.4492 71.5645c0 76.5713 57.9727 132.63 146.028 132.63c115.793 0 189.784 -112.228 189.784 -252.589c-0.0107422 -21.4219 -1.24121 -42.8262 -3.68652 -64.1084
c82.917 20.3643 153.146 99.2188 162.661 109.686zM196.384 1.24512c26.6553 0 66.958 64.1875 85.4463 152.415c-52.5264 1.1084 -104.268 12.9727 -152.029 34.8594c-1.79883 -13.3711 -2.75977 -26.8418 -2.87695 -40.333c0 -86.417 37.1904 -146.941 69.46 -146.941z
M287.085 183.681c3.08203 21.4414 4.63281 43.084 4.66699 64.7461c0 125.449 -80.9307 218.063 -131.626 218.063c-24.7617 0 -70.6846 -30.1143 -78.0752 -99.3223c43.2393 3.60742 93.7139 -11.2598 82.0781 -40.6943
c-11.0312 -29.7168 -19.7988 -60.2256 -26.2266 -91.2656c36.3008 -30.2109 87.9756 -50.0723 149.183 -51.5273z" />
    <glyph glyph-name="o" unicode="&#xf5;" horiz-adv-x="455" 
d="M494.823 298.044c10.9395 12.0322 37.6113 2.19531 27.707 -12.0342c-36.6943 -52.7266 -112.766 -110.923 -194.689 -127.628c-17.1533 -98.6709 -63.752 -192.051 -157.439 -192.051c-106.909 0 -170.365 102.733 -170.365 239.102
c-0.492188 32.3145 4.04492 64.5088 13.4492 95.4287c-9.09766 22.752 -13.666 47.0615 -13.4492 71.5645c0 76.5713 57.9727 132.63 146.028 132.63c115.793 0 189.784 -112.228 189.784 -252.589c-0.0107422 -21.4219 -1.24121 -42.8262 -3.68652 -64.1084
c82.917 20.3643 153.146 99.2188 162.661 109.686zM196.384 1.24512c26.6553 0 66.958 64.1875 85.4463 152.415c-52.5264 1.1084 -104.268 12.9727 -152.029 34.8594c-1.79883 -13.3711 -2.75977 -26.8418 -2.87695 -40.333c0 -86.417 37.1904 -146.941 69.46 -146.941z
M287.085 183.681c3.08203 21.4414 4.63281 43.084 4.66699 64.7461c0 125.449 -80.9307 218.063 -131.626 218.063c-24.7617 0 -70.6846 -30.1143 -78.0752 -99.3223c43.2393 3.60742 93.7139 -11.2598 82.0781 -40.6943
c-11.0312 -29.7168 -19.7988 -60.2256 -26.2266 -91.2656c36.3008 -30.2109 87.9756 -50.0723 149.183 -51.5273z" />
    <glyph glyph-name="o" unicode="&#xf4;" horiz-adv-x="455" 
d="M494.823 298.044c10.9395 12.0322 37.6113 2.19531 27.707 -12.0342c-36.6943 -52.7266 -112.766 -110.923 -194.689 -127.628c-17.1533 -98.6709 -63.752 -192.051 -157.439 -192.051c-106.909 0 -170.365 102.733 -170.365 239.102
c-0.492188 32.3145 4.04492 64.5088 13.4492 95.4287c-9.09766 22.752 -13.666 47.0615 -13.4492 71.5645c0 76.5713 57.9727 132.63 146.028 132.63c115.793 0 189.784 -112.228 189.784 -252.589c-0.0107422 -21.4219 -1.24121 -42.8262 -3.68652 -64.1084
c82.917 20.3643 153.146 99.2188 162.661 109.686zM196.384 1.24512c26.6553 0 66.958 64.1875 85.4463 152.415c-52.5264 1.1084 -104.268 12.9727 -152.029 34.8594c-1.79883 -13.3711 -2.75977 -26.8418 -2.87695 -40.333c0 -86.417 37.1904 -146.941 69.46 -146.941z
M287.085 183.681c3.08203 21.4414 4.63281 43.084 4.66699 64.7461c0 125.449 -80.9307 218.063 -131.626 218.063c-24.7617 0 -70.6846 -30.1143 -78.0752 -99.3223c43.2393 3.60742 93.7139 -11.2598 82.0781 -40.6943
c-11.0312 -29.7168 -19.7988 -60.2256 -26.2266 -91.2656c36.3008 -30.2109 87.9756 -50.0723 149.183 -51.5273z" />
    <glyph glyph-name="o" unicode="&#xf3;" horiz-adv-x="455" 
d="M494.823 298.044c10.9395 12.0322 37.6113 2.19531 27.707 -12.0342c-36.6943 -52.7266 -112.766 -110.923 -194.689 -127.628c-17.1533 -98.6709 -63.752 -192.051 -157.439 -192.051c-106.909 0 -170.365 102.733 -170.365 239.102
c-0.492188 32.3145 4.04492 64.5088 13.4492 95.4287c-9.09766 22.752 -13.666 47.0615 -13.4492 71.5645c0 76.5713 57.9727 132.63 146.028 132.63c115.793 0 189.784 -112.228 189.784 -252.589c-0.0107422 -21.4219 -1.24121 -42.8262 -3.68652 -64.1084
c82.917 20.3643 153.146 99.2188 162.661 109.686zM196.384 1.24512c26.6553 0 66.958 64.1875 85.4463 152.415c-52.5264 1.1084 -104.268 12.9727 -152.029 34.8594c-1.79883 -13.3711 -2.75977 -26.8418 -2.87695 -40.333c0 -86.417 37.1904 -146.941 69.46 -146.941z
M287.085 183.681c3.08203 21.4414 4.63281 43.084 4.66699 64.7461c0 125.449 -80.9307 218.063 -131.626 218.063c-24.7617 0 -70.6846 -30.1143 -78.0752 -99.3223c43.2393 3.60742 93.7139 -11.2598 82.0781 -40.6943
c-11.0312 -29.7168 -19.7988 -60.2256 -26.2266 -91.2656c36.3008 -30.2109 87.9756 -50.0723 149.183 -51.5273z" />
    <glyph glyph-name="o" unicode="&#xf2;" horiz-adv-x="455" 
d="M494.823 298.044c10.9395 12.0322 37.6113 2.19531 27.707 -12.0342c-36.6943 -52.7266 -112.766 -110.923 -194.689 -127.628c-17.1533 -98.6709 -63.752 -192.051 -157.439 -192.051c-106.909 0 -170.365 102.733 -170.365 239.102
c-0.492188 32.3145 4.04492 64.5088 13.4492 95.4287c-9.09766 22.752 -13.666 47.0615 -13.4492 71.5645c0 76.5713 57.9727 132.63 146.028 132.63c115.793 0 189.784 -112.228 189.784 -252.589c-0.0107422 -21.4219 -1.24121 -42.8262 -3.68652 -64.1084
c82.917 20.3643 153.146 99.2188 162.661 109.686zM196.384 1.24512c26.6553 0 66.958 64.1875 85.4463 152.415c-52.5264 1.1084 -104.268 12.9727 -152.029 34.8594c-1.79883 -13.3711 -2.75977 -26.8418 -2.87695 -40.333c0 -86.417 37.1904 -146.941 69.46 -146.941z
M287.085 183.681c3.08203 21.4414 4.63281 43.084 4.66699 64.7461c0 125.449 -80.9307 218.063 -131.626 218.063c-24.7617 0 -70.6846 -30.1143 -78.0752 -99.3223c43.2393 3.60742 93.7139 -11.2598 82.0781 -40.6943
c-11.0312 -29.7168 -19.7988 -60.2256 -26.2266 -91.2656c36.3008 -30.2109 87.9756 -50.0723 149.183 -51.5273z" />
    <glyph glyph-name="p" unicode="p" horiz-adv-x="511" 
d="M570.659 293.306c9.56641 -0.686523 15.6768 -21.5137 -0.732422 -22.9688c-47.5781 -4.24512 -106.209 -19.3643 -162.743 -41.4912c-15.6328 -119.155 -116.004 -228.841 -185.102 -228.841c-56.1514 0 -72.1943 26.0381 -72.1943 50.834
c0 64.1357 73.667 125.957 162.433 171.187c6.26367 25.0479 9.57129 50.7432 9.85547 76.5605c0 68.3672 -16.957 81.4932 -35.0039 81.4932c-76.0088 0 -138.316 -119.549 -171.379 -262.79c0.461914 -185.471 22.6885 -340.075 26.9893 -357.146
c8.75293 -34.7285 -67.6904 -44.7646 -76.3848 -19.9648c-95.8945 273.464 -63.5801 613.739 -50.416 691.607c9.41504 55.6787 128.657 19.6777 124.067 -5.39453c-9.06348 -50.6797 -15.4102 -101.809 -19.0127 -153.167c38.2217 81.4307 89.6309 142.228 148.452 142.228
c74.1367 0 138.124 -77.4785 139.772 -152.415c62.376 21.4854 122.235 33.0664 161.398 30.2695zM200.89 37.9775c38.1221 20.8545 74.1689 75.2012 96.9023 136.567c-58.4863 -36.8594 -100.047 -80.2646 -100.047 -122.894
c0 -3.82812 0.820312 -13.6738 3.14453 -13.6738z" />
    <glyph glyph-name="q" unicode="q" horiz-adv-x="500" 
d="M567.354 277.624c-24.7959 -41.9287 -138.56 -142.198 -167.004 -156.797c111.572 -58.3379 139.282 -169.183 139.282 -250.858c0 -56.1514 -9.48047 -164.123 -94.2979 -164.123c-97.8223 0 -182.895 141.969 -190.937 453.431
c-38.3496 -117.828 -74.2227 -152.484 -117.121 -152.484c-58.248 0 -137.278 80.5957 -137.278 200.921c0 117.042 48.1299 218.848 169.548 218.848c44.5811 0 79.1094 -12.7363 103.412 -28.5107c3.31445 13.6328 7.62695 27.0039 12.9023 40.0049
c14.25 34.2109 129.802 18.5986 119.594 -25.5205c-11.4326 -49.4229 -24.1201 -153.008 -27.9863 -271.005c71.3359 38.1494 165.323 148.008 170.917 153.598c6.55273 6.5625 27.79 -2.58008 18.9688 -17.5029zM260.995 331.77
c0.395508 3.17969 0.811523 6.35547 1.24805 9.5166c-15.4912 16.3291 -34.9316 31.5029 -48.5713 31.5029c-60.4414 -34.2734 -105.013 -224.969 -69.2773 -328.247c50.7061 40.2363 94.4873 189.402 116.601 287.228zM505.366 -134.03
c0 135.899 -81.9473 212.019 -128.888 232.407c-0.124023 -9.24023 -0.186523 -18.5264 -0.186523 -27.8584c0 -201.266 48.8574 -335.447 84.9551 -335.447c14.9502 0 44.1191 53.9648 44.1191 130.898z" />
    <glyph glyph-name="r" unicode="r" horiz-adv-x="409" 
d="M338.999 456.649c100.636 0 51.4111 -86.4082 16.4277 -38.2783c-62.3486 -14.2188 -170.641 -135.637 -202.196 -391.381c24.124 -70.5186 -65.7354 -64.5527 -83.1309 -34.2734c-106.837 185.953 -65.2529 379.062 -44.4883 431.568s150.57 18.5947 140.362 -22.2451
c-6.42188 -25.6826 -23.3203 -130.213 -26.2686 -228.266c32.3525 127.822 110.545 282.875 199.294 282.875z" />
    <glyph glyph-name="s" unicode="s" horiz-adv-x="427" 
d="M475.446 300.23c19.2441 4.75879 26.8047 -16.9609 14.9619 -21.1201c-71.0225 -25.0791 -170.187 -76.4473 -245.023 -136.769c58.1797 -30.3447 113.759 -62.8008 113.759 -121.019c0 -38.3047 -62.3486 -107.944 -150.587 -107.944
c-31.7207 0 -118.865 17.1299 -118.865 76.5615c0 44.5781 39.1113 96.9814 94.6348 146.167c-80.5439 39.2842 -184.329 80.9131 -184.329 188.919c0 57.6104 64.1729 153.87 187.412 153.87c165.172 0 156.437 -118.504 118.501 -192.886
c-5.37305 -10.5391 -37.1523 -12.6631 -28.8027 16.0439c20.7822 71.4639 -7.29395 115.221 -13.126 115.221c-40.4736 0 -149.493 -69.6426 -149.493 -151.318c0 -49.2334 45.833 -78.8125 97.8223 -106.402c83.2725 66.1836 190.982 122.839 263.136 140.676z
M277.093 47.9102c0 30.2139 -24.6211 51.3555 -59.1738 70.8164c-46.6982 -42.9639 -78.6533 -89.1182 -78.6533 -132.803c0 -21.1582 5.83496 -27.7109 30.6279 -27.7109c48.1299 0 107.199 45.209 107.199 89.6973z" />
    <glyph glyph-name="t" unicode="t" horiz-adv-x="246" 
d="M290.246 292.209c2.08984 11.2217 29.7676 13.4551 24.998 -8.75098c-33.376 -154.563 -58.7031 -311.762 -154.963 -311.762c-97.3604 0 -152.777 199.444 -152.777 372.275c0 12.6221 1.62109 44.9951 4.53223 84.541
c-28.5625 -0.958984 -51.7588 -1.8418 -61.4912 -2.33887c-15.9912 -0.799805 -17.9531 29.9453 -4.37598 33.1074c15.3154 3.55566 40.2773 5.96973 68.9014 7.34961c6.75977 78.7607 17.5537 168.81 30.3486 191.84c21.8789 39.377 118.684 18.123 118.684 -13.126
c0 -29.6826 -9.15234 -93.7451 -16.8701 -178.666c31.0107 -1.4834 54.5166 -4.03906 60.3516 -7.39844c15.4297 -8.8877 11.1914 -30.6562 -6.92773 -27.8037c-5.67285 0.893555 -27.6133 0.924805 -56.4033 0.483398
c-4.2627 -53.7441 -7.51172 -114.272 -7.51172 -178.763c0 -193.613 24.6855 -251.861 42.6602 -251.861c34.4492 0 94.6357 203.731 110.845 290.873z" />
    <glyph glyph-name="u" unicode="u" horiz-adv-x="513" 
d="M550.229 292.285c3.7793 14.7471 36.5762 12.4688 31.5205 -7.36816c-41.5605 -162.985 -115.394 -313.207 -175.194 -313.207c-76.5752 0 -120.343 85.8271 -139.211 191.439c-32.7041 -111.813 -68.9736 -200.183 -113.117 -200.183
c-142.931 0 -180.783 284.838 -137.103 451.296c7.11133 27.0928 119.914 38.8877 119.914 -17.0879c0 -31.4482 -15.0537 -70.3564 -15.0537 -234.79c0 -86.0479 16.7266 -157.494 31.9004 -164.754c39.9707 28.8066 64.3838 124.512 102.623 274.14
c-1.75879 59.8281 2.88965 119.084 12.7598 167.562c6.4873 31.8799 109.748 27.5312 123.239 -26.7998c7.35254 -29.6104 -18.5957 -195.844 -18.5957 -286.224c0 -86.0479 24.499 -119.938 32.29 -119.938c23.127 0 101.471 119.938 144.027 285.914z" />
    <glyph glyph-name="u" unicode="&#xfc;" horiz-adv-x="513" 
d="M550.229 292.285c3.7793 14.7471 36.5762 12.4688 31.5205 -7.36816c-41.5605 -162.985 -115.394 -313.207 -175.194 -313.207c-76.5752 0 -120.343 85.8271 -139.211 191.439c-32.7041 -111.813 -68.9736 -200.183 -113.117 -200.183
c-142.931 0 -180.783 284.838 -137.103 451.296c7.11133 27.0928 119.914 38.8877 119.914 -17.0879c0 -31.4482 -15.0537 -70.3564 -15.0537 -234.79c0 -86.0479 16.7266 -157.494 31.9004 -164.754c39.9707 28.8066 64.3838 124.512 102.623 274.14
c-1.75879 59.8281 2.88965 119.084 12.7598 167.562c6.4873 31.8799 109.748 27.5312 123.239 -26.7998c7.35254 -29.6104 -18.5957 -195.844 -18.5957 -286.224c0 -86.0479 24.499 -119.938 32.29 -119.938c23.127 0 101.471 119.938 144.027 285.914z" />
    <glyph glyph-name="u" unicode="&#xfb;" horiz-adv-x="513" 
d="M550.229 292.285c3.7793 14.7471 36.5762 12.4688 31.5205 -7.36816c-41.5605 -162.985 -115.394 -313.207 -175.194 -313.207c-76.5752 0 -120.343 85.8271 -139.211 191.439c-32.7041 -111.813 -68.9736 -200.183 -113.117 -200.183
c-142.931 0 -180.783 284.838 -137.103 451.296c7.11133 27.0928 119.914 38.8877 119.914 -17.0879c0 -31.4482 -15.0537 -70.3564 -15.0537 -234.79c0 -86.0479 16.7266 -157.494 31.9004 -164.754c39.9707 28.8066 64.3838 124.512 102.623 274.14
c-1.75879 59.8281 2.88965 119.084 12.7598 167.562c6.4873 31.8799 109.748 27.5312 123.239 -26.7998c7.35254 -29.6104 -18.5957 -195.844 -18.5957 -286.224c0 -86.0479 24.499 -119.938 32.29 -119.938c23.127 0 101.471 119.938 144.027 285.914z" />
    <glyph glyph-name="u" unicode="&#xfa;" horiz-adv-x="513" 
d="M550.229 292.285c3.7793 14.7471 36.5762 12.4688 31.5205 -7.36816c-41.5605 -162.985 -115.394 -313.207 -175.194 -313.207c-76.5752 0 -120.343 85.8271 -139.211 191.439c-32.7041 -111.813 -68.9736 -200.183 -113.117 -200.183
c-142.931 0 -180.783 284.838 -137.103 451.296c7.11133 27.0928 119.914 38.8877 119.914 -17.0879c0 -31.4482 -15.0537 -70.3564 -15.0537 -234.79c0 -86.0479 16.7266 -157.494 31.9004 -164.754c39.9707 28.8066 64.3838 124.512 102.623 274.14
c-1.75879 59.8281 2.88965 119.084 12.7598 167.562c6.4873 31.8799 109.748 27.5312 123.239 -26.7998c7.35254 -29.6104 -18.5957 -195.844 -18.5957 -286.224c0 -86.0479 24.499 -119.938 32.29 -119.938c23.127 0 101.471 119.938 144.027 285.914z" />
    <glyph glyph-name="u" unicode="&#xf9;" horiz-adv-x="513" 
d="M550.229 292.285c3.7793 14.7471 36.5762 12.4688 31.5205 -7.36816c-41.5605 -162.985 -115.394 -313.207 -175.194 -313.207c-76.5752 0 -120.343 85.8271 -139.211 191.439c-32.7041 -111.813 -68.9736 -200.183 -113.117 -200.183
c-142.931 0 -180.783 284.838 -137.103 451.296c7.11133 27.0928 119.914 38.8877 119.914 -17.0879c0 -31.4482 -15.0537 -70.3564 -15.0537 -234.79c0 -86.0479 16.7266 -157.494 31.9004 -164.754c39.9707 28.8066 64.3838 124.512 102.623 274.14
c-1.75879 59.8281 2.88965 119.084 12.7598 167.562c6.4873 31.8799 109.748 27.5312 123.239 -26.7998c7.35254 -29.6104 -18.5957 -195.844 -18.5957 -286.224c0 -86.0479 24.499 -119.938 32.29 -119.938c23.127 0 101.471 119.938 144.027 285.914z" />
    <glyph glyph-name="v" unicode="v" horiz-adv-x="430" 
d="M482.117 296.951c12.3154 4.37598 25.25 -16.0439 10.1172 -26.5283c-9.05957 -6.27637 -62.3486 -15.0391 -85.5928 -15.0391c-11.2812 -0.0126953 -22.5469 0.818359 -33.7041 2.48633c-21.4648 -154.615 -83.2793 -295.094 -168.569 -295.094
c-158.243 0 -236.021 294.056 -192.337 460.514c7.11133 27.0967 131.265 34.1006 131.265 -21.875c0 -31.4482 -6.74609 -82.168 -6.74609 -160.25c0 -86.0518 26.9824 -234.087 86.1865 -246.254c43.1191 23.4512 95.8838 136.341 116.114 271.212
c-85.2549 29.5176 -118.438 113.721 -118.438 174.125c0 26.251 7.11133 115.948 77.665 115.948c84.2275 0 83.1348 -145.483 83.1348 -180.487c-0.0380859 -29.5605 -1.61035 -59.0996 -4.71094 -88.4971c9.32617 -2.28711 18.8975 -3.4248 28.5 -3.38672
c26.2861 -0.301758 52.4102 4.14453 77.1162 13.126zM343.42 302.241c2.55957 24.7773 3.85449 49.6689 3.87988 74.5781c0 79.2891 -28.9863 131.792 -40.8359 140.362c-10.5771 -11.8604 -18.7783 -60.5283 -18.7783 -80.4893
c0 -44.1641 13.502 -104.506 55.7344 -134.451z" />
    <glyph glyph-name="w" unicode="w" horiz-adv-x="767" 
d="M814.377 299.503c15.667 5.53516 32.6592 -18.2266 12.5811 -28.6006c-38.0352 -19.6816 -82.1162 -21.9609 -126.26 -21.9609c-9.9209 0.0263672 -19.8232 0.859375 -29.6094 2.49023c-19.7441 -144.5 -78.7344 -295.208 -188.692 -295.208
c-102.402 0 -153.522 97.8252 -177.136 202.269c-34.708 -146.428 -87.5283 -225.785 -165.244 -225.785c-62.9004 0 -140.017 75.4746 -140.017 281.12c0 120.325 27.3516 216.582 43.7568 252.135s135.637 13.3848 135.637 -23.5166
c0 -21.8789 -57.4277 -126.888 -57.4277 -292.06c0 -66.7256 3.2832 -154.232 44.3018 -182.674c64.1211 25.6895 104.812 195.293 123.166 300.551c-4.9209 68.084 -0.579102 123.646 4.99707 135.716c16.4053 35.5215 111.572 14.8291 111.572 -22.0723
c0 -21.875 -33.5449 -363.889 100.816 -393.582c65.4043 26.2207 108.354 149.308 122.208 274.698c-72.8506 28.3896 -134.058 96.5322 -134.058 175.035c0 64.5391 36.0977 111.759 84.2275 111.759c92.9902 0 99.543 -143.845 99.543 -189.057
c0 -24.2861 -1.26562 -50.2139 -3.84863 -76.7686c9.73535 -3.14355 19.8799 -4.83887 30.1074 -5.03223c34.3662 0 72.1152 7.39062 109.378 20.5439zM632.587 305.286c0.862305 14.8945 1.29004 29.6738 1.31055 44.1719c0 47.6924 -4.73828 118.501 -46.3057 155.691
c-8.75977 -11.667 -18.9678 -35.7324 -18.9678 -64.1738c0 -67.8086 29.8965 -111.076 63.9629 -135.689z" />
    <glyph glyph-name="x" unicode="x" horiz-adv-x="393" 
d="M434.636 286.56c9.48047 22.6064 31.5234 7.03516 27.6094 -6.01855c-59.0693 -197.624 -125.795 -306.278 -222.417 -306.278c-52.5303 0 -105.927 40.3086 -148.908 106.127c-33.2002 -63.749 -53.9512 -107.761 -58.1729 -112.589
c-10.208 -11.667 -37.2148 2.81738 -32.1104 19.9541c8.125 27.2793 31.7412 80.3271 62.4551 141.831c-37.8047 77.1855 -62.4561 176.735 -62.4561 283.68c0 39.377 125.442 46.6709 133.464 0c1.15234 -6.69727 5.34277 -58.6592 15.3818 -122.919
c36.46 63.1631 73.0742 120.546 101.66 155.243c15.4395 18.7363 58.7617 -11.3711 44.8496 -29.9561c-47.9209 -64.9453 -92.0801 -132.584 -132.26 -202.583c21.4746 -99.0703 57.2861 -197.586 115.852 -197.586c65.6318 0 145.572 248.488 155.053 271.095z" />
    <glyph glyph-name="y" unicode="y" horiz-adv-x="551" 
d="M597.875 289.933c2.24902 7.33887 26.1777 5.05566 22.1533 -9.3877c-24.5029 -88.1348 -88.1074 -152.629 -159.81 -208.001c-20.3848 -261.625 -147.297 -384.874 -250.934 -384.874c-61.2559 0 -74.3818 37.7393 -74.3818 71.6465
c0 114.469 93.6455 183.97 197.879 255.03c0.779297 16.2119 1.20312 33.2031 1.20312 51.0674c-0.134766 69.1162 -4.33789 138.165 -12.5869 206.787c-33.9355 -178.26 -85.2178 -284.09 -174.091 -284.09c-62.8975 0 -147.308 72.0498 -147.308 245.392
c-0 101.43 22.0713 181.722 41.2051 210.025c26.627 39.3701 115.948 6.69043 115.948 -24.4307c0 -18.4365 -40.4736 -124.028 -40.4736 -263.252c0 -56.2451 10.9395 -111.938 46.4951 -134.782c69.7432 22.8232 134.375 255.976 140.651 376.049
c-0.186523 1.54492 -0.348633 3.01074 -0.469727 4.30371c-3.2832 35.0039 102.822 32.8145 123.604 -10.9395s36.0977 -126.716 36.0977 -243.385c-0.0136719 -13.6338 -0.282227 -26.96 -0.806641 -39.9775c60.6934 49.4365 112.352 106.761 135.623 182.818z
M201.277 -281.33c35.1943 0 112.107 61.5 129.285 261.924c-85.3135 -60.1416 -155.536 -119.531 -155.536 -203.952c0 -29.5342 5.83496 -57.9717 26.251 -57.9717z" />
    <glyph glyph-name="y" unicode="&#xff;" horiz-adv-x="551" 
d="M597.875 289.933c2.24902 7.33887 26.1777 5.05566 22.1533 -9.3877c-24.5029 -88.1348 -88.1074 -152.629 -159.81 -208.001c-20.3848 -261.625 -147.297 -384.874 -250.934 -384.874c-61.2559 0 -74.3818 37.7393 -74.3818 71.6465
c0 114.469 93.6455 183.97 197.879 255.03c0.779297 16.2119 1.20312 33.2031 1.20312 51.0674c-0.134766 69.1162 -4.33789 138.165 -12.5869 206.787c-33.9355 -178.26 -85.2178 -284.09 -174.091 -284.09c-62.8975 0 -147.308 72.0498 -147.308 245.392
c-0 101.43 22.0713 181.722 41.2051 210.025c26.627 39.3701 115.948 6.69043 115.948 -24.4307c0 -18.4365 -40.4736 -124.028 -40.4736 -263.252c0 -56.2451 10.9395 -111.938 46.4951 -134.782c69.7432 22.8232 134.375 255.976 140.651 376.049
c-0.186523 1.54492 -0.348633 3.01074 -0.469727 4.30371c-3.2832 35.0039 102.822 32.8145 123.604 -10.9395s36.0977 -126.716 36.0977 -243.385c-0.0136719 -13.6338 -0.282227 -26.96 -0.806641 -39.9775c60.6934 49.4365 112.352 106.761 135.623 182.818z
M201.277 -281.33c35.1943 0 112.107 61.5 129.285 261.924c-85.3135 -60.1416 -155.536 -119.531 -155.536 -203.952c0 -29.5342 5.83496 -57.9717 26.251 -57.9717z" />
    <glyph glyph-name="y" unicode="&#xfd;" horiz-adv-x="551" 
d="M597.875 289.933c2.24902 7.33887 26.1777 5.05566 22.1533 -9.3877c-24.5029 -88.1348 -88.1074 -152.629 -159.81 -208.001c-20.3848 -261.625 -147.297 -384.874 -250.934 -384.874c-61.2559 0 -74.3818 37.7393 -74.3818 71.6465
c0 114.469 93.6455 183.97 197.879 255.03c0.779297 16.2119 1.20312 33.2031 1.20312 51.0674c-0.134766 69.1162 -4.33789 138.165 -12.5869 206.787c-33.9355 -178.26 -85.2178 -284.09 -174.091 -284.09c-62.8975 0 -147.308 72.0498 -147.308 245.392
c-0 101.43 22.0713 181.722 41.2051 210.025c26.627 39.3701 115.948 6.69043 115.948 -24.4307c0 -18.4365 -40.4736 -124.028 -40.4736 -263.252c0 -56.2451 10.9395 -111.938 46.4951 -134.782c69.7432 22.8232 134.375 255.976 140.651 376.049
c-0.186523 1.54492 -0.348633 3.01074 -0.469727 4.30371c-3.2832 35.0039 102.822 32.8145 123.604 -10.9395s36.0977 -126.716 36.0977 -243.385c-0.0136719 -13.6338 -0.282227 -26.96 -0.806641 -39.9775c60.6934 49.4365 112.352 106.761 135.623 182.818z
M201.277 -281.33c35.1943 0 112.107 61.5 129.285 261.924c-85.3135 -60.1416 -155.536 -119.531 -155.536 -203.952c0 -29.5342 5.83496 -57.9717 26.251 -57.9717z" />
    <glyph glyph-name="z" unicode="z" horiz-adv-x="555" 
d="M592.32 296.951c4.82129 11.584 42.1006 6.87695 30.0996 -18.0498c-40.2881 -83.5342 -153.405 -162.361 -257.556 -242.175c34.877 -28.6377 63.0283 -71.0742 63.0283 -123.719c0 -149.859 -129.809 -225.334 -217.315 -225.334s-100.633 59.0654 -100.633 90.4248
c0 90.5449 78.0889 171.6 171.917 246.529c-12.0947 5.66309 -27.1689 7.88379 -44.7568 7.88379c-17.2295 0 -25.7998 -3.55566 -62.625 -3.55566s-102.823 39.377 -72.9229 54.7617c28.9375 14.8877 183.949 141.147 183.949 298.28
c0 18.5957 5.28711 60.1631 -43.7529 60.1631c-85.1377 0 -167.544 -95.2559 -169.82 -153.143c-0.365234 -9.56641 -5.87598 -12.9873 -13.125 -12.9873s-20.2363 5.05957 -20.2363 32.1318c0 64.9941 85.2275 171.6 196.345 171.6
c96.7637 0 176.387 -54.082 176.387 -169.958c0 -94.8906 -83.3174 -182.401 -142.387 -231.99c16.9707 -0.220703 38.1973 -6.2041 59.5791 -17.1777c112.579 84.5137 232.718 161.551 263.825 236.314zM174.759 -266.109c10.9189 0 140.269 59.8848 140.286 222.321
c0.31543 12.5605 -1.49609 25.084 -5.35938 37.04c-82.7305 -67.6904 -148.601 -136.795 -148.601 -210.687c0 -7.38379 2.73438 -48.6748 13.6738 -48.6748z" />
    <glyph glyph-name="braceleft" unicode="{" horiz-adv-x="349" 
d="M284.012 -33.9434c12.0361 0 14.4941 -5.10645 14.4941 -11.2861c0 -9.43555 -28.1689 -37.6494 -79.8506 -37.6494c-38.0117 0 -121.873 34.1836 -121.873 176.021c0 68.5498 11.1182 105.923 11.1182 147.486c0 59.6143 -31.876 70.5918 -43.2051 74.3857
c-16.7744 5.59375 -21.1475 26.8066 -2.73535 33.9072c4.35938 1.67969 45.9404 5.28711 45.9404 73.8369c0 39.9258 -10.3906 102.823 -10.3906 143.842c0 113.214 49.7715 181.581 119.78 181.581c17.2266 0 73.0156 -13.9365 78.7578 -31.9971
s-9.30078 -23.7959 -41.2939 -9.31152c-21.5996 -6.5625 -37.4639 -59.8896 -37.4639 -108.564s27.3447 -131.264 27.3447 -169.548s-31.7207 -90.5176 -50.3193 -95.7109c21.6064 -14.7676 49.7715 -46.8096 49.7715 -89.1494
c0 -60.7109 -27.3447 -125.791 -27.3447 -176.659s20.7676 -108.979 38.0107 -108.979c9.57031 0 17.2266 7.79395 29.2588 7.79395z" />
    <glyph glyph-name="verticalbar" unicode="|" horiz-adv-x="260" 
d="M79.1865 689.393c8.21777 48.6641 136.476 23.0791 131.103 -17.2363c-54.1992 -406.752 -24.0303 -633.027 -19.75 -705.487c2.55176 -43.2119 -68.8193 -59.7109 -84.7734 -14.792c-47.9336 134.947 -83.334 401.514 -26.5791 737.516z" />
    <glyph glyph-name="braceright" unicode="}" horiz-adv-x="349" 
d="M286.539 352.355c18.416 -7.10059 14.0371 -28.3135 -2.73047 -33.9248c-11.332 -3.7832 -43.208 -14.7705 -43.208 -74.3848c0 -41.5635 11.1221 -78.9365 11.1221 -147.486c0 -141.838 -83.8613 -176.021 -121.873 -176.021
c-51.6855 0 -79.8506 28.2139 -79.8506 37.6494c0 6.19727 2.46582 11.3018 14.4844 11.3018s19.6914 -7.79395 29.2617 -7.79395c17.2295 0 38.0117 58.1143 38.0117 108.979s-27.3477 115.962 -27.3477 176.659c0 42.3398 28.1689 74.3818 49.7715 89.1494
c-18.5889 5.19336 -50.3164 57.4238 -50.3164 95.7109s27.3447 120.873 27.3447 169.548s-15.8604 102.013 -37.4629 108.565c-31.9971 -14.4844 -47.0332 -8.73926 -41.291 9.31152s61.5283 31.9971 78.7549 31.9971c70.0088 0 119.78 -68.3672 119.78 -181.581
c0 -41.0186 -10.3945 -103.916 -10.3945 -143.842c0 -68.5498 41.584 -72.1572 45.9434 -73.8369z" />
    <glyph glyph-name="asciitilde" unicode="~" horiz-adv-x="591" 
d="M506.465 361.76c13.9463 10.9395 38.4189 5.67188 33.9111 -9.83691c-6.3457 -21.8301 -47.0371 -115.673 -127.981 -115.673c-103.93 0 -169.186 82.9414 -206.011 101.909c-49.9512 0 -102.823 -71.8291 -119.594 -90.4248
c-15.7334 -17.4502 -39.8809 5.37695 -36.4629 19.3135c4.74219 19.3262 62.8975 117.407 137.279 117.407c119.231 0 164.261 -108.837 213.85 -108.837c50.3164 0 91.0625 75.2021 105.009 86.1416z" />
    <glyph glyph-name="nonbreakingspace" unicode="&#xa0;" horiz-adv-x="314" 
 />
    <glyph glyph-name="exclamdown" unicode="&#xa1;" horiz-adv-x="237" 
d="M105.529 623.688c-12.2109 -0.000976562 -23.9229 4.84961 -32.5576 13.4844s-13.4863 20.3457 -13.4863 32.5566c-0.000976562 18.623 11.2158 35.4131 28.4209 42.541s37.0098 3.18945 50.1787 -9.97852s17.1084 -32.9727 9.98242 -50.1787
s-23.915 -28.4248 -42.5381 -28.4248zM163.97 568.223c33.9072 -192.517 24.0664 -508.639 6.56445 -579.465c-7.87695 -31.8691 -109.934 -49.499 -119.776 3.83496c-5.7666 31.2275 23.1543 536.25 28.0303 566.516s79.7812 39.7734 85.1816 9.11426z" />
    <glyph glyph-name="cent" unicode="&#xa2;" horiz-adv-x="537" 
d="M400.184 703.483c23.5752 26.5752 99.0566 -26.6992 85.7207 -47.7676c-27.0098 -42.6357 -62.1895 -104.799 -99.8936 -174.159c23.6963 -39.6602 29.3418 -89.5459 12.9326 -131.74c-4.81445 -12.3838 -26.3965 -9.8418 -23.334 11.8506
c3.87012 27.3975 0.154297 55.332 -10.7432 80.7656c-46.7197 -87.0137 -95.6152 -181.29 -136.613 -260.858c21.8164 -25.0029 48.9746 -41.7734 79.5371 -41.7734c36.46 0 59.9902 18.957 74.5645 30.2617s23.6992 -6.19727 20.7812 -12.9434
s-32.0908 -48.4961 -111.756 -48.4961c-23.4824 0 -56.3623 6.41504 -90.3115 20.1338c-37.0908 -72.1221 -63.7422 -124.073 -69.5742 -133.164c-18.5957 -28.9863 -72.4678 1.20996 -67.2744 19.1436c10.7871 37.2422 32.207 94.0938 59.6104 159.723
c-42.0156 35.2354 -73.8301 85.6064 -73.8301 153.483c0 118.873 99.9053 224.058 210.933 224.058c13.4258 0.046875 26.7998 -1.67188 39.7773 -5.11133c37.9629 69.8809 73.2324 127.019 99.4736 156.595zM176.084 294.146
c32.6074 71.8193 68.5283 146.201 103.229 212.574c-45.7363 -5.15234 -106.434 -91.79 -106.434 -178.776c0.0751953 -11.3379 1.14746 -22.6475 3.2041 -33.7979z" />
    <glyph glyph-name="sterling" unicode="&#xa3;" horiz-adv-x="491" 
d="M420.755 36.3379c2.2793 9.39062 20.5127 2.09766 20.4785 -14.7832c0 -26.8896 -26.6172 -48.1299 -88.6006 -48.1299c-22.6992 0 -83.6787 6.29004 -128.253 6.29004c-32.5986 -0.0683594 -65.1445 -2.62793 -97.3535 -7.65625
c-21.3438 -3.01074 -29.8105 12.8496 -19.9648 25.1582c4.88672 6.10742 20.7812 47.0332 20.7812 99.2666c0 16.3643 -18.168 146.745 -28.918 243.288c-11.8906 -0.12793 -23.3506 -0.0351562 -33.8418 0.368164c-15.1191 0.576172 -22.7441 31.1729 -4.10059 31.3105
c3.69336 0.0244141 16.7988 0.779297 34.3867 1.8623c-2.55176 25.6621 -4.16895 46.7334 -4.16895 59.2559c0 183.767 62.8252 289.507 153.871 289.507c92.2559 0 128.75 -83.3447 101.736 -180.667c-4.79395 -17.2783 -28.083 -8.16016 -26.4346 4.00684
c13.1289 96.8428 -30.6113 128.074 -36.9014 128.074c-3.46582 0 -60.0938 -40.7461 -60.0938 -259.858c0 -10.2422 0.134766 -21.209 0.344727 -32.7412c9.33887 0.407227 16.0088 0.583008 18.5811 0.407227c19.6924 -1.36914 20.7715 -31.8486 4.23828 -33.2285
c-3.64551 -0.303711 -11.4668 -0.986328 -22.1064 -1.83496c2.2207 -105.378 3.7207 -242.625 -42.4189 -332.246c67.1113 0.248047 134.551 -8.27734 163.812 -8.27734c55.3311 0 72.0293 18.6885 74.9258 30.6279z" />
    <glyph glyph-name="currency" unicode="&#xa4;" horiz-adv-x="371" 
d="M289.956 499.587c7.65625 10.9355 37.7393 -3.00195 29.2627 -17.5107c-7.1875 -12.3223 -21.0928 -32.8936 -28.9697 -40.6465c14.2705 -26.0137 21.8779 -59.6416 21.8779 -95.8145c0 -43.7539 -12.0977 -90.873 -36.6143 -124.771
c9.79883 -7.32031 18.2676 -16.2686 25.0371 -26.4551c7.10742 -14.6738 -11.1221 -18.502 -19.5098 -16.1328c-7.03906 1.99023 -18.5469 13.0918 -25.0996 20.9238c-18.7969 -16.832 -43.1953 -26.0488 -68.4258 -25.8486c-20.7305 0 -45.5684 7.93555 -68.4023 23.9922
c-7.10645 -11.4434 -16.3662 -21.3984 -27.2656 -29.3135c-15.8604 -10.9395 -29.8066 3.1416 -25.8408 13.2598c3.36914 8.62207 17.5537 26.166 28.2793 37.9365c-25.5029 27.8408 -44.2393 68.501 -44.2393 122.497c0 38.8291 9.67383 74.3467 26.6963 102.333
c-8.62207 11.0977 -18.9023 31.6865 -25.5205 45.9883c-8.47656 18.3125 29.5967 22.0713 40.1982 6.55176c4.28711 -6.2627 8.39746 -14.167 11.8047 -20.4268c20.8613 18.9619 48.0596 29.4355 76.25 29.3623c36.8867 0 54.4854 -7.95605 60.8721 -17.5576
c11.5879 -4.50488 22.0664 -11.46 30.7178 -20.3887c4.87305 8.74902 12.9189 23.4883 18.8916 32.0205zM207.191 202.698c29.7178 0 73.2891 63.0762 73.2891 138.996c0 57.0518 -22.1133 103.295 -45.8301 119.528
c-0.510742 -0.448242 -1.03516 -0.878906 -1.57324 -1.28613c-16.7705 -12.7637 -61.541 -48.8574 -61.541 -160.792c0 -77.4785 21.2539 -96.4463 35.6553 -96.4463z" />
    <glyph glyph-name="yen" unicode="&#xa5;" horiz-adv-x="421" 
d="M337.438 691.01c6.01758 24.0654 37.2031 16.6953 33.6367 -6.82812c-20.1475 -132.471 -63.6455 -284.727 -99.4463 -323.352c16.0361 -0.355469 27.6133 -0.720703 30.2588 -0.972656c24.8857 -2.36914 19.0059 -30.7656 8.8877 -31.3145
c-3.31738 -0.193359 -23.582 -0.373047 -49.5303 -0.539062c-0.140625 -3.94727 -0.283203 -8.24512 -0.427734 -12.8936c7.98047 -0.0517578 13.5879 -0.162109 15.5195 -0.344727c24.8857 -2.36914 19.0059 -30.7617 8.8877 -31.3096
c-2.45215 -0.130859 -12.0703 -0.331055 -25.2998 -0.555664c-2.51758 -96.2188 -5.43848 -256.438 -8.0625 -267.894c-7.65625 -33.4248 -77.665 -56.0693 -86.6865 -16.4092c-1.60742 7.05566 -11.4707 145.807 -9.03613 282.854
c-11.1875 -0.137695 -19.0332 -0.227539 -20.9092 -0.227539c-17.6396 -0.0654297 -22.4717 28.1172 -4.4209 30.4902c4.94238 0.637695 14.3643 1.20703 26.1309 1.67285c0.15625 4.76172 0.331055 9.50293 0.524414 14.2227
c-16.9297 -0.0107422 -28.9102 0.0341797 -31.0381 0.148438c-10.2256 0.548828 -18.0469 30.4453 0 32.8145c4.89746 0.644531 15.6436 1.01367 29.5244 1.19336c-36.0107 26.3203 -93.1484 141.458 -105.908 312.562c-2.82129 37.6357 141.638 36.6426 140.361 -25.8857
c-0.410156 -20.4199 16.5957 -258.518 44.4883 -272.371c54.6924 48.3096 99.5215 283.493 102.546 314.938z" />
    <glyph glyph-name="section" unicode="&#xa7;" horiz-adv-x="513" 
d="M454.552 208.345c-0.15332 -31.9346 -16.9785 -61.4668 -44.3711 -77.8828c23.5576 -22.8721 38.8936 -49.7686 38.8936 -83.459c0 -64.5352 -65.8145 -120.142 -182.673 -120.142c-39.3809 0 -184.588 33.5459 -184.588 103.737
c0 27.3447 57.8789 23.8818 41.5635 -4.10449c4.9248 -7.65625 29.4414 -45.3955 100.908 -45.3955c42.2949 0 138.555 26.71 138.555 98.1738c0 62.7148 -63.8867 78.165 -130.532 110.479c-87.0244 42.2012 -182.309 100.636 -182.309 185.591
c0 37.8145 23.7549 67.4043 38.6631 83.9756c-19.3574 23.127 -31.7275 49.7715 -31.7275 81.5615c0 76.5713 97.3496 162.985 230.072 162.985c80.582 0 175.745 -49.2236 175.745 -104.282c0 -30.2627 -35.0176 -74.0166 -41.8389 -82.2207
s-31.4033 5.54199 -24.0645 17.502c7.38379 12.0322 18.3232 51.1367 18.3232 59.8857c0 24.8857 -3.10059 38.0117 -48.6748 38.0117c-118.866 0 -197.441 -81.5029 -197.441 -142.2c0 -99.1777 285.496 -129.806 285.496 -282.217zM339.482 186.896
c11.377 7.03906 30.2939 22.4658 30.2939 60.2842c0 69.2217 -100.047 87.8926 -183.768 137.277l-0.416992 0.248047c-9.98047 -13.2842 -24.1963 -35.9902 -24.1963 -57.127c0 -65.7666 94.9736 -87.873 178.087 -140.683z" />
    <glyph glyph-name="copyright" unicode="&#xa9;" horiz-adv-x="635" 
d="M312.187 655.733c162.788 0 273.229 -142.199 273.229 -345.779c0 -198.269 -129.878 -344.8 -271.685 -344.8c-167.427 0 -263.731 186.036 -263.731 333.64c0 224.22 133.412 356.939 262.187 356.939zM323.83 -7.50781c117.056 0 224.241 135.275 224.241 318.314
c0 168.455 -91.1562 319.222 -225.518 319.222c-106.285 0 -216.401 -136.182 -216.401 -329.522c0 -136.269 79.4854 -308.014 217.678 -308.014zM425.56 212.357c6.9248 10.2119 30.8135 5.72168 24.4434 -9.83496c-5.83203 -14.2295 -53.5996 -78.0303 -115.221 -78.0303
c-91.1523 0 -153.867 100.636 -153.867 190.329c0 46.6748 40.1221 180.853 154.964 180.853c97.3535 0 109.386 -69.6426 98.4463 -86.0479c-5.2002 -7.77637 -21.3467 -15.8604 -25.1748 1.82129c-6.06934 28.0342 -28.8066 39.377 -33.5449 39.377
c-15.6777 0 -86.4141 -79.7578 -86.4141 -195.434c0 -72.5674 32.4482 -101.736 52.8682 -101.736c32.8037 0 76.5713 48.4951 83.5 58.7031z" />
    <glyph glyph-name="softhyphen" unicode="&#xad;" 
 />
    <glyph glyph-name="registered" unicode="&#xae;" horiz-adv-x="635" 
d="M312.187 665.568c162.788 0 273.226 -142.193 273.229 -345.783c0 -198.269 -129.881 -344.8 -271.685 -344.8c-167.427 0 -263.731 186.04 -263.731 333.644c0 224.22 133.412 356.939 262.187 356.939zM323.829 2.33008c117.038 0 224.237 135.282 224.237 318.312
c0 168.455 -91.1523 319.225 -225.514 319.225c-106.285 0 -216.401 -136.186 -216.401 -329.526c0 -136.265 79.4854 -308.01 217.678 -308.01zM480.068 411.805c0 -92.249 -110.664 -144.392 -150.779 -140.009c5.46973 -10.5811 36.4629 -90.2461 83.1338 -90.2461
c12.7637 0 12.584 2.55566 21.1504 2.55566s15.4951 -1.82422 15.4951 -12.5811s-23.5127 -14.9502 -39.5596 -14.9502s-62.8975 1.45898 -113.4 66.7256c-5.10449 -9.11523 -7.29102 -60.1729 -9.11523 -71.8291s-9.48047 -17.8643 -24.0654 -17.8643
s-17.8711 1.46582 -30.2627 12.7607s-44.1191 93.7188 -44.1191 208.561c0 40.1113 2.91113 79.123 10.209 109.751s17.8682 40.8398 44.4883 40.8398s57.248 -14.3945 57.248 -31.7275c0 -45.0332 -8.02148 -101.367 -8.02148 -118.869
c14.9121 35.4043 55.7861 121.967 112.669 121.967c54.6924 0 74.9297 -43.7539 74.9297 -65.084zM317.708 304.604c36.0186 16.499 94.5391 76.0234 83.0547 132.906c-29.5342 -18.0645 -73.6533 -89.6973 -83.0547 -132.906z" />
    <glyph glyph-name="plusminus" unicode="&#xb1;" horiz-adv-x="377" 
d="M310.484 416.042c26.7998 -5.33203 15.3125 -32.1328 2.85938 -30.6396c-1.93848 0.241211 -35.6768 -0.03125 -79.1885 -1.03516c-2.59668 -54.4199 -5.82812 -109.078 -6.89746 -123.887c-2.18652 -30.2627 -73.6533 -32.5527 -82.4023 -7.29102
c-8.54199 24.6895 -19.3535 74.6367 -26.4746 127.057c-18.626 -0.982422 -35.7969 -2.12695 -49.9121 -3.44824c-16.9258 -1.58301 -27.8926 32.0869 -7.11035 34.7285c9.16309 1.15918 28.6963 2.125 52.9893 2.88379
c-4.07324 40.6914 -5.16992 79.9033 -0.483398 106.958c9.43555 54.4307 115.221 34.459 123.242 -12.9395c1.46875 -8.69043 0.413086 -47.3887 -1.4834 -91.9316c40.1846 0.283203 71.9609 0.121094 74.8613 -0.455078zM271.194 198.863
c19.1436 -1.95215 14.6113 -28.2588 -1.46973 -28.252c-71.4639 0 -175.042 -10.3809 -185.043 -10.7529s-19.8604 25.1514 -4.1377 30.3486c12.667 4.17285 119.187 15.9502 190.65 8.65625z" />
    <glyph glyph-name="acute" unicode="&#xb4;" horiz-adv-x="295" 
d="M116.79 695.252c9.24219 35.0488 138.754 21.6631 127.99 -36.2334c-7.9043 -42.4365 -65.9697 -169.914 -101.736 -208.381c-24.751 -26.6172 -105.757 5.05176 -91.3379 32.2686c16.7227 31.5586 57.7832 184.646 65.084 212.346z" />
    <glyph glyph-name="paragraph" unicode="&#xb6;" horiz-adv-x="712" 
d="M640.682 729.29c35.5771 -13.0254 19.2588 -49.4912 5.11523 -46.9287c-1.89648 0.341797 -27.417 0.141602 -62.8555 -0.461914c0.65332 -2.3916 0.821289 -4.88965 0.494141 -7.34668c-54.2031 -406.752 -24.0303 -633.027 -19.75 -705.487
c2.55176 -43.2119 -68.8193 -59.7109 -84.7734 -14.7949c-47.3193 133.182 -82.3369 394.609 -28.6963 724.404c-32.5869 -1.05566 -62.0801 -2.27637 -81.6172 -3.59766c-0.0175781 -0.179688 0.00683594 -0.348633 -0.0175781 -0.524414
c-54.1992 -406.752 -24.0264 -633.027 -19.7461 -705.487c2.55176 -43.2119 -68.8193 -59.7109 -84.7764 -14.7949c-31.9697 89.9863 -58.3145 238.56 -55.5244 427.158c-73.0918 -0.738281 -158.533 32.5449 -158.533 143.417c0 56.1514 41.6846 221.688 333.261 221.688
c156.422 0 236.272 -9.49121 257.42 -17.2441z" />
    <glyph glyph-name="questiondown" unicode="&#xbf;" horiz-adv-x="551" 
d="M316.432 629.523c-25.4268 0 -46.04 20.6133 -46.04 46.04s20.6133 46.04 46.04 46.04s46.04 -20.6133 46.04 -46.04s-20.6133 -46.04 -46.04 -46.04zM468.032 184.008c13.9463 0 33.3633 -17.0635 33.3633 -55.1543c0 -84.5928 -96.2568 -196.893 -249.399 -196.893
c-50.3164 0 -201.997 31.3623 -201.997 177.932c0 124.701 189.968 258.148 231.61 452.189c8.80762 41.0459 83.3271 47.1572 83.3271 -22.3027c0 -237.366 -201.907 -359.878 -201.907 -501.716c0 -68.9121 55.4209 -69.2773 81.8584 -69.2773
c113.576 0 219.044 87.1416 219.044 183.494c0 13.6807 -13.9463 31.7275 4.10059 31.7275z" />
    <glyph glyph-name="multiply" unicode="&#xd7;" horiz-adv-x="380" 
d="M221.639 463.213c36.2979 23.2266 116.927 -13.5586 107.929 -45.9453c-3.31445 -11.9355 -58.9316 -74.3564 -105.661 -127.518c20.3887 -30.3799 38.0596 -55.748 43.4951 -67.7354c13.3086 -29.3516 -16.4639 -35.9941 -27.3447 -31.6934
c-9.20801 3.63477 -28.6582 26.9062 -51.1123 58.1582c-21.0098 -26.041 -33.0527 -42.8359 -45.1504 -51.0781c-30.3965 -20.7129 -112.131 7.11133 -90.0596 43.3916c3.98633 6.55957 34.6104 55.8379 70.2246 106.83c-22.082 36.5703 -40.2979 70.1641 -47.0713 88.6045
c-8.125 22.1201 31.7041 38.6494 44.1191 21.1504c3.11035 -4.39355 17.6738 -30.0039 37.0967 -62.7666c23.9404 31.418 47.1328 58.1074 63.5352 68.6016z" />
    <glyph glyph-name="divide" unicode="&#xf7;" horiz-adv-x="377" 
d="M309.772 376.224c23.4473 -2.41406 20.3516 -44.833 8.59473 -47.2783c-6.94922 -1.45508 -240.102 -13.1289 -248.578 -13.1289c-14.7676 0 -35.0049 52.2305 -1.91504 55.9238c15.4053 1.72461 188.209 10.043 241.898 4.4834zM190.911 412.394
c-25.6123 0 -46.376 20.7627 -46.376 46.375c-0.000976562 18.7588 11.2979 35.6709 28.6289 42.8506s37.2803 3.21191 50.5449 -10.0527s17.2324 -33.2139 10.0527 -50.5449c-7.17969 -17.3301 -24.0918 -28.6289 -42.8506 -28.6279zM183.619 269.79
c25.6123 -0.00195312 46.374 -20.7656 46.374 -46.3779c0 -18.7588 -11.2998 -35.6699 -28.6309 -42.8477c-17.3311 -7.17871 -37.2793 -3.20996 -50.543 10.0547s-17.2305 33.2129 -10.0508 50.543s24.0918 28.6289 42.8506 28.6279z" />
    <glyph glyph-name="mugreek" unicode="&#x3bc;" horiz-adv-x="520" 
d="M556.97 281.351c3.7832 14.75 36.5801 12.4697 31.5273 -7.34668c-41.5605 -162.985 -115.397 -313.21 -175.194 -313.21c-76.5752 0 -120.343 85.8271 -139.214 191.443c-32.7041 -111.813 -68.9736 -200.183 -113.117 -200.183
c-51.3096 0 -89.0762 36.708 -114.393 91.4697c-0.839844 -28.4756 -0.166016 -56.9756 2.01758 -85.3799c1.90332 -21.6064 -41.0293 -29.2939 -45.3955 -0.000976562c-5.74219 38.5566 -3.55957 252.406 4.97559 343.61c2.01855 34.2871 7.27148 68.3066 15.6885 101.605
c7.11133 27.0928 119.914 38.8877 119.914 -17.0918c0 -31.4482 -15.0537 -70.3564 -15.0537 -234.786c0 -86.0518 16.7227 -157.495 31.8965 -164.758c39.9707 28.8105 64.3838 124.512 102.626 274.144c-1.75879 59.8242 2.88965 119.08 12.7598 167.562
c6.4873 31.8799 109.751 27.5273 123.239 -26.7998c7.35645 -29.624 -18.5947 -195.857 -18.5947 -286.24c0 -86.0479 24.499 -119.935 32.293 -119.935c23.127 0 101.468 119.921 144.024 285.896z" />
    <glyph glyph-name="perthousand" unicode="&#x2030;" horiz-adv-x="737" 
d="M390.805 698.814c26.7236 31.0039 101.235 -18.04 79.8018 -47.1846c-74.4707 -101.271 -327.273 -589.426 -349.514 -654.692c-12.3672 -36.2979 -80.4512 -13.4844 -70.0088 22.6064c49.958 172.658 249.42 574.503 339.721 679.271zM152.844 452.64
c-40.6113 0 -101.715 43.627 -101.726 130.624c0 69.5703 25.9785 121.76 74.0391 121.76c4.69043 0 8.99414 -0.106445 12.9668 -0.292969c4.77051 3.3125 10.4648 5.03516 16.2715 4.92188c41.5674 0 96.1914 -46.6367 96.1914 -114.358
c0 -61.5381 -21.4443 -142.654 -97.7432 -142.654zM171.891 672.178c-9.74609 -18.9023 -23.7061 -61.3701 -23.7061 -109.428c0 -59.3037 15.502 -77.2988 19.7021 -77.2988c6.19727 0 41.5635 44.8955 41.5635 103.01c0 45.0537 -18.9639 73.9502 -37.5596 83.7168z
M381.513 231.852c41.5771 0 96.2197 -46.6396 96.2021 -114.358c0 -61.542 -21.4443 -142.655 -97.7432 -142.655c-40.6221 0 -101.736 43.6289 -101.736 130.622c0 69.5742 25.9756 121.76 74.04 121.76c4.69043 0 8.99414 -0.103516 12.9668 -0.292969
c4.76953 3.31543 10.4639 5.03906 16.2705 4.9248zM395.006 7.65234c6.19727 0 41.5742 44.8945 41.5635 103.005c0 45.0576 -18.9639 73.9541 -37.5596 83.7207c-9.74609 -18.9023 -23.7061 -61.373 -23.7061 -109.427c0 -59.3037 15.502 -77.2988 19.7021 -77.2988z
M590.45 231.851c41.5674 0 96.1924 -46.6396 96.1992 -114.358c0 -61.542 -21.4443 -142.655 -97.7393 -142.655c-40.6221 0 -101.736 43.6289 -101.736 130.622c0 69.5742 25.9785 121.76 74.0391 121.76c4.69336 0 8.99414 -0.103516 12.9707 -0.292969
c4.76758 3.31641 10.4609 5.04004 16.2666 4.9248zM603.942 7.65137c6.18359 0 41.5674 44.8945 41.5674 103.005c0 45.0576 -18.9678 73.9541 -37.5635 83.7207c-9.74609 -18.9023 -23.7061 -61.373 -23.7061 -109.427c0 -59.3037 15.502 -77.2988 19.7021 -77.2988z" />
    <glyph glyph-name="Euro" unicode="&#x20ac;" horiz-adv-x="486" 
d="M419.271 38.8008c3.67969 3.46289 22.7969 -5.83105 14.958 -14.584s-41.0088 -34.2734 -88.6006 -34.2734c-107.834 0 -228.969 100.743 -247.367 316.052c-18.6777 0 -32.29 -0.0205078 -35.3936 -0.0205078c-12.2148 0 -15.8633 31.5693 -2.82715 31.542
c3.27637 -0.00683594 17.2363 -0.0761719 36.3281 -0.272461c-0.335938 8.63574 -0.503906 17.4473 -0.503906 26.4346c0 2.21094 0.0273438 4.4043 0.0449219 6.60156c-15.8223 -0.510742 -27.7793 -1.0625 -32.6797 -1.59375
c-15.0264 -1.63477 -19.6748 33.2764 -1.03418 33.4141c3.49023 0.0244141 16.6777 0.279297 34.7803 0.624023c11.0771 195.075 105.026 317.279 217.219 317.279c101.453 0 112.351 -91.0459 104.919 -122.429c-4.55957 -19.2363 -25.4209 -12.084 -26.2559 -2.36914
c-2.09668 24.4102 -33.5449 78.21 -48.6738 78.21c-34.9736 0 -93.8086 -94.6768 -110.845 -268.401c16.3574 0.168945 28.2002 0.186523 31.6279 -0.0478516c19.6924 -1.36914 20.6826 -35.4561 4.24316 -33.2285c-4.15234 0.5625 -18.7783 0.787109 -38.4873 0.766602
c-0.797852 -12.5098 -1.37305 -25.3721 -1.72461 -38.5879c8.85352 -0.241211 17.6768 -1.14258 26.3965 -2.69629c18.7783 -5.10449 10.7568 -28.2588 2.19043 -26.6172c-2.00684 0.386719 -13.0771 0.663086 -29.0098 0.866211v-0.947266
c0 -246.033 112.7 -287.238 134.213 -287.238s52.8057 18.0508 56.4824 21.5166z" />
    <glyph glyph-name="trademark" unicode="&#x2122;" horiz-adv-x="604" 
d="M227.34 721.183c22.4375 -1.81445 22.6182 -35.3652 12.582 -36.4619c-13.0225 -1.41699 -28.0762 0.548828 -34.5498 -0.547852c0 -9.16016 -15.4395 -119.694 -5.46973 -197.166c1.82422 -14.1533 -13.498 -28.4375 -32.2695 -28.4375
c-19.4922 0 -39.0605 13.9053 -42.6572 28.4385c-17.9336 72.3848 -25.4346 187.595 -20.8789 196.713c-12.9395 0.666992 -25.9082 0.513672 -38.8281 -0.458984c-14.4297 -1.54883 -22.8965 30.9443 -5.65332 33.9102c41.3848 7.11426 150.257 5.43164 167.725 4.01074z
M486.779 713.163c43.0117 0 67.2725 -24.25 67.2725 -38.2861c0 -16.957 -6.01465 -175.204 -8.93262 -199.997s-58.8867 -41.7471 -82.7686 3.64844c-7.54199 14.3398 -16.043 101.364 -16.043 124.698c-5.10449 -14.2188 -18.0234 -34.0146 -22.9102 -41.2324
c-6.89746 -10.1768 -16.2812 -9.2666 -28.3174 -9.2666s-22.4238 15.1328 -28.8076 21.5127c-1.09277 -17.8672 0.09375 -53.5957 1.18652 -90.793s-61.2695 -32.3242 -75.3848 -3.10352c-20.7822 43.0332 -24.4307 149.139 -24.4307 171.745
c0 46.3057 8.02148 64.1729 43.3877 64.1729c37.373 0 61.4238 -21.0098 57.9756 -42.6602c2.55176 -3.64844 24.4404 -60.5273 30.9932 -77.2979c4.01074 8.02148 53.2305 95.5254 57.9727 102.819s10.7598 14.04 28.8066 14.04z" />
    </font>
</defs>
</svg>
